<svg width="1280" height="185" viewBox="0 0 1280 185" fill="none" xmlns="http://www.w3.org/2000/svg">
<path d="M567.907 104.379C540.741 91.2573 519.987 79.636 486.591 64.1373C453.03 49.0139 447.925 46.8523 408.431 32.0864C368.757 17.4592 327.304 9.00886 308.747 6.08546C290.14 3.15907 288.171 3.20691 261.601 1.13136C234.847 -0.497409 218.921 -0.121147 195.442 1.50899C171.897 2.11532 101.644 14.4302 76.5394 21.9501C51.0399 28.427 23.0659 38.1889 6.53698 44.3511C1.30567 46.2822 -2.84906 47.8833 -6.04127 49.1375C-7.3938 49.6692 -8.01065 49.9455 -7.99761 49.9801C-7.9976 49.9801 -7.99759 49.9801 -7.99758 49.9801C-7.98082 50.0234 -6.98806 49.6921 -5.24126 49.0379C3.33305 45.8305 15.4782 41.4412 30.4761 36.6367C58.4206 28.0378 61.236 26.3957 99.5574 17.2047C138.009 8.87274 161.367 4.97745 207.639 2.18566C253.841 1.18763 264.761 0.799927 329.151 11.7367C392.875 25.9848 399.118 30.0383 459.146 54.9963C518.744 81.2562 591.72 119.578 627.893 135.151C650.914 145.506 679.356 157.518 711.337 167.98C729.179 173.824 748.435 178.096 768.302 180.817C823.718 188.801 893.333 184.44 953.853 173.301C1014.7 163.059 1098.23 137.815 1135.97 123.97C1173.76 110.341 1182.85 106.773 1218.71 92.0811C1239.33 83.5227 1267.07 71.0281 1290.25 59.0886C1301.66 53.1617 1299.19 54.2814 1287.32 60.1493C1270.09 68.5902 1255.93 75.113 1246.73 79.0198C1228.63 86.6065 1220.77 89.8595 1197.78 99.4281C1174.81 108.865 1163.53 112.397 1149.96 117.398C1136.21 122.034 1136.98 123.769 1066.26 144.78C995.255 164.82 955.091 170.952 927.529 175.098C900.009 179.331 841.655 185.286 796.265 181.412C774.707 179.879 742.355 175.684 712.095 165.664C678.683 154.793 646.837 141.061 629.094 132.987C595.23 117.359 595.098 117.419 567.907 104.379Z" fill="#D9D9D9"/>
</svg>
