<svg width="63" height="39" viewBox="0 0 63 39" fill="none" xmlns="http://www.w3.org/2000/svg">
<path d="M46.807 3.97103C47.1152 4.01986 46.1191 4.09658 46.7935 4.14019C46.6579 4.16794 46.5215 4.19609 46.3859 4.22383C46.3445 4.17916 46.3022 4.13473 46.2607 4.09006C46.4424 4.05035 46.6243 4.01063 46.8069 3.97079C46.8069 3.97087 46.807 3.97095 46.807 3.97103ZM46.9731 3.31773C46.824 3.48175 46.2942 3.59259 46.8899 3.64353C46.9292 3.58886 46.9697 3.53405 47.009 3.47939C47.2148 3.48943 47.4218 3.4993 47.6275 3.50914C47.6972 3.48082 47.7667 3.45248 47.8364 3.42436C47.9398 3.49585 48.0424 3.56767 48.1458 3.63936C48.0625 3.63823 47.9781 3.63704 47.8949 3.6359C47.5817 3.74834 47.2972 3.80631 46.8611 3.87898C46.9022 3.89361 46.9435 3.90805 46.9846 3.92268C46.7578 3.91927 46.531 3.91577 46.3051 3.91224C46.4927 3.85271 46.7025 3.78635 46.8764 3.731C46.5734 3.63822 46.0807 3.78042 45.8227 3.84374C45.4715 3.93006 45.5435 3.85636 45.2827 3.9188C45.241 3.92868 45.243 3.97847 45.1596 3.99072C44.7391 4.05228 43.9177 4.13822 44.3803 3.95809C45.0754 3.87796 45.6538 3.70498 46.3383 3.64551C46.1403 3.53759 46.4923 3.44344 46.9731 3.31773ZM34.2996 5.48309C34.5008 5.38995 34.932 5.35736 35.2279 5.36237C35.2283 5.36233 35.2286 5.36228 35.2289 5.36223C35.2941 5.36334 35.4502 5.42912 35.2415 5.45415C34.9013 5.49464 34.7188 5.38244 34.5531 5.49826C34.4711 5.49216 34.3853 5.48847 34.2996 5.48309ZM33.563 5.59207C33.3503 5.58756 33.4309 5.47315 33.6953 5.46492C33.6953 5.46484 33.6953 5.46476 33.6953 5.46468C33.8056 5.46127 33.6031 5.57072 33.982 5.43589C34.0704 5.48832 34.1567 5.53519 34.2439 5.5857C34.1485 5.59981 34.0616 5.6134 33.9615 5.62794C34.0147 5.5146 33.7757 5.59633 33.563 5.59207ZM44.0363 4.06359C44.0164 4.16173 44.1535 4.14237 44.3958 4.1754C44.175 4.20249 43.9542 4.22939 43.7344 4.25636C43.8354 4.19199 43.9353 4.12796 44.0363 4.06359ZM49.2151 3.36925C49.2155 3.3692 49.2158 3.36916 49.2161 3.36911C49.2863 3.34446 49.3567 3.31973 49.426 3.29541C49.4737 3.32293 49.5209 3.35037 49.5686 3.37789C49.8194 3.31159 50.0715 3.2451 50.3223 3.17859C50.3053 3.28494 49.8451 3.33102 49.6026 3.43692C49.2234 3.45752 49.0345 3.423 48.9983 3.3398C49.0703 3.34957 49.1422 3.35961 49.2151 3.36925ZM7.33443 18.2917C7.41588 18.2517 7.49624 18.2118 7.57767 18.1719C7.46248 18.1745 7.34861 18.18 7.23218 18.1807C6.94992 18.3447 6.9069 18.2397 6.51604 18.301C5.31797 18.4888 5.66285 18.6363 4.53962 18.505C5.41249 18.399 5.05973 18.3133 5.57101 18.1401C5.69035 18.2023 5.1938 18.4475 5.55135 18.4353C6.14777 18.2705 6.72163 18.1145 7.38857 17.9695C7.36706 17.9588 7.34563 17.9481 7.32412 17.9375C7.21837 17.9606 7.11351 17.9835 7.00775 18.0066C7.11822 17.9551 7.22612 17.9043 7.3384 17.8522C7.20134 17.9534 7.57272 17.8565 7.53494 17.9565C7.51811 18.001 7.35909 18.0813 7.26605 18.1343C7.52309 18.1211 7.7864 18.1051 8.04616 18.0908C7.91757 18.1421 7.78908 18.1933 7.66143 18.2444C7.55284 18.2603 7.44506 18.2758 7.33648 18.2918C7.3358 18.2917 7.33511 18.2917 7.33443 18.2917ZM57.915 8.29416C58.0556 8.60356 58.1518 9.1876 58.0868 9.51082C58.0295 9.10499 57.9723 8.69999 57.915 8.29416ZM48.964 3.2718C49.0028 3.28319 49.0404 3.29455 49.0792 3.30593C48.9221 3.35836 48.764 3.41071 48.6069 3.46313C48.5694 3.42002 48.5313 3.37699 48.493 3.33421C48.6496 3.31339 48.8074 3.29262 48.964 3.2718ZM38.6537 4.73731C38.7712 4.71829 38.7819 4.71841 38.9298 4.70505C38.9296 4.70503 38.9294 4.70502 38.9292 4.705C38.9878 4.69955 39.4789 4.66047 39.4296 4.70437C39.1877 4.73811 38.9296 4.77284 38.682 4.80674C38.6712 4.78378 38.6663 4.76022 38.6537 4.73731ZM41.5046 4.36862C41.5049 4.36866 41.5053 4.36869 41.5056 4.36873C41.5944 4.3622 41.6794 4.36206 41.7706 4.35167C41.4512 4.45385 41.3854 4.35798 41.0922 4.4278C40.799 4.49783 40.6231 4.57977 40.3515 4.47328C40.4424 4.43932 40.5393 4.39528 40.6325 4.35744C41.0622 4.35605 41.1685 4.28743 41.4994 4.18552C41.501 4.2467 41.5029 4.30744 41.5046 4.36862ZM3.33857 17.8746C3.25781 17.8035 3.31391 17.7042 3.31345 17.6948C3.31356 17.6949 3.31366 17.6951 3.31376 17.6953C3.15139 16.9898 3.36509 17.7829 3.28364 17.1073C3.3148 17.2052 3.34671 17.3014 3.37795 17.3983C3.36538 17.5567 3.34899 17.7204 3.33857 17.8746ZM16.4121 7.74354C16.4214 7.76294 16.432 7.78222 16.4414 7.80162C16.0356 7.85237 15.9433 7.94644 15.5967 7.91975C15.8685 7.86081 16.1402 7.80203 16.412 7.7433C16.412 7.74338 16.412 7.74346 16.4121 7.74354ZM36.5915 4.86925C37.0354 4.76898 37.3653 4.70641 37.8052 4.70886C37.8055 4.70889 37.8058 4.70893 37.8062 4.70896C37.8316 4.70934 37.7171 4.76829 37.751 4.77454C37.8392 4.756 37.9297 4.73365 38.0186 4.71375C38.0355 4.7461 38.0517 4.77851 38.0686 4.81065C37.8141 4.83568 37.5594 4.86074 37.304 4.8859C37.3442 4.90065 37.3854 4.91511 37.4256 4.92987C37.2113 4.96965 36.9979 5.00928 36.7836 5.04906C36.851 4.98303 36.9182 4.91702 36.9846 4.85091C36.8536 4.85694 36.7225 4.86343 36.5915 4.86925ZM9.63718 8.4449C9.71149 8.45729 9.58461 8.5125 9.69788 8.51642C9.81114 8.5201 10.0095 8.45083 9.97023 8.51991C9.82238 8.54871 9.66723 8.57977 9.51664 8.60937C10.0206 8.65523 10.4941 8.48645 10.5207 8.62466C10.0468 8.65277 9.66359 8.72233 9.21498 8.82304C9.2186 8.70995 9.65951 8.55222 9.35945 8.48761C9.45109 8.4736 9.5473 8.45829 9.63621 8.44528C9.63653 8.44515 9.63686 8.44502 9.63718 8.4449ZM55.3368 0.987273C55.6155 0.957671 56.2454 0.825476 56.6049 0.841843C56.6934 0.845896 57.009 1.01209 57.0113 1.03939C57.0153 1.1318 56.6659 1.19229 57.0501 1.20027C56.9237 1.21821 56.8014 1.23844 56.6761 1.25728C56.707 1.31551 56.7377 1.3736 56.7677 1.43176C56.9193 1.4016 57.071 1.37137 57.2226 1.341C57.2329 1.36028 57.2432 1.3796 57.2534 1.39887C56.7039 1.47453 57.0391 1.50847 56.764 1.62051C57.0316 1.62147 57.3011 1.62198 57.5677 1.62307C57.4161 1.63923 57.2375 1.66028 57.1036 1.67318C57.1001 1.77958 57.4144 1.7113 57.4714 1.72311C57.793 1.79001 56.2243 1.94882 56.1173 2.11761C56.369 2.10027 56.6329 2.08085 56.8902 2.06253C56.8196 2.09121 56.7481 2.12003 56.6775 2.14871C56.0846 2.12357 55.4308 2.17544 54.7477 2.20276C54.6874 2.2154 54.627 2.22818 54.5676 2.24049C54.5918 2.28499 54.6151 2.32945 54.6393 2.37395C54.5482 2.39207 54.4559 2.41031 54.3647 2.42843C54.6145 2.23672 54.2396 2.29021 53.7737 2.2579C54.0072 2.17057 54.309 2.1628 54.2746 2.06438C53.4583 2.25551 52.4746 2.27806 51.6821 2.47616C51.4854 2.52524 51.5039 2.65575 51.0327 2.70801C51.0467 2.69147 51.0459 2.66518 51.0536 2.6449C50.25 2.81865 49.7624 2.92351 48.9097 2.9753C48.9648 3.01557 49.0192 3.05614 49.0744 3.0964C49.2503 3.0485 49.4265 3.00018 49.6015 2.9524C49.734 3.01322 49.5585 3.0721 50.0929 2.99809C50.5308 2.93751 50.2654 2.93898 50.3813 2.8997C50.5383 2.84627 50.6883 2.88857 50.8569 2.82977C50.9874 2.78455 50.8335 2.74046 51.1855 2.70876C51.0562 2.81087 50.9244 2.91607 50.7943 3.01934C50.7064 3.01236 50.6191 3.00501 50.5312 2.99783C50.6145 2.96386 50.6963 2.9304 50.7795 2.89643C50.4812 2.97781 50.1992 3.05464 49.8907 3.13887C49.9765 3.00512 49.658 3.09448 49.4836 3.13277C49.212 3.1925 49.436 3.07786 49.2579 3.11625C49.0797 3.15486 48.8981 3.27353 48.57 3.2984C48.7372 3.22121 48.4934 3.20589 48.5325 3.1504C48.5717 3.0949 48.9144 3.03688 48.5764 3.02846C47.9461 3.15633 48.6617 3.24925 48.2365 3.33841C47.7257 3.44553 47.5612 3.15687 47.7059 3.07016C47.8198 3.00191 48.2375 2.95531 48.3524 2.88714C47.5941 2.89633 47.6127 3.0806 47.4901 3.13395C47.0448 3.328 47.3082 2.93676 46.7769 3.13798C46.7783 3.07137 46.7786 3.01159 46.7804 2.94765C46.6873 2.9725 46.6267 2.99691 46.5136 3.022C46.8682 3.10285 46.5914 3.1352 46.4498 3.1548C46.2267 3.18577 46.5799 3.20053 46.523 3.22461C46.3694 3.28925 46.1147 3.30433 46.277 3.33912C46.204 3.32258 46.1253 3.30676 46.0504 3.29068C45.7941 3.35883 45.2186 3.71486 45.7943 3.58005C45.7537 3.68859 45.5584 3.66584 45.4091 3.67062C45.2598 3.67541 45.2713 3.73942 45.1403 3.74524C44.619 3.76815 44.9407 3.6119 45.0104 3.5144C44.3387 3.66696 45.0097 3.61517 44.0354 3.7891C43.9503 3.87241 44.4133 3.88548 44.0419 3.9777C43.9557 3.86501 43.6661 3.81523 43.1196 3.84872C43.0709 3.884 43.0224 3.91952 42.9737 3.95481C42.6629 3.88247 42.7978 3.7445 42.2702 3.95922C42.5285 3.66168 42.3492 3.85395 41.8454 3.81621C41.7431 3.8087 41.9655 3.72385 41.823 3.71578C41.7584 3.71219 41.6112 3.77341 41.4533 3.76333C41.3761 3.75822 41.0118 3.70702 40.7754 3.7874C40.9706 3.88769 40.5237 4.05695 40.9335 4.10591C40.1986 4.18064 39.6948 4.3106 40.4912 4.02837C40.3003 4.01606 40.1094 4.00394 39.9185 3.99183C39.7932 4.03929 39.6667 4.08667 39.5404 4.13404C39.5067 4.03426 39.5225 4.00281 39.0152 4.09065C39.2331 4.03617 39.45 3.98142 39.6688 3.92661C39.6735 3.90489 39.7014 3.87915 39.6913 3.86008C39.4246 3.9367 38.6608 4.05854 38.4788 4.11123C38.2969 4.16393 38.6565 4.1223 38.6067 4.15607C38.1912 4.4352 38.2044 4.26947 37.89 4.35067C37.7055 4.3985 38.1566 4.36123 38.0575 4.3844C37.6902 4.46992 37.5018 4.37762 37.1717 4.42131C37.2979 4.47107 37.4233 4.52198 37.5467 4.57274C37.2002 4.61664 36.8144 4.66888 36.4956 4.73404C36.3705 4.75958 36.4726 4.79546 36.4524 4.80156C36.3524 4.83239 35.9397 4.91603 35.8957 4.92227C35.564 4.96809 35.5452 4.9016 35.2223 4.94203C35.3481 4.91896 35.4664 4.89749 35.5894 4.87502C35.6306 4.75741 35.6729 4.63965 35.7141 4.52184C35.397 4.55711 35.0798 4.59256 34.7618 4.62796C34.9985 4.63295 35.2359 4.63765 35.4725 4.64264C35.1227 4.78099 34.7729 4.91956 34.4231 5.05812C34.2272 5.02938 34.032 5.00055 33.836 4.97182C33.3261 5.0563 33.4595 5.2636 33.1901 5.10289C33.0414 5.13995 32.8927 5.17701 32.744 5.21387C32.7618 5.18324 32.7794 5.15258 32.7971 5.12196C32.6175 5.16389 32.438 5.2057 32.2584 5.24784C32.4631 5.31966 32.6647 5.39712 32.8672 5.46632C32.5121 5.53665 32.4938 5.45444 32.4376 5.441C32.2885 5.40543 32.0175 5.51805 31.898 5.4826C31.8576 5.47035 32.201 5.36757 32.0714 5.321C32.0461 5.312 31.5446 5.14426 31.2522 5.23888C31.2636 5.28015 31.2938 5.32853 31.3123 5.37259C30.9127 5.45332 30.6771 5.26202 30.7221 5.19319C30.5132 5.26566 30.1999 5.31224 30.165 5.38554C30.0555 5.4022 29.9468 5.41867 29.8373 5.43533C29.9292 5.25586 29.4757 5.34848 29.465 5.49346C29.6539 5.47114 29.8432 5.44897 30.0321 5.42664C29.9132 5.61883 30.5003 5.64462 29.2865 5.64787C29.0464 5.58925 29.6933 5.60464 29.4984 5.56281C29.1705 5.56783 28.8721 5.64205 28.5569 5.62149C28.1647 5.59561 28.6238 5.45619 27.7485 5.67737C29.7435 5.65802 27.5026 5.88251 26.5923 6.08592C26.3054 5.8745 25.5169 5.90305 24.456 6.12291C24.577 6.17612 24.9091 6.09469 25.1063 6.09066C25.3035 6.08664 25.0991 6.15602 25.3452 6.15491C25.5915 6.15377 26.1112 6.1269 26.3627 6.14175C26.1606 6.20891 25.1495 6.44072 25.8112 6.23796C25.2967 6.23928 25.0498 6.20203 24.4219 6.27506C24.2489 6.40758 24.2719 6.4722 23.6619 6.55887C24.0026 6.36097 23.2949 6.35277 23.4266 6.17849C23.8643 6.15494 23.6428 6.33714 23.9029 6.37421C23.9296 6.37782 24.3278 6.28523 24.4219 6.27506C23.9965 6.19688 23.849 6.16631 24.0775 5.97268C23.7915 6.02605 23.6097 6.03056 23.5939 6.11024C23.5294 6.08545 23.4645 6.06068 23.4009 6.03576C23.3073 6.04941 23.2234 6.06402 23.124 6.077C23.2765 6.17304 23.0017 6.1387 22.8203 6.21653C22.639 6.29443 22.9043 6.3504 22.3868 6.42251C22.563 6.42575 22.7239 6.42719 22.8943 6.42977C22.5646 6.505 22.2338 6.58056 21.904 6.6558C22.1481 6.69382 22.6704 6.72841 22.6691 6.82257C22.5106 6.80879 21.9923 6.94213 21.935 6.95255C21.7131 6.99254 21.8268 6.9177 21.8097 6.91858C21.4552 6.93831 21.1691 6.99767 21.0238 6.92774C20.7658 7.0036 20.564 7.00813 20.2849 7.04864C20.1313 7.07093 20.17 7.13159 20.0784 7.13162C19.4689 7.13152 20.0274 6.96979 18.8951 7.28711C19.041 7.31309 19.1852 7.34036 19.3311 7.36675C19.2031 7.40162 19.0758 7.43648 18.9478 7.47135C18.8595 7.47509 18.7719 7.47866 18.6836 7.4824C18.6721 7.38434 18.6609 7.28601 18.6494 7.18795C18.553 7.19571 18.4562 7.20369 18.3598 7.21145C18.5226 7.17934 18.6858 7.14719 18.8486 7.11508C18.8613 7.09581 18.8729 7.07668 18.8855 7.05742C18.6381 7.06414 18.3914 7.07051 18.1439 7.07704C18.1439 7.1117 18.144 7.1466 18.1439 7.18126C17.5879 7.20914 17.5709 7.18213 17.0614 7.34736C16.6589 7.40142 16.3508 7.58854 16.1264 7.68027C16.0404 7.67263 15.9542 7.66476 15.8672 7.65724C15.8176 7.69286 15.7675 7.72843 15.7179 7.76405C15.6065 7.73919 15.4937 7.71452 15.3824 7.68987C15.3356 7.78732 15.3088 7.8194 15.7266 7.79416C15.6002 7.92469 14.8656 7.97534 14.5641 7.97859C14.3354 7.98105 14.5722 7.85419 14.5425 7.84677C14.4434 7.82131 14.0774 7.9051 13.9987 7.9094C13.6659 7.92802 13.4359 7.96423 13.1358 7.98443C13.0774 7.98825 12.9076 7.95165 12.8936 7.95169C12.7853 7.95628 12.5175 7.96385 12.4874 7.96714C10.9335 8.13524 12.6224 8.16366 11.1793 8.33389C11.2271 8.3616 11.2713 8.38957 11.3181 8.41741C11.2096 8.43434 11.1 8.45134 10.9916 8.46827C10.8499 8.45906 11.0096 8.38513 10.7415 8.46383C10.7536 8.41997 10.7658 8.37608 10.779 8.33229C10.6629 8.37095 10.5512 8.40884 10.4323 8.44789C10.2213 8.33033 9.51846 8.39332 9.54499 8.21777C9.55401 8.15804 10.0411 8.03132 9.77103 8.00583C9.55678 8.02287 9.71007 8.07174 9.62384 8.08722C9.00082 8.19801 9.02406 8.09691 8.77156 8.15759C8.7369 8.20431 8.70026 8.25212 8.66471 8.29937C8.56651 8.3005 8.46803 8.30166 8.3689 8.30292C8.35019 8.33368 8.33052 8.36461 8.31181 8.39537C8.40302 8.38476 8.50571 8.37261 8.58943 8.36303C8.48772 8.48619 7.42555 8.6807 7.82059 8.53348C7.98148 8.47364 8.28762 8.44778 8.07818 8.34741C7.79467 8.40482 7.47272 8.4679 7.17421 8.52737C7.1611 8.50138 7.14863 8.47525 7.13551 8.44926C6.73225 8.52246 7.11613 8.58099 7.12339 8.63954C7.03082 8.65389 6.93725 8.66816 6.84468 8.68251C6.80172 8.66147 6.76055 8.63893 6.71583 8.61896C6.71781 8.66153 6.67923 8.7664 6.39768 8.76799C6.21661 8.76872 6.48213 8.62427 6.14505 8.68541C6.17938 8.74755 6.31282 8.81069 5.93799 8.88354C5.89111 8.8202 5.83065 8.76457 5.79173 8.69659C5.33101 8.82669 5.10278 8.75021 4.56188 8.9022C4.21873 8.99849 3.7631 9.2359 3.50084 9.00214C3.24403 9.03021 3.33427 9.08501 3.26058 9.1102C2.91288 9.22926 2.62994 9.14013 2.56235 9.14186C2.19231 9.15115 2.004 9.20368 1.73417 9.21087L1.61708 9.22871L1.63439 9.34231C1.63558 9.38684 1.63553 9.43361 1.63385 9.48377C1.68029 9.4583 1.72529 9.44174 1.77101 9.42019C1.7588 9.38809 1.74766 9.35759 1.73745 9.3282L1.73557 9.31586L1.74828 9.31392C2.00001 9.2265 2.17092 9.20742 2.57089 9.16706C2.42316 9.19731 2.27542 9.2278 2.1277 9.25805C2.15752 9.29449 2.18711 9.33096 2.21597 9.36732C3.56932 9.0224 3.28251 9.31385 2.13738 9.5258C2.02791 9.46581 1.91485 9.4065 1.8063 9.34617C1.78892 9.35158 1.77177 9.35682 1.75485 9.36187L1.7854 9.32163C1.96963 9.93846 1.92061 10.2675 1.9984 11.0034C2.00801 11.0933 2.09506 11.4136 2.11634 11.5534C2.1163 11.551 2.11626 11.5487 2.11623 11.5463C2.19767 11.624 2.21349 11.5015 2.27369 11.4789C2.29188 11.5538 2.31005 11.6287 2.32824 11.7036C2.3041 11.8797 2.25704 11.8254 2.31402 12.1576C2.35502 12.1062 2.39611 12.0553 2.43711 12.0038C2.48883 12.3693 2.47036 12.6157 2.53912 12.9531C2.51345 12.8983 2.48782 12.8443 2.46215 12.7895C2.51807 13.5366 2.16006 12.985 2.37473 13.5259C2.35542 13.5649 2.33575 13.6029 2.31644 13.6419C2.27891 13.412 2.24154 13.182 2.20414 12.9531C2.16927 12.9531 2.13449 12.9528 2.09974 12.9537C2.14377 13.1989 2.18828 13.4453 2.2323 13.6905C2.18468 13.5136 2.13688 13.3357 2.08926 13.1588C2.11202 13.447 2.13477 13.7353 2.15753 14.0236C2.24183 13.7026 2.31114 14.0942 2.42566 14.0031C2.39123 14.5237 2.30892 14.9403 2.50396 15.7132C2.54271 15.8664 2.61826 15.77 2.57272 16.2261C2.69669 16.1002 2.8375 16.6446 2.95959 16.5555C2.93218 16.4026 2.90635 16.2437 2.87815 16.0957C2.85566 16.2717 2.73372 16.3171 2.66108 16.0643C2.56844 15.7417 2.58988 15.2497 2.45295 15.2885C2.44154 15.1563 2.42869 15.0337 2.41677 14.9055C2.45859 14.9532 2.50048 14.9998 2.54218 15.0466C2.4382 14.6913 2.42465 14.4609 2.48809 14.2746C2.56737 14.7041 2.64631 15.1327 2.72539 15.5622C2.7226 15.4977 2.71975 15.4324 2.71677 15.3679C2.85079 15.683 2.88905 15.3338 2.99172 15.9417C2.95041 15.9435 2.90917 15.9461 2.86765 15.948C3.00719 16.1553 3.08992 16.7639 3.18884 16.5526C3.17546 16.7417 3.15621 16.7825 3.23811 16.8773C3.20914 17.3752 3.13119 17.7031 2.9636 17.5502C3.01142 17.7271 3.05928 17.904 3.10697 18.0799C3.13209 17.9705 3.157 17.8609 3.18212 17.7515C3.22255 18.065 3.26333 18.3809 3.30383 18.6934C3.19148 18.7394 3.18595 18.0954 3.10685 18.2923C3.09095 18.3317 3.15879 18.4941 3.15309 18.54C3.08969 19.0244 3.08131 18.2787 3.00259 18.4297C3.04837 18.9217 2.94354 18.8039 2.97048 19.0167L2.9866 19.1224L3.08921 19.1068C3.17917 19.0954 3.32822 19.0605 3.60741 18.9807C3.63733 19.0108 3.66924 19.0414 3.69725 19.0716C4.03023 19.0281 3.99286 18.9558 4.27685 18.9023C4.45471 18.8688 4.69777 18.9714 4.88314 18.8535C4.91612 18.832 4.56105 18.7145 5.2613 18.6259C5.80476 18.5572 5.59465 18.7033 5.8936 18.7039C6.19272 18.7046 6.84234 18.4529 7.065 18.6069C6.90797 18.6039 6.71036 18.6178 6.53703 18.6215C6.47247 18.6663 6.40968 18.7104 6.34604 18.7549C6.72992 18.6559 7.14052 18.6543 7.39159 18.5343C7.92966 18.5916 8.49541 18.3926 8.31798 18.269C8.14953 18.3134 8.34456 18.3512 8.10111 18.3434C8.07209 18.3129 8.04178 18.2828 8.01277 18.2523C8.41845 18.2009 8.69969 18.1614 8.52906 18.2899C8.59222 18.2837 8.6548 18.2776 8.71797 18.2715C8.71901 18.1953 8.71872 18.119 8.71975 18.0428C8.79362 18.0242 8.86782 18.0055 8.94169 17.9868C9.02735 17.9918 9.11323 17.9969 9.19984 18.002C9.10256 18.1356 8.9098 18.166 9.55842 18.1445C9.55472 18.1034 9.55188 18.0624 9.54818 18.0213C10.0907 17.9999 10.1184 18.0968 10.7902 18.0011C10.2938 18.2134 9.97724 18.0009 10.018 18.2848C9.88605 18.2839 9.75299 18.2828 9.62102 18.2819C9.60698 18.3258 9.5931 18.3698 9.58 18.4135C10.2718 18.2967 11.389 17.8675 11.8788 17.9836C11.932 17.9539 11.9859 17.9271 12.0399 17.8957C12.5105 17.9418 12.674 17.6713 13.1555 17.7483C13.2052 17.7565 13.1367 17.9989 13.7374 17.9083C13.7184 17.8807 13.7037 17.8317 13.6864 17.7958C13.8192 17.7962 13.9514 17.7976 14.0833 17.7985C14.103 17.7678 14.1239 17.737 14.1435 17.7061C13.9198 17.7259 13.6967 17.7454 13.4729 17.7652C13.6563 17.7305 13.8409 17.6956 14.0243 17.6608C13.7772 17.6489 13.6684 17.6634 13.8038 17.5715C14.0124 17.5386 14.2211 17.5053 14.4297 17.4724C14.4487 17.451 14.4675 17.4294 14.4865 17.4081C14.3777 17.367 14.2681 17.3272 14.1592 17.2853C14.7102 17.2556 15.1842 17.1932 15.6172 17.244C15.691 17.2525 15.4487 17.3586 15.9255 17.2275C15.9382 17.2644 15.9555 17.2934 15.9687 17.3273C16.5487 17.1397 16.7484 17.1447 17.3788 17.1365C16.9676 17.1199 17.3321 17.1174 17.4291 17.065C17.4955 17.029 17.2226 17.0703 17.2498 17.0384C17.277 17.0067 17.617 16.8471 17.3114 16.8754C16.598 17.2048 16.3579 16.9606 15.4163 17.2009C15.5595 17.1514 15.7038 17.1017 15.847 17.0522C15.775 17.0419 15.7104 17.0323 15.6326 17.0215C16.1722 16.9929 15.9087 16.9996 16.1231 16.9345C16.3378 16.8694 16.7325 16.785 16.9985 16.7387C17.0823 16.7242 17.0004 16.7873 17.1911 16.7661C17.3209 16.7516 17.6642 16.6276 17.7581 16.7056C17.8195 16.7563 17.2732 16.9939 18.0587 16.8859C18.2144 16.9226 17.8353 16.9565 17.8282 16.9644C17.769 17.0415 18.2589 17.0262 18.475 16.944C18.4925 16.937 18.309 16.9084 18.4978 16.8615C18.9459 16.7498 19.2168 16.7743 19.5225 16.8158C19.5412 16.7155 19.9083 16.5485 20.3895 16.5187C20.4102 16.4879 20.4296 16.457 20.4502 16.426C20.3782 16.4507 20.3062 16.4751 20.2342 16.4998C20.1512 16.4936 20.0641 16.4928 19.9825 16.4833C20.4584 16.3941 20.508 16.2525 20.7311 16.1727C21.4947 15.8997 21.0661 16.3146 20.9325 16.3943C20.827 16.3839 20.7244 16.3702 20.6196 16.3584C20.6355 16.3903 20.6515 16.4225 20.6664 16.4547C21.8431 16.2925 20.8753 16.6471 21.4812 16.6275C21.6125 16.4419 22.049 16.366 22.6222 16.3938C22.684 16.3846 22.7461 16.3758 22.8078 16.3663C22.8148 16.3409 22.8097 16.3043 22.8243 16.2862C23.4939 16.1661 23.6485 16.403 23.7155 16.4182C24.0133 16.4859 24.2136 16.3084 24.297 16.2957C24.6479 16.2425 24.7591 16.2938 25.09 16.2199C25.4458 16.1403 25.1928 16.1238 25.2962 16.0639C25.3791 16.0162 25.6623 15.971 25.7746 15.918C25.7321 15.9546 25.6843 15.9913 25.642 16.028C26.0208 16.0181 26.3313 16.0165 26.7565 15.9686C27.2044 15.6819 27.6624 15.9993 27.456 15.7193C27.0517 15.7535 26.8226 15.7498 26.5973 15.7021C26.8594 15.6562 27.1217 15.6105 27.3839 15.5645C27.4653 15.5872 27.5243 15.6121 27.6198 15.6335C27.8071 15.536 28.2677 15.5038 28.4441 15.4586C29.2701 15.2466 28.994 15.1619 29.7878 15.2592C29.2383 15.3545 29.2526 15.4525 28.7032 15.514C28.8309 15.5679 29.1072 15.5153 28.9387 15.624C29.4656 15.5308 29.2841 15.4792 29.4811 15.3843C29.6511 15.3025 30.0088 15.2503 29.9783 15.1784C30.0206 15.2144 30.0543 15.2503 30.0965 15.2863C30.4395 15.2389 30.7827 15.1918 31.1258 15.1444C30.9854 15.2073 30.8451 15.2703 30.7046 15.333C30.8174 15.334 30.9303 15.335 31.0431 15.336C31.8688 15.0872 33.3577 15.1322 33.0793 14.8291C33.4848 14.7628 33.5415 14.7978 33.7715 14.8308C33.7924 14.8021 33.8132 14.7777 33.8337 14.7461C34.0998 14.7367 34.2883 14.6137 34.5233 14.6068C34.7582 14.5997 34.8281 14.682 34.8411 14.5258C34.997 14.5487 35.1511 14.5644 35.3058 14.5844C35.391 14.5377 35.4762 14.4913 35.5606 14.4449C35.7037 14.4437 35.8471 14.4424 35.9902 14.4411C36.0555 14.3585 36.6128 14.314 36.85 14.232C37.0921 14.2783 37.1194 14.5247 37.6579 14.4061C37.6355 14.3471 37.6133 14.2883 37.5909 14.2294C37.7173 14.225 37.844 14.2206 37.9714 14.2161C37.9816 14.2349 37.9908 14.2539 38.0011 14.2727C37.9365 14.2753 37.8727 14.2778 37.8081 14.2802C37.868 14.3063 37.9268 14.3323 37.9858 14.3585C38.1693 14.2826 38.3531 14.2067 38.5376 14.1307C38.2746 14.1282 38.0115 14.1258 37.7485 14.1234C38.0659 14.0344 38.2972 14.0481 38.5717 13.9598C38.8279 14.0103 38.7442 14.0712 38.6573 14.176C38.7472 14.1558 38.8381 14.1356 38.928 14.1154C38.8805 14.2148 39.0417 14.2482 38.5091 14.3136C38.5493 14.3346 38.5899 14.3543 38.6293 14.3765C38.7159 14.3604 38.7755 14.3747 38.8697 14.3515C39.1266 14.2884 39.3046 14.1007 39.2791 14.047C39.2654 14.0189 39.0161 14.1104 39.0207 14.0673C39.0322 13.9624 39.6281 13.9272 38.7637 13.9418C39.0371 13.8385 39.1068 13.8786 39.4207 13.8546C39.3917 13.8241 39.3635 13.7938 39.3354 13.7632C39.4819 13.759 39.6286 13.7547 39.7751 13.7505C39.5982 13.9517 40.6715 13.8712 39.7341 14.1543C40.0184 14.1234 40.3016 14.0925 40.585 14.0621C40.5293 14.0879 40.4735 14.1135 40.4179 14.1393C40.289 14.1473 40.161 14.1554 40.0322 14.1637C40.1867 14.1757 40.3414 14.1875 40.4959 14.1996C40.8448 14.1107 40.9752 14.0295 41.127 13.9306C40.7068 13.9311 40.852 13.9891 40.5327 14.0483C40.5372 13.9982 40.5163 13.9556 40.5374 13.9007C40.7173 13.9785 41.2491 13.8312 41.374 13.809C41.7544 13.7417 41.4681 13.8816 41.7241 13.8487C41.9804 13.8157 42.2743 13.7155 42.4969 13.7849C42.4856 13.7305 42.4611 13.6759 42.4392 13.6279C42.8353 13.5553 42.7647 13.6311 42.8071 13.6339C43.4844 13.6819 43.8256 13.5163 44.5767 13.3991C44.4787 13.3952 44.38 13.393 44.2812 13.3903C44.8334 13.1958 44.4556 13.2839 43.957 13.3129C44.421 13.2613 44.6721 13.1257 44.9944 13.0515C45.3167 12.9773 45.8833 12.9517 46.0933 12.9635C45.6341 13.0916 45.1236 13.1185 44.6064 13.2073C44.6732 13.2551 44.7371 13.2946 44.8064 13.3478C45.1063 13.1871 45.3002 13.2405 45.4064 13.2419C45.7183 13.2457 45.6949 13.1462 45.8945 13.2294C45.8818 13.1931 45.8721 13.1625 45.8598 13.1286C46.493 13.0578 47.1828 13.0306 47.5747 12.8365C47.6245 12.921 47.6646 13.0035 47.7202 13.089C47.9782 12.985 48.2165 13.0227 48.4394 12.9761C48.6614 12.9296 48.5662 12.8689 48.8258 12.8049C48.8739 12.7931 48.9816 12.8246 49.0971 12.7747C49.2137 12.7245 49.6265 12.4134 49.7099 12.6244C49.936 12.5945 50.1509 12.5732 50.3727 12.5465C50.1588 12.5884 49.9446 12.6298 49.7316 12.6715C49.9226 12.6993 50.1125 12.727 50.3035 12.7548C50.3205 12.7044 50.3374 12.6531 50.3536 12.6035C50.8408 12.4783 51.2107 12.5062 51.708 12.4195C51.7911 12.405 51.5814 12.3387 51.955 12.3118C52.3286 12.2848 52.6273 12.4213 53.2492 12.2676C53.2806 12.2598 53.4492 12.1009 53.6879 12.1622C53.7422 12.1761 53.5299 12.2367 53.6517 12.248C53.7737 12.2593 54.304 12.2097 54.3542 12.2695C54.3454 12.2471 54.3092 12.2276 54.29 12.2062C54.3785 12.1828 54.4679 12.1592 54.5574 12.1359C54.5714 12.1756 54.5861 12.2152 54.6001 12.2546C55.1047 12.0888 55.3511 11.8973 56.1251 11.8435C55.9013 11.8138 55.6774 11.7838 55.4546 11.754C55.4012 11.8037 55.3477 11.8537 55.2953 11.9033C54.9395 11.9351 54.5828 11.9671 54.227 11.9989C54.1754 12.0543 54.1247 12.1093 54.0731 12.1647C53.9785 12.1714 53.8848 12.1781 53.7902 12.1848C53.809 12.1473 53.828 12.11 53.8477 12.0725C53.6632 12.1063 53.4785 12.1403 53.2949 12.174C53.6433 11.9204 54.3474 12.0474 54.2756 11.885C54.3626 11.8998 54.4498 11.9148 54.5368 11.9298C54.5622 11.8428 54.735 11.8432 55.0358 11.8151C54.9618 11.7841 54.8808 11.7546 54.8123 11.7224C55.1109 11.7396 55.6258 11.6635 55.9298 11.6442C56.0633 11.6357 55.9394 11.7132 55.9797 11.7148C56.1863 11.7237 56.5575 11.5672 56.6393 11.5644C57.1279 11.5472 57.4681 11.701 57.9764 11.4993C57.4291 11.5417 57.7263 11.5148 57.5233 11.4692C57.4597 11.4549 56.7518 11.5039 57.633 11.4046C57.7138 11.3956 58.716 11.3433 58.9071 11.4048L58.9544 11.3976L58.9474 11.3518C58.9593 11.3147 58.9756 11.3082 58.9972 11.345L59.0117 11.4398L58.9139 11.4547C58.8978 11.4642 58.8732 11.4748 58.8391 11.4865C58.8651 11.4795 58.8905 11.4725 58.9154 11.4655L59.0242 11.449L59.0081 11.3435C58.947 11.1257 58.8876 10.946 58.8269 10.7383C59.0222 10.123 58.7918 10.3582 58.6729 10.5455C58.6593 10.4509 58.6455 10.361 58.6321 10.2634C58.8096 10.4503 58.6743 9.39314 58.55 9.04521C58.5085 8.9286 58.5067 9.27076 58.4462 8.99629C58.4385 8.86268 58.4315 8.71089 58.4241 8.56962C58.3575 8.78509 58.2667 8.39255 58.1715 8.41126C58.2222 8.14543 58.3769 7.92623 58.4942 8.05244C58.4257 7.84786 58.3571 7.64218 58.2883 7.43763C58.2789 7.53828 58.2699 7.64016 58.2605 7.7408C58.2268 7.04608 57.9687 6.18221 58.1507 6.01113C58.1368 5.92036 58.1229 5.8286 58.109 5.73784C58.0711 5.71436 58.0333 5.69184 57.9954 5.66837C57.9686 5.25274 57.9421 4.838 57.9152 4.42237C57.9865 4.78596 58.0469 4.86657 58.0602 5.25629C58.0791 5.10282 58.0978 4.94656 58.1171 4.79591C57.9324 4.23173 57.8523 4.16229 57.7644 3.28683C57.7605 3.24725 57.7587 2.57692 57.7643 2.55323C57.7895 2.44473 57.8681 2.59342 57.8818 2.54478C57.9201 2.4096 57.954 1.61543 57.9772 1.62754C58.2623 1.78148 58.6228 4.38851 58.7327 5.09191C59.0551 7.1552 59.3498 9.20914 59.63 11.2583L59.7392 11.9749L59.0006 12.0874C53.8039 12.798 48.6378 13.415 43.4278 14.1515C43.3532 14.1622 43.391 14.196 43.3594 14.202C43.1629 14.2387 42.9604 14.2057 42.887 14.2132C42.73 14.2295 42.8236 14.2729 42.7094 14.2885C41.5296 14.4495 40.4119 14.5695 39.2325 14.7406C39.1557 14.7517 39.2282 14.6969 39.0942 14.7232C39.0251 14.737 38.8161 14.8345 38.6589 14.8571C38.1099 14.9358 37.6453 14.9773 37.0659 15.0577C36.749 15.1017 36.2727 15.1611 35.9184 15.2107C35.762 15.2325 35.6031 15.2858 35.4486 15.308C35.2294 15.3395 35.2656 15.2706 35.2313 15.2714C35.0808 15.2746 35.0697 15.3463 34.9288 15.3639C34.6668 15.3964 34.6464 15.3524 34.315 15.4018C34.0781 15.4371 33.54 15.5478 33.2423 15.5994C32.5355 15.6419 31.6568 15.7837 31.0065 15.8908C30.6216 15.9541 30.577 15.8947 30.4195 15.9164C29.8646 15.9937 29.4546 16.1336 28.9336 16.2076C28.2421 16.3058 27.6215 16.3355 26.9506 16.4233C26.8418 16.4376 26.8748 16.4932 26.7684 16.5093C26.3743 16.5689 25.8709 16.6487 25.5181 16.6885C25.1249 16.7329 24.9687 16.6671 24.5875 16.7371C24.4758 16.7576 24.4531 16.8372 24.266 16.8726C23.9671 16.929 23.628 16.908 23.4169 16.9294C23.1277 16.959 23.3885 17.0011 22.9989 17.044C22.9829 17.0458 22.9173 16.9991 22.8343 17.0131C22.5924 17.0537 22.6224 17.0935 22.2664 17.138C22.2322 17.1421 21.7538 17.1546 21.707 17.1608C21.4312 17.1977 20.8736 17.2555 20.7119 17.2889C20.134 17.4082 20.6045 17.4275 20.0839 17.317C19.8715 17.3906 19.6609 17.4645 19.4351 17.5387C19.5843 17.4779 18.9492 17.5067 18.9057 17.5164C18.5452 17.5961 18.7718 17.6358 18.308 17.6876C18.8965 17.4436 17.7088 17.7486 17.4402 17.7895C16.147 17.9869 14.9634 18.1082 13.6611 18.2875C13.2251 18.3477 12.6454 18.4616 12.1839 18.5239C12.0764 18.5386 12.1524 18.4895 12.0577 18.5017C11.9632 18.514 12.0738 18.5423 11.9657 18.5548C11.2932 18.6318 10.7568 18.6234 10.1563 18.808C10.1245 18.7975 10.1238 18.7859 10.0721 18.7768C9.58181 18.9356 8.59721 18.9471 8.23108 18.9803C7.65845 19.0324 7.5214 19.1132 7.10629 19.1575C6.55732 19.2159 5.72021 19.2095 6.11366 19.3555C5.73945 19.413 5.37863 19.4641 4.99732 19.4978C4.95488 19.5015 4.9771 19.4476 4.96008 19.4489C4.85223 19.4564 4.82353 19.5058 4.75161 19.5177C4.5566 19.5501 4.86875 19.4528 4.59167 19.506C4.44554 19.5342 4.36727 19.5846 3.95855 19.6414C3.7003 19.6772 3.43969 19.7131 3.17717 19.7491L2.44337 19.861L2.32813 19.1046C2.02042 16.8625 1.70616 14.4797 1.40236 12.2173C1.37901 12.0437 1.34642 12.1646 1.3197 11.9466C1.23739 11.275 1.14622 10.1264 1.05669 9.42141L0.952883 8.74016L1.65506 8.63316C1.74509 8.62173 1.82788 8.61032 1.90151 8.59896C2.55172 8.49865 2.39502 8.44825 2.79882 8.36287C2.8768 8.34634 2.81772 8.39539 2.88907 8.38624C3.36878 8.32432 3.94868 8.30879 4.3382 8.26506C4.59581 8.23623 4.56659 8.1758 4.74407 8.1469C5.00857 8.104 5.29046 8.13049 5.43235 8.11315C6.09929 8.031 6.54993 7.91687 7.17521 7.85799C7.14898 7.8474 7.13116 7.83672 7.10869 7.82582C7.84509 7.72729 8.58056 7.62888 9.31696 7.53035C9.28052 7.52238 9.24522 7.51415 9.20875 7.50598C10.0734 7.3947 9.99367 7.546 9.87787 7.26541C9.93927 7.24656 10.0042 7.22556 10.0629 7.20791C10.0591 7.36115 10.5966 7.39931 11.2666 7.34642C11.3158 7.34262 11.6229 7.15166 11.611 7.32921C11.6905 7.27528 11.7374 7.2392 11.8045 7.19219C11.9523 7.22522 12.1019 7.25736 12.2496 7.29017C12.3245 7.27199 12.4005 7.25392 12.4753 7.23574C12.482 7.20036 12.4685 7.16641 12.4883 7.12985C12.8402 7.07645 13.569 7.01926 13.8471 6.97682C14.5377 6.87118 15.2297 6.68322 15.7816 6.70835C16.0424 6.66237 15.7729 6.63162 16.164 6.58662C16.2127 6.61421 16.2585 6.64076 16.3092 6.66912C16.6074 6.47525 16.6865 6.55752 17.1275 6.5291C17.4258 6.50998 17.6142 6.44678 17.8965 6.41543C17.968 6.40752 17.964 6.45299 18.0125 6.44488C18.1752 6.41797 18.6329 6.29347 18.748 6.27604C19.7904 6.11701 20.6888 6.00094 21.6859 5.8809C21.793 5.8679 21.6485 5.84337 21.7594 5.83006C21.9378 5.80858 21.8422 5.88979 21.9458 5.87895C22.2347 5.84833 22.2272 5.77752 22.628 5.71889C23.9476 5.52587 25.474 5.37082 26.855 5.18653C26.8981 5.18062 26.8899 5.13966 26.9367 5.13283C27.2421 5.08896 27.5591 5.10244 27.8366 5.06383C28.2969 4.99996 28.635 4.89454 29.0899 4.83246C29.9789 4.71094 30.7773 4.63189 31.6918 4.50833C32.4404 4.4073 33.0896 4.31279 33.9101 4.20064C37.4945 3.71067 41.134 3.07873 44.7521 2.65433C44.8442 2.64359 44.8118 2.68521 44.8396 2.6798C45.1038 2.62754 45.1208 2.57504 45.2296 2.6652C45.5661 2.59842 45.6626 2.50628 46.0731 2.45571C46.2918 2.42871 46.1452 2.57113 46.5062 2.45862C46.8321 2.35696 46.455 2.34155 47.4562 2.27297C47.4827 2.27122 47.622 2.32672 47.8257 2.27942C48.0304 2.23217 47.7833 2.21261 48.28 2.1285C49.4462 1.93121 50.9374 1.79149 52.2964 1.58557C52.3815 1.57265 53.198 1.42098 53.3578 1.38072C53.667 1.30266 53.5939 1.25725 53.9999 1.18808C54.3136 1.13468 54.582 1.1607 54.9507 1.09767C54.9937 1.09027 55.0573 1.01699 55.3368 0.987273ZM8.67739 17.9826C8.74578 17.9099 8.85321 17.662 9.32772 17.668C9.37268 17.6685 9.15632 17.8585 9.41657 17.8484C9.16753 17.8994 8.92353 17.9383 8.67743 17.9828C8.67742 17.9828 8.67741 17.9827 8.67739 17.9826ZM57.5521 2.17087C57.2026 2.20703 56.8519 2.24346 56.5024 2.27961C56.7387 2.21906 56.9754 2.15851 57.2107 2.09787C57.3248 2.12214 57.438 2.14661 57.5521 2.17087ZM14.227 7.9926C14.2273 7.99256 14.2276 7.99251 14.228 7.99246C13.8663 8.07207 13.5044 8.15177 13.1427 8.23138C13.1781 8.20438 13.2137 8.17727 13.2492 8.15027C13.5333 8.07649 13.8175 8.00273 14.1007 7.92907C14.1427 7.95026 14.1849 7.97142 14.227 7.9926ZM17.0849 7.36681C17.322 7.36067 17.2708 7.41207 17.4051 7.43693C17.4051 7.43685 17.4051 7.43677 17.4051 7.43669C17.4405 7.44309 17.5997 7.43114 17.661 7.42444C17.6347 7.40024 17.602 7.3773 17.5739 7.35357C18.1097 7.21293 19.2074 7.30168 17.8408 7.58511C17.8567 7.54784 17.8717 7.51087 17.8877 7.4736C17.2035 7.57711 16.429 7.60704 17.0849 7.36681ZM14.1759 17.1287C14.7457 16.9357 14.93 16.8863 15.6505 16.8664C15.5546 16.9121 15.4587 16.9578 15.3628 17.0035C15.2411 16.9869 15.1203 16.9705 14.9986 16.9539C14.9983 16.954 14.998 16.954 14.9976 16.9541C14.9789 16.9915 14.9601 17.029 14.9423 17.0664C14.6872 17.0871 14.431 17.1079 14.1759 17.1287ZM39.4963 4.38106C39.6903 4.584 39.6253 4.4595 39.1664 4.57409C39.0075 4.61381 39.1701 4.6317 39.0706 4.652C38.5337 4.76204 38.4697 4.61705 38.5799 4.52195C38.8858 4.47463 39.195 4.42734 39.4953 4.3812C39.4957 4.38115 39.496 4.38111 39.4963 4.38106ZM53.549 2.40915C53.5494 2.40911 53.5497 2.40906 53.55 2.40902C53.5716 2.46204 53.3552 2.50673 53.6087 2.52505C53.4212 2.55051 53.2338 2.57574 53.0454 2.60133C53.0999 2.58864 53.1557 2.57604 53.2102 2.56335C53.1589 2.55116 53.1073 2.53875 53.056 2.52656C52.9981 2.59884 52.9312 2.57059 52.7314 2.57643C52.795 2.63645 52.8584 2.69655 52.922 2.75657C52.6905 2.7678 52.4582 2.77908 52.2266 2.79031C52.2215 2.7737 52.2163 2.75706 52.2112 2.74044C52.1279 2.77398 52.0455 2.80764 51.9622 2.84118C51.936 2.82409 51.9107 2.80707 51.8845 2.78998C51.7825 2.8196 51.6804 2.84924 51.5785 2.87906C51.5401 2.83423 51.7665 2.78158 51.3617 2.84974C51.4795 2.78222 51.597 2.71489 51.7158 2.64725C52.3268 2.56776 52.938 2.48844 53.549 2.40915ZM35.2675 5.0307C35.9386 4.92921 35.7541 4.99077 35.6137 5.12363C35.4987 5.0926 35.3826 5.06174 35.2675 5.0307ZM2.09829 10.4633C2.20108 10.648 2.30322 10.8335 2.40399 11.0232C2.50089 11.4151 2.41668 11.8318 2.32137 11.5401C2.20686 11.1889 2.22834 10.8028 2.09829 10.4633ZM3.5875 18.7051C3.09619 18.7364 3.54153 18.5833 3.64403 18.5156C3.79021 18.5819 3.97685 18.5487 4.27962 18.5173C3.99734 18.5615 3.66876 18.7 3.58753 18.7053C3.58752 18.7052 3.58751 18.7051 3.5875 18.7051ZM8.45374 8.68826C8.64837 8.65929 8.83939 8.61149 9.01725 8.61344C8.97463 8.69339 8.61685 8.67495 8.881 8.74865C8.75656 8.76757 8.63195 8.78645 8.50847 8.80545C8.58101 8.74999 8.47064 8.73109 8.45427 8.68843C8.45409 8.68838 8.45391 8.68832 8.45374 8.68826ZM28.7647 6.00849C28.3703 5.97475 28.3028 6.02153 27.9256 6.13398C27.8617 6.07129 28.3051 5.8909 28.5895 5.82562C28.6475 5.88661 28.7057 5.94762 28.7647 6.00849ZM56.8902 11.2889C56.8106 11.3909 56.1344 11.4954 55.794 11.5151C55.8323 11.4963 55.8707 11.4774 55.9089 11.4584C56.2356 11.402 56.5636 11.3454 56.8902 11.2889ZM4.42388 18.5037C4.37307 18.508 4.32497 18.5126 4.27962 18.5173C4.32969 18.5094 4.37835 18.5043 4.42388 18.5037ZM24.8483 16.1022C24.6995 16.2084 25.1799 16.1715 24.5968 16.2177C24.5968 16.2178 24.5969 16.2179 24.5969 16.218C24.2113 16.2486 24.126 16.2544 23.7706 16.2963C23.8834 16.1706 24.5973 16.0334 23.603 16.1468C23.59 16.1485 23.6248 16.2094 23.4652 16.2222C23.4159 16.2262 23.2523 16.1947 23.0122 16.2119C22.9346 16.2175 22.3545 16.2804 23.1421 16.1715C23.1083 16.0992 23.1402 16.0171 23.1283 15.9441C23.4328 15.8807 23.6894 15.9961 24.0141 15.948C24.4963 15.8761 24.7216 15.693 24.8413 15.8764C24.4418 15.9801 23.7446 16.0768 23.6375 15.9713C23.2445 16.0237 23.1449 16.1357 23.4682 16.1401C24.8169 15.8936 23.8604 16.2325 25.038 15.9927C25.0483 15.9635 25.0932 15.9275 25.0822 15.9029C25.458 15.9492 24.9014 16.0642 24.8483 16.1022ZM21.9822 16.2823C22.2088 16.1925 22.4345 16.1024 22.6601 16.0126C22.673 16.1066 22.5558 16.2085 22.1935 16.312C22.1234 16.3019 22.0523 16.2921 21.9822 16.2823ZM41.7005 13.5571C41.7273 13.5014 41.8109 13.4423 41.8699 13.3847C41.947 13.418 43.6407 13.2282 42.7877 13.388C42.6638 13.4113 41.8907 13.4251 41.7005 13.5571ZM31.4108 5.5678C31.2073 5.56078 31.0046 5.55359 30.802 5.54644C31.1036 5.48301 31.4054 5.41897 31.707 5.35513C31.6079 5.42605 31.5098 5.49689 31.4108 5.5678ZM2.45182 13.7119C2.44224 13.6277 2.55065 13.897 2.49428 13.5676C2.57296 13.8081 2.6426 14.0339 2.71785 14.2691C2.69451 14.3459 2.67142 14.4234 2.64808 14.5001C2.67712 14.5535 2.70617 14.6079 2.7352 14.6613C2.68218 14.6341 2.6308 14.6106 2.5767 14.5817C2.62487 14.1614 2.49447 14.0844 2.45182 13.7119ZM9.41281 8.18572C9.50024 8.2809 8.92081 8.42397 9.50155 8.36158C9.40129 8.44571 9.22984 8.50611 8.89214 8.55862C8.83419 8.53963 8.77636 8.52082 8.7184 8.50183C8.72058 8.57358 8.63708 8.61179 8.45374 8.68826C8.45356 8.6882 8.45338 8.68814 8.4532 8.68809C7.93924 8.76368 7.96677 8.73589 7.82708 8.63657C8.38092 8.62759 8.38266 8.51914 8.74538 8.40512C8.99448 8.32677 9.33019 8.30084 9.41281 8.18572ZM39.9021 13.8046C40.2752 13.6631 39.9181 13.6276 40.6147 13.6283C40.5737 13.6569 40.5325 13.6853 40.4915 13.7139C40.295 13.7444 40.0986 13.7746 39.9021 13.8046ZM11.3637 8.28586C11.2973 8.12908 10.9172 8.05201 10.8915 8.32538C11.2525 8.3309 11.0593 8.2045 11.3637 8.28586ZM3.45649 18.9827C3.27998 19.0049 3.15618 19.0078 3.07426 18.9976C3.10328 18.8113 3.19739 18.8473 3.28357 18.9738L3.04634 18.7937C3.07531 18.774 3.10903 18.7547 3.14585 18.7367C3.19357 18.7642 3.24124 18.7918 3.288 18.8193C3.40502 18.7878 3.52205 18.7563 3.6391 18.725C3.57825 18.8108 3.51735 18.8969 3.45649 18.9827ZM23.3244 6.46587C22.8208 6.65328 23.8941 6.45374 23.5411 6.57603C23.2593 6.67374 22.8613 6.60887 22.9957 6.51568C23.0958 6.49989 23.2073 6.48316 23.3234 6.46601C23.3237 6.46596 23.3241 6.46591 23.3244 6.46587ZM20.3225 6.91079C20.4248 7.02335 20.2969 7.00397 20.7043 6.92541C20.8207 6.903 21.7586 6.82212 21.3534 6.77272C21.0206 6.81829 20.6687 6.86465 20.3225 6.91079ZM11.29 17.7249C11.3036 17.7781 10.6026 17.9952 10.5065 17.9781C10.5065 17.9781 10.5065 17.9782 10.5065 17.9783C10.2469 17.9313 11.002 17.8162 10.6586 17.75C11.3987 17.7483 11.5837 17.482 11.5758 17.8006C11.1495 17.8729 11.3434 17.7809 11.29 17.7249ZM57.8676 4.43449C57.8676 4.43415 57.8675 4.43382 57.8675 4.43349C57.8715 4.482 57.8465 4.88976 57.8124 4.84527C57.7706 4.36476 57.8345 4.44266 57.6878 4.01008C57.7121 3.98193 57.7361 3.95739 57.7603 3.92734C57.8009 4.1014 57.8475 4.19457 57.8676 4.43449ZM43.5405 13.4163C43.3671 13.4545 43.039 13.4396 42.8397 13.4705C43.4447 13.1583 44.2333 13.2642 43.5405 13.4163ZM46.9745 3.31728C46.9741 3.31743 46.9736 3.31758 46.9731 3.31773C46.9732 3.31758 46.9734 3.31744 46.9735 3.3173C46.9739 3.31729 46.9742 3.31729 46.9745 3.31728ZM29.9326 15.142C29.9572 15.1535 29.9718 15.1645 29.9779 15.175C29.978 15.176 29.9782 15.1771 29.9783 15.1781C29.9642 15.1661 29.9493 15.154 29.9326 15.142ZM12.7785 17.5045C13.0875 17.539 12.1086 17.7952 11.7828 17.8107C11.8006 17.7732 11.7998 17.7415 11.8469 17.6947C12.1189 17.7483 12.727 17.4985 12.7785 17.5045ZM5.05986 9.01425C4.27278 9.11994 5.25594 8.68182 5.33069 8.91372C5.32973 8.91854 5.08013 9.01107 5.05986 9.01425ZM6.57799 18.3853C6.38989 18.5029 6.796 18.4717 6.14972 18.5443C6.10903 18.5261 6.06836 18.5078 6.02767 18.4896C6.21107 18.4549 6.39459 18.42 6.57799 18.3853ZM1.75245 11.2245C1.93828 12.2078 2.1566 13.1428 2.317 12.4637C2.29875 12.3899 2.28062 12.3149 2.26237 12.2411C2.13948 12.2464 2.16785 11.9608 2.11637 11.5554C2.06029 11.5043 2.01841 11.2814 1.9717 11.2448C1.88141 11.1742 1.8611 11.4398 1.75245 11.2245ZM41.6866 3.80173C41.6735 3.82462 41.6608 3.84758 41.6476 3.87027C41.4942 3.91509 41.3404 3.95986 41.187 4.00468C41.2068 3.96147 41.2267 3.91825 41.2466 3.87504C41.3932 3.85058 41.539 3.8262 41.6856 3.80174C41.6859 3.80174 41.6863 3.80173 41.6866 3.80173ZM21.0523 16.6704C21.111 16.4301 20.8024 16.5152 20.1806 16.7177C20.4708 16.702 20.7621 16.6861 21.0523 16.6704ZM15.7773 7.24241C15.8068 7.30435 15.8359 7.36614 15.8664 7.42796C16.1957 7.31413 16.1226 7.24857 15.9487 7.18506C15.8912 7.20421 15.8348 7.22326 15.7773 7.24241ZM20.65 6.54711C20.5077 6.55282 20.5865 6.5953 20.5717 6.59627C20.2125 6.61745 20.1591 6.60032 19.7285 6.69941C19.6769 6.72046 19.6264 6.7421 19.5749 6.76356C19.795 6.87167 19.9313 6.77766 20.3688 6.79899C20.2855 6.76297 20.2026 6.72684 20.1193 6.69062C20.3578 6.66798 20.5954 6.64534 20.8339 6.6227C20.8601 6.60449 20.8863 6.58641 20.9125 6.5682C20.8256 6.5613 20.7357 6.55249 20.65 6.54711ZM43.5057 3.61264C43.7371 3.58638 43.9697 3.56019 44.2011 3.53393C44.2049 3.49935 44.2084 3.46459 44.2123 3.43001C43.9771 3.49084 43.7409 3.55181 43.5057 3.61264ZM25.7746 15.918C25.7913 15.9036 25.8075 15.8892 25.8216 15.8749C25.8221 15.8899 25.8037 15.9042 25.7746 15.918ZM57.9676 3.8007C57.9552 3.5359 57.8882 3.16103 57.8538 2.87342C57.7731 2.90746 57.8961 3.6336 57.8803 3.89665C57.901 3.93575 57.9729 3.91263 57.9676 3.8007ZM2.97316 18.4424C2.92234 18.3825 2.87173 18.3227 2.82104 18.2637C2.80385 18.1046 2.78687 17.9451 2.76955 17.785C2.73466 17.785 2.69949 17.7852 2.6646 17.7852C2.80525 18.4813 2.68433 18.3329 2.63454 18.694C2.74729 18.6097 2.8602 18.5267 2.97316 18.4424ZM50.8161 2.39035C50.312 2.48299 50.1379 2.55092 50.438 2.61449C50.6138 2.5664 50.7907 2.51814 50.9665 2.47005C50.9161 2.44353 50.8656 2.417 50.8161 2.39035ZM35.0248 14.7302C35.4441 14.6337 35.4701 14.7706 35.8745 14.6368C35.6488 14.6418 35.4231 14.6465 35.1983 14.6513C35.141 14.6775 35.0822 14.704 35.0248 14.7302ZM14.2546 17.96C14.4403 17.9834 14.7439 17.7096 15.2705 17.8089C15.3836 17.7423 15.4522 17.684 15.5486 17.6207C15.616 17.666 15.6916 17.7108 15.7561 17.7561C15.7564 17.7561 15.7567 17.756 15.7571 17.756C16.2113 17.6754 15.906 17.6488 15.9085 17.5906C15.9101 17.5664 16.2545 17.5593 16.1416 17.5226C15.9466 17.4597 15.2703 17.6038 15.2537 17.4968C15.4986 17.499 15.9634 17.4055 15.8149 17.3529C15.6522 17.2952 15.2285 17.4873 14.9382 17.4607C15.3648 17.5769 14.5249 17.638 14.4122 17.5193C13.9374 17.6873 14.3921 17.667 14.8923 17.5937C14.6004 17.7365 15.0429 17.6204 15.1285 17.6941C14.8202 17.7879 13.7326 17.8938 14.2546 17.96ZM3.97075 8.7233C3.63395 8.77605 3.09851 8.79062 2.87898 8.90742C2.75112 8.97546 3.28517 8.94147 2.93119 9.06931C3.25915 9.01666 3.33006 8.97595 3.26445 8.91538C3.33831 8.89691 3.41314 8.87852 3.48702 8.86026C3.52352 8.86883 3.56091 8.8771 3.59741 8.88568C3.63295 8.85219 3.66874 8.8189 3.70334 8.78555C3.78374 8.78017 3.86508 8.77468 3.94552 8.76951C3.95294 8.7541 3.96723 8.73962 3.97075 8.7233ZM47.2144 13.0568C47.1207 13.0704 47.028 13.0839 46.9344 13.0978C46.947 13.113 46.9616 13.1287 46.9758 13.1441C46.9862 13.1565 46.9965 13.1688 47.0069 13.1811C46.9459 13.1403 46.4883 13.1213 46.3072 13.1986C46.2161 13.2374 46.444 13.2997 46.0451 13.3706C46.3351 13.3261 46.6026 13.2767 46.8838 13.2303C46.8622 13.261 46.8416 13.2919 46.8201 13.3227C46.8202 13.3227 46.8204 13.3227 46.8206 13.3227C46.9152 13.316 47.0109 13.3095 47.1055 13.3028C47.142 13.2207 47.1778 13.1389 47.2144 13.0568ZM15.4849 7.15197C15.1725 7.24928 15.0692 7.29174 15.232 7.3576C15.2324 7.3576 15.2327 7.35759 15.2331 7.35759C15.3469 7.30294 15.4608 7.2483 15.5746 7.19365C15.545 7.17974 15.5155 7.16576 15.4849 7.15197ZM28.5683 15.8264C29.2031 15.4046 27.6996 15.8158 28.0065 15.8878C28.0203 15.8912 28.4995 15.7989 28.5683 15.8264ZM3.59527 19.0667C3.42857 19.092 3.26153 19.1171 3.09409 19.1424L2.95651 19.1633L2.9349 19.0215C2.93193 19.0019 2.92896 18.9822 2.92598 18.9626C2.91036 18.9846 2.89478 19.0069 2.87922 19.0292L2.90942 19.2274L3.10171 19.1981C3.1286 19.2168 3.15552 19.2356 3.18213 19.2545C3.31976 19.192 3.45765 19.1292 3.59527 19.0667ZM48.5868 2.54357C48.3781 2.48024 47.8694 2.51658 47.6364 2.64845C47.7674 2.64222 47.8985 2.63599 48.0295 2.62975C47.7863 2.67453 47.5461 2.72007 47.301 2.76448C47.3051 2.89199 47.5793 2.78015 48.0117 2.75626C48.0786 2.75278 48.5233 2.85086 48.6533 2.71324C48.6794 2.68504 48.2269 2.73026 48.5302 2.61712C48.3926 2.63032 48.2747 2.64772 48.1449 2.66236C48.1314 2.63371 48.118 2.605 48.1036 2.57648C48.265 2.56542 48.4254 2.55463 48.5868 2.54357ZM2.00613 9.0023C1.88096 9.01753 1.78585 9.03288 1.71203 9.04916L1.43116 9.09195L1.47268 9.36445C1.51686 9.56474 1.56793 9.60826 1.64246 9.66994C1.62272 9.56308 1.60302 9.45619 1.58332 9.3493L1.55836 9.18552L1.72718 9.1598C1.83466 9.13999 1.94214 9.12018 2.04959 9.10033C2.03465 9.06779 2.02109 9.03505 2.00613 9.0023ZM44.4371 3.08248C44.1812 3.10273 44.2998 3.16009 44.1995 3.18782C43.8202 3.29239 43.5497 3.27683 43.1725 3.36147C43.1959 3.34406 43.2174 3.32784 43.2399 3.31097C43.2396 3.31101 43.2392 3.31106 43.2389 3.3111C41.4235 3.49764 42.3951 3.53154 43.4727 3.35683C43.5017 3.38022 43.5297 3.40379 43.5587 3.42698C44.0361 3.31377 44.4762 3.20748 44.4371 3.08248ZM22.5295 16.6648C22.5524 16.6788 22.3917 16.8096 22.714 16.7145C22.9532 16.5228 22.5364 16.6588 22.4211 16.6135C22.5082 16.5863 22.5973 16.5592 22.6834 16.5322C22.1447 16.561 22.072 16.6088 22.2818 16.6962C22.2967 16.702 22.5065 16.6508 22.5295 16.6648ZM26.0407 16.2623C26.0823 16.0224 25.4243 16.2179 25.4584 16.2859C25.5516 16.276 25.6184 16.2272 25.7192 16.231C25.8209 16.2346 25.8537 16.2848 26.0407 16.2623ZM6.77358 18.8433C6.79342 18.8416 7.0045 18.9111 6.97449 18.8382C6.70522 18.6927 6.22783 18.8755 6.32264 18.926C6.48533 18.9006 6.59042 18.8588 6.77362 18.8435C6.7736 18.8435 6.77359 18.8434 6.77358 18.8433ZM51.6388 2.07047C51.6286 2.06534 51.1296 2.0941 51.0709 2.13888C51.0239 2.18667 51.0038 2.23374 50.9702 2.28117C51.2368 2.20496 51.7913 2.15927 51.6378 2.07061C51.6381 2.07057 51.6385 2.07052 51.6388 2.07047ZM49.4134 23.0056C49.7216 23.0544 48.7255 23.1311 49.3999 23.1747C49.2643 23.2025 49.1279 23.2306 48.9923 23.2584C48.9508 23.2137 48.9086 23.1693 48.8671 23.1246C49.0488 23.0849 49.2306 23.0452 49.4133 23.0053C49.4133 23.0054 49.4133 23.0055 49.4134 23.0056ZM49.5795 22.3523C49.4304 22.5163 48.9006 22.6271 49.4963 22.6781C49.5356 22.6234 49.576 22.5686 49.6153 22.5139C49.8211 22.524 50.0282 22.5338 50.2339 22.5437C50.3036 22.5153 50.3731 22.487 50.4428 22.4589C50.5462 22.5304 50.6488 22.6022 50.7522 22.6739C50.6689 22.6728 50.5845 22.6716 50.5012 22.6704C50.188 22.7829 49.9036 22.8408 49.4674 22.9135C49.5086 22.9281 49.5499 22.9426 49.591 22.9572C49.3642 22.9538 49.1374 22.9503 48.9115 22.9468C49.0991 22.8872 49.3089 22.8209 49.4828 22.7655C49.1797 22.6728 48.687 22.815 48.4291 22.8783C48.0779 22.9646 48.1499 22.8909 47.8891 22.9533C47.8474 22.9632 47.8494 23.013 47.766 23.0253C47.3455 23.0868 46.5241 23.1728 46.9867 22.9926C47.6817 22.9125 48.2602 22.7395 48.9447 22.68C48.7467 22.5721 49.0987 22.478 49.5795 22.3523ZM36.9059 24.5176C37.1071 24.4245 37.5384 24.3919 37.8343 24.3969C37.8347 24.3969 37.835 24.3968 37.8353 24.3968C37.9004 24.3979 38.0566 24.4637 37.8479 24.4887C37.5077 24.5292 37.3252 24.417 37.1595 24.5328C37.0775 24.5267 36.9917 24.523 36.9059 24.5176ZM36.1694 24.6266C35.9567 24.6221 36.0373 24.5077 36.3017 24.4995C36.3017 24.4994 36.3017 24.4993 36.3017 24.4992C36.412 24.4958 36.2095 24.6053 36.5884 24.4704C36.6768 24.5228 36.7631 24.5697 36.8503 24.6202C36.7549 24.6343 36.668 24.6479 36.5679 24.6625C36.6211 24.5491 36.3821 24.6309 36.1694 24.6266ZM46.6427 23.0981C46.6228 23.1963 46.7598 23.1769 47.0022 23.2099C46.7814 23.237 46.5606 23.2639 46.3408 23.2909C46.4418 23.2265 46.5417 23.1625 46.6427 23.0981ZM51.8215 22.4038C51.8218 22.4037 51.8222 22.4037 51.8225 22.4036C51.8927 22.379 51.9631 22.3543 52.0323 22.3299C52.0801 22.3575 52.1273 22.3849 52.175 22.4124C52.4258 22.3461 52.6779 22.2796 52.9287 22.2131C52.9117 22.3195 52.4515 22.3656 52.209 22.4715C51.8298 22.4921 51.6409 22.4575 51.6047 22.3743C51.6767 22.3841 51.7486 22.3941 51.8215 22.4038ZM9.94082 37.3262C10.0223 37.2862 10.1026 37.2464 10.1841 37.2064C10.0689 37.209 9.955 37.2146 9.83857 37.2153C9.55631 37.3793 9.51329 37.2743 9.12243 37.3355C7.92436 37.5234 8.26924 37.6708 7.14601 37.5395C8.01888 37.4335 7.66612 37.3479 8.1774 37.1746C8.29674 37.2369 7.80019 37.482 8.15774 37.4698C8.75415 37.305 9.32802 37.149 9.99496 37.004C9.97344 36.9934 9.95202 36.9827 9.93051 36.9721C9.82476 36.9951 9.7199 37.0181 9.61414 37.0411C9.72461 36.9896 9.83251 36.9388 9.94478 36.8867C9.80773 36.988 10.1791 36.891 10.1413 36.991C10.1245 37.0355 9.96548 37.1158 9.87244 37.1689C10.1295 37.1556 10.3928 37.1396 10.6525 37.1254C10.524 37.1766 10.3955 37.2279 10.2678 37.279C10.1592 37.2949 10.0515 37.3104 9.94287 37.3263C9.94219 37.3263 9.9415 37.3262 9.94082 37.3262ZM60.5214 27.3287C60.662 27.6381 60.7582 28.2221 60.6932 28.5454C60.6359 28.1395 60.5786 27.7345 60.5214 27.3287ZM51.5704 22.3063C51.6092 22.3177 51.6468 22.3291 51.6856 22.3405C51.5285 22.3929 51.3704 22.4452 51.2132 22.4977C51.1758 22.4546 51.1377 22.4115 51.0994 22.3687C51.256 22.3479 51.4138 22.3272 51.5704 22.3063ZM41.2601 23.7718C41.3776 23.7528 41.3883 23.7529 41.5361 23.7396C41.536 23.7396 41.5358 23.7395 41.5356 23.7395C41.5942 23.7341 42.0853 23.695 42.036 23.7389C41.7941 23.7726 41.536 23.8074 41.2884 23.8413C41.2776 23.8183 41.2727 23.7947 41.2601 23.7718ZM44.111 23.4032C44.1113 23.4032 44.1117 23.4032 44.112 23.4033C44.2008 23.3967 44.2858 23.3966 44.3769 23.3862C44.0576 23.4884 43.9918 23.3925 43.6985 23.4623C43.4053 23.5324 43.2294 23.6143 42.9579 23.5078C43.0488 23.4739 43.1456 23.4298 43.2389 23.392C43.6685 23.3906 43.7749 23.322 44.1057 23.2201C44.1074 23.2812 44.1093 23.342 44.111 23.4032ZM5.94496 36.9092C5.8642 36.8381 5.9203 36.7388 5.91984 36.7293C5.91995 36.7295 5.92005 36.7296 5.92015 36.7298C5.75778 36.0243 5.97147 36.8175 5.89003 36.1418C5.92119 36.2397 5.9531 36.3359 5.98434 36.4328C5.97177 36.5912 5.95538 36.7549 5.94496 36.9092ZM19.0184 26.7781C19.0278 26.7975 19.0384 26.8167 19.0478 26.8362C18.642 26.8869 18.5497 26.981 18.2031 26.9543C18.4749 26.8953 18.7466 26.8366 19.0184 26.7778C19.0184 26.7779 19.0184 26.778 19.0184 26.7781ZM39.1979 23.9038C39.6418 23.8035 39.9717 23.7409 40.4115 23.7434C40.4119 23.7434 40.4122 23.7435 40.4126 23.7435C40.438 23.7439 40.3235 23.8028 40.3574 23.8091C40.4455 23.7905 40.5361 23.7682 40.625 23.7483C40.6419 23.7806 40.6581 23.813 40.6749 23.8452C40.4205 23.8702 40.1658 23.8953 39.9104 23.9204C39.9506 23.9352 39.9917 23.9496 40.032 23.9644C39.8177 24.0042 39.6043 24.0438 39.39 24.0836C39.4574 24.0176 39.5246 23.9515 39.591 23.8854C39.46 23.8915 39.3289 23.898 39.1979 23.9038ZM12.2436 27.4794C12.3179 27.4918 12.191 27.547 12.3043 27.551C12.4175 27.5546 12.6159 27.4854 12.5766 27.5544C12.4288 27.5832 12.2736 27.6143 12.123 27.6439C12.627 27.6898 13.1005 27.521 13.127 27.6592C12.6532 27.6873 12.27 27.7569 11.8214 27.8576C11.825 27.7445 12.2659 27.5868 11.9658 27.5221C12.0575 27.5081 12.1537 27.4928 12.2426 27.4798C12.2429 27.4797 12.2432 27.4796 12.2436 27.4794ZM57.9432 20.0218C58.2219 19.9922 58.8518 19.86 59.2113 19.8764C59.2998 19.8804 59.6154 20.0466 59.6177 20.0739C59.6217 20.1663 59.2723 20.2268 59.6565 20.2348C59.5301 20.2527 59.4078 20.273 59.2825 20.2918C59.3133 20.35 59.3441 20.4081 59.3741 20.4663C59.5257 20.4361 59.6774 20.4059 59.829 20.3755C59.8393 20.3948 59.8495 20.4141 59.8598 20.4334C59.3103 20.5091 59.6455 20.543 59.3704 20.655C59.638 20.656 59.9075 20.6565 60.1741 20.6576C60.0225 20.6738 59.8439 20.6948 59.71 20.7077C59.7065 20.8141 60.0208 20.7458 60.0778 20.7576C60.3994 20.8245 58.8307 20.9834 58.7237 21.1521C58.9754 21.1348 59.2393 21.1154 59.4966 21.0971C59.426 21.1257 59.3544 21.1546 59.2839 21.1832C58.691 21.1581 58.0372 21.21 57.3541 21.2373C57.2938 21.2499 57.2334 21.2627 57.174 21.275C57.1982 21.3195 57.2215 21.364 57.2457 21.4085C57.1545 21.4266 57.0623 21.4448 56.9711 21.463C57.2209 21.2713 56.8459 21.3247 56.3801 21.2924C56.6136 21.2051 56.9154 21.1973 56.881 21.0989C56.0647 21.29 55.081 21.3126 54.2885 21.5107C54.0918 21.5598 54.1103 21.6903 53.6391 21.7425C53.6531 21.726 53.6523 21.6997 53.66 21.6794C52.8564 21.8532 52.3688 21.958 51.5161 22.0098C51.5712 22.0501 51.6256 22.0907 51.6808 22.1309C51.8567 22.083 52.0329 22.0347 52.2079 21.9869C52.3404 22.0478 52.1649 22.1066 52.6993 22.0326C53.1372 21.972 52.8718 21.9735 52.9877 21.9342C53.1447 21.8808 53.2947 21.9231 53.4633 21.8643C53.5938 21.8191 53.4399 21.775 53.7919 21.7433C53.6626 21.8454 53.5308 21.9506 53.4007 22.0539C53.3128 22.0469 53.2255 22.0395 53.1376 22.0324C53.2208 21.9984 53.3027 21.9649 53.3859 21.931C53.0875 22.0123 52.8056 22.0892 52.4971 22.1734C52.5829 22.0396 52.2644 22.129 52.09 22.1673C51.8184 22.227 52.0424 22.1124 51.8642 22.1508C51.6861 22.1894 51.5045 22.3081 51.1764 22.3329C51.3435 22.2557 51.0998 22.2404 51.1389 22.1849C51.1781 22.1294 51.5208 22.0714 51.1828 22.063C50.5525 22.1909 51.2681 22.2838 50.8429 22.3729C50.3321 22.4801 50.1675 22.1914 50.3123 22.1047C50.4262 22.0364 50.8439 21.9898 50.9587 21.9217C50.2005 21.9309 50.2191 22.1151 50.0965 22.1685C49.6512 22.3625 49.9146 21.9713 49.3833 22.1725C49.3847 22.1059 49.385 22.0461 49.3868 21.9822C49.2937 22.007 49.2331 22.0314 49.12 22.0565C49.4746 22.1374 49.1978 22.1697 49.0562 22.1893C48.8331 22.2203 49.1863 22.2351 49.1294 22.2591C48.9758 22.3238 48.721 22.3389 48.8834 22.3737C48.8104 22.3571 48.7316 22.3413 48.6568 22.3252C48.4005 22.3934 47.8249 22.7494 48.4007 22.6146C48.3601 22.7231 48.1648 22.7004 48.0154 22.7051C47.8661 22.7099 47.8777 22.7739 47.7467 22.7798C47.2254 22.8027 47.547 22.6464 47.6168 22.5489C46.9451 22.7015 47.6161 22.6497 46.6418 22.8236C46.5567 22.9069 47.0197 22.92 46.6483 23.0122C46.5621 22.8995 46.2725 22.8498 45.7259 22.8832C45.6773 22.9185 45.6288 22.9541 45.5801 22.9893C45.2693 22.917 45.4042 22.779 44.8766 22.9938C45.1349 22.6962 44.9556 22.8885 44.4518 22.8507C44.3495 22.8432 44.5719 22.7584 44.4294 22.7503C44.3648 22.7467 44.2176 22.8079 44.0596 22.7979C43.9825 22.7928 43.6182 22.7415 43.3818 22.8219C43.577 22.9222 43.13 23.0915 43.5399 23.1404C42.805 23.2152 42.3012 23.3451 43.0976 23.0629C42.9067 23.0506 42.7157 23.0385 42.5249 23.0264C42.3996 23.0738 42.2731 23.1212 42.1468 23.1686C42.1131 23.0688 42.1289 23.0373 41.6216 23.1252C41.8394 23.0707 42.0564 23.016 42.2752 22.9611C42.2798 22.9394 42.3078 22.9137 42.2976 22.8946C42.0309 22.9712 41.2672 23.0931 41.0852 23.1458C40.9033 23.1985 41.2629 23.1568 41.213 23.1906C40.7976 23.4697 40.8108 23.304 40.4964 23.3852C40.3119 23.433 40.763 23.3958 40.6639 23.4189C40.2966 23.5045 40.1082 23.4121 39.778 23.4558C39.9042 23.5056 40.0296 23.5565 40.1531 23.6073C39.8066 23.6512 39.4208 23.7034 39.102 23.7686C38.9769 23.7941 39.079 23.83 39.0588 23.8361C38.9588 23.8669 38.5461 23.9506 38.5021 23.9568C38.1704 24.0026 38.1516 23.9361 37.8287 23.9766C37.9545 23.9535 38.0728 23.932 38.1957 23.9095C38.237 23.7919 38.2793 23.6742 38.3205 23.5564C38.0034 23.5916 37.6862 23.6271 37.3682 23.6625C37.6048 23.6675 37.8423 23.6722 38.0789 23.6772C37.7291 23.8155 37.3793 23.9541 37.0295 24.0927C36.8336 24.0639 36.6384 24.0351 36.4424 24.0063C35.9325 24.0908 36.0659 24.2981 35.7965 24.1374C35.6478 24.1745 35.4991 24.2115 35.3504 24.2484C35.3682 24.2178 35.3857 24.1871 35.4035 24.1565C35.2239 24.1984 35.0444 24.2402 34.8648 24.2824C35.0695 24.3542 35.2711 24.4317 35.4736 24.5009C35.1185 24.5712 35.1002 24.489 35.044 24.4755C34.8949 24.44 34.6239 24.5526 34.5044 24.5171C34.464 24.5049 34.8073 24.4021 34.6778 24.3555C34.6525 24.3465 34.151 24.1788 33.8586 24.2734C33.87 24.3147 33.9002 24.3631 33.9186 24.4071C33.5191 24.4879 33.2835 24.2966 33.3285 24.2277C33.1196 24.3002 32.8062 24.3468 32.7714 24.4201C32.6619 24.4367 32.5532 24.4532 32.4437 24.4699C32.5356 24.2904 32.0821 24.383 32.0714 24.528C32.2603 24.5057 32.4495 24.4835 32.6385 24.4612C32.5196 24.6534 33.1067 24.6791 31.8929 24.6824C31.6527 24.6238 32.2997 24.6392 32.1048 24.5973C31.7769 24.6024 31.4785 24.6766 31.1633 24.656C30.7711 24.6301 31.2302 24.4907 30.3549 24.7119C32.3499 24.6926 30.109 24.917 29.1986 25.1205C28.9117 24.909 28.1233 24.9376 27.0624 25.1574C27.1834 25.2106 27.5155 25.1292 27.7127 25.1252C27.9099 25.1212 27.7054 25.1906 27.9516 25.1894C28.1979 25.1883 28.7176 25.1614 28.969 25.1763C28.767 25.2434 27.7559 25.4753 28.4176 25.2725C27.903 25.2738 27.6562 25.2366 27.0283 25.3096C26.8553 25.4421 26.8783 25.5067 26.2683 25.5934C26.609 25.3955 25.9012 25.3873 26.033 25.213C26.4707 25.1895 26.2492 25.3717 26.5093 25.4087C26.5359 25.4124 26.9342 25.3198 27.0283 25.3096C26.6029 25.2314 26.4554 25.2008 26.6839 25.0072C26.3979 25.0606 26.2161 25.0651 26.2003 25.1448C26.1358 25.12 26.0709 25.0952 26.0073 25.0703C25.9137 25.0839 25.8298 25.0985 25.7304 25.1115C25.8829 25.2076 25.6081 25.1732 25.4267 25.2511C25.2454 25.329 25.5107 25.3849 24.9932 25.457C25.1694 25.4603 25.3303 25.4617 25.5007 25.4643C25.171 25.5395 24.8402 25.6151 24.5104 25.6903C24.7545 25.7284 25.2768 25.7629 25.2755 25.8571C25.117 25.8433 24.5987 25.9767 24.5414 25.9871C24.3195 26.0271 24.4331 25.9522 24.4161 25.9531C24.0615 25.9728 23.7754 26.0322 23.6302 25.9623C23.3722 26.0381 23.1704 26.0427 22.8913 26.0832C22.7377 26.1055 22.7764 26.1661 22.6847 26.1662C22.0752 26.1661 22.6338 26.0043 21.5015 26.3216C21.6474 26.3476 21.7915 26.3749 21.9375 26.4013C21.8095 26.4362 21.6822 26.471 21.5542 26.5059C21.4659 26.5096 21.3783 26.5132 21.29 26.5169C21.2784 26.4189 21.2673 26.3205 21.2557 26.2225C21.1594 26.2302 21.0626 26.2382 20.9662 26.246C21.129 26.2139 21.2922 26.1817 21.455 26.1496C21.4677 26.1303 21.4793 26.1112 21.4919 26.0919C21.2444 26.0987 20.9978 26.105 20.7503 26.1116C20.7503 26.1462 20.7503 26.1811 20.7503 26.2158C20.1943 26.2437 20.1773 26.2167 19.6678 26.3819C19.2653 26.436 18.9572 26.6231 18.7328 26.7148C18.6468 26.7072 18.5606 26.6993 18.4736 26.6918C18.424 26.7274 18.3739 26.763 18.3243 26.7986C18.2129 26.7737 18.1001 26.7491 17.9888 26.7244C17.942 26.8219 17.9152 26.8539 18.333 26.8287C18.2066 26.9592 17.4719 27.0099 17.1705 27.0131C16.9418 27.0156 17.1785 26.8887 17.1489 26.8813C17.0498 26.8558 16.6838 26.9396 16.6051 26.9439C16.2723 26.9626 16.0423 26.9988 15.7422 27.019C15.6838 27.0228 15.514 26.9862 15.5 26.9862C15.3917 26.9908 15.1239 26.9984 15.0938 27.0017C13.5399 27.1698 15.2288 27.1982 13.7857 27.3684C13.8334 27.3961 13.8777 27.4241 13.9244 27.4519C13.816 27.4689 13.7064 27.4859 13.5979 27.5028C13.4562 27.4936 13.616 27.4197 13.3479 27.4984C13.36 27.4545 13.3722 27.4106 13.3853 27.3668C13.2693 27.4055 13.1575 27.4434 13.0387 27.4824C12.8277 27.3649 12.1248 27.4279 12.1514 27.2523C12.1604 27.1926 12.6475 27.0659 12.3774 27.0404C12.1632 27.0574 12.3165 27.1063 12.2302 27.1218C11.6072 27.2325 11.6304 27.1314 11.3779 27.1921C11.3433 27.2388 11.3066 27.2867 11.2711 27.3339C11.1729 27.335 11.0744 27.3362 10.9753 27.3374C10.9566 27.3682 10.9369 27.3991 10.9182 27.4299C11.0094 27.4193 11.1121 27.4071 11.1958 27.3976C11.0941 27.5207 10.0319 27.7152 10.427 27.568C10.5879 27.5082 10.894 27.4823 10.6846 27.3819C10.4011 27.4394 10.0791 27.5024 9.7806 27.5619C9.76748 27.5359 9.75501 27.5098 9.7419 27.4838C9.33864 27.557 9.72252 27.6155 9.72977 27.6741C9.6372 27.6884 9.54364 27.7027 9.45106 27.717C9.40811 27.696 9.36693 27.6735 9.32221 27.6535C9.3242 27.6961 9.28561 27.8009 9.00406 27.8025C8.82299 27.8033 9.08852 27.6588 8.75144 27.7199C8.78577 27.7821 8.9192 27.8452 8.54438 27.9181C8.49749 27.8547 8.43704 27.7991 8.39812 27.7311C7.9374 27.8612 7.70917 27.7847 7.16827 27.9367C6.82511 28.033 6.36949 28.2704 6.10723 28.0367C5.85042 28.0647 5.94065 28.1195 5.86696 28.1447C5.51927 28.2638 5.23633 28.1747 5.16873 28.1764C4.79869 28.1857 4.61039 28.2382 4.34056 28.2454L4.22347 28.2632L4.24078 28.3768C4.24197 28.4214 4.24192 28.4681 4.24024 28.5183C4.28668 28.4928 4.33168 28.4763 4.3774 28.4547C4.36519 28.4226 4.35404 28.3921 4.34384 28.3627L4.34196 28.3504L4.35467 28.3485C4.60639 28.261 4.77731 28.242 5.17727 28.2016C5.02955 28.2318 4.8818 28.2623 4.73408 28.2926C4.76391 28.329 4.7935 28.3655 4.82236 28.4019C6.1757 28.0569 5.88889 28.3484 4.74376 28.5603C4.6343 28.5003 4.52124 28.441 4.41268 28.3807C4.39531 28.3861 4.37816 28.3913 4.36123 28.3964L4.39178 28.3562C4.57602 28.973 4.527 29.302 4.60479 30.038C4.6144 30.1278 4.70144 30.4481 4.72273 30.5879C4.72269 30.5856 4.72265 30.5832 4.72262 30.5808C4.80406 30.6585 4.81988 30.536 4.88008 30.5135C4.89827 30.5883 4.91644 30.6633 4.93463 30.7381C4.91049 30.9142 4.86343 30.8599 4.92041 31.1922C4.96141 31.1407 5.0025 31.0898 5.0435 31.0384C5.09522 31.4039 5.07675 31.6502 5.14551 31.9876C5.11984 31.9329 5.09421 31.8788 5.06854 31.8241C5.12445 32.5711 4.76645 32.0195 4.98112 32.5605C4.96181 32.5994 4.94214 32.6375 4.92282 32.6764C4.8853 32.4466 4.84793 32.2166 4.81053 31.9877C4.77566 31.9877 4.74088 31.9873 4.70613 31.9882C4.75015 32.2335 4.79466 32.4798 4.83869 32.7251C4.79107 32.5482 4.74327 32.3702 4.69565 32.1933C4.71841 32.4815 4.74116 32.7699 4.76392 33.0581C4.84822 32.7371 4.91753 33.1288 5.03205 33.0377C4.99762 33.5583 4.91531 33.9748 5.11035 34.7477C5.1491 34.9009 5.22464 34.8045 5.17911 35.2607C5.30308 35.1348 5.44389 35.6792 5.56598 35.59C5.53857 35.4371 5.51274 35.2782 5.48454 35.1303C5.46205 35.3062 5.34011 35.3516 5.26747 35.0989C5.17483 34.7763 5.19627 34.2842 5.05934 34.323C5.04793 34.1909 5.03508 34.0683 5.02316 33.94C5.06498 33.9877 5.10687 34.0344 5.14857 34.0812C5.04459 33.7258 5.03104 33.4955 5.09447 33.3091C5.17376 33.7386 5.2527 34.1672 5.33177 34.5968C5.32899 34.5323 5.32614 34.4669 5.32315 34.4024C5.45718 34.7175 5.49544 34.3683 5.59811 34.9762C5.5568 34.9781 5.51556 34.9807 5.47404 34.9825C5.61357 35.1898 5.69631 35.7985 5.79523 35.5871C5.78185 35.7762 5.7626 35.817 5.8445 35.9118C5.81553 36.4097 5.73758 36.7376 5.56999 36.5848C5.61781 36.7616 5.66567 36.9386 5.71336 37.1145C5.73848 37.005 5.76339 36.8955 5.78851 36.786C5.82894 37.0996 5.86972 37.4154 5.91022 37.728C5.79787 37.7739 5.79234 37.1299 5.71323 37.3268C5.69734 37.3662 5.76518 37.5286 5.75947 37.5745C5.69608 38.0589 5.6877 37.3132 5.60898 37.4643C5.65476 37.9563 5.54993 37.8384 5.57687 38.0512L5.59298 38.157L5.6956 38.1413C5.78555 38.1299 5.93461 38.095 6.2138 38.0152C6.24372 38.0453 6.27562 38.0759 6.30364 38.1061C6.63662 38.0626 6.59925 37.9903 6.88324 37.9368C7.0611 37.9034 7.30415 38.006 7.48953 37.8881C7.52251 37.8665 7.16744 37.749 7.86769 37.6605C8.41115 37.5917 8.20104 37.7378 8.49999 37.7385C8.79911 37.7391 9.44872 37.4874 9.67139 37.6414C9.51436 37.6385 9.31675 37.6524 9.14341 37.656C9.07886 37.7008 9.01607 37.745 8.95243 37.7894C9.33631 37.6904 9.74691 37.6889 9.99798 37.5688C10.536 37.6262 11.1018 37.4271 10.9244 37.3035C10.7559 37.3479 10.951 37.3857 10.7075 37.3779C10.6785 37.3474 10.6482 37.3173 10.6192 37.2868C11.0248 37.2354 11.3061 37.1959 11.1354 37.3244C11.1986 37.3182 11.2612 37.3122 11.3244 37.306C11.3254 37.2298 11.3251 37.1536 11.3261 37.0774C11.4 37.0587 11.4742 37.04 11.5481 37.0214C11.6337 37.0263 11.7196 37.0315 11.8062 37.0365C11.7089 37.1702 11.5162 37.2005 12.1648 37.179C12.1611 37.1379 12.1583 37.0969 12.1546 37.0558C12.6971 37.0344 12.7248 37.1313 13.3966 37.0356C12.9002 37.2479 12.5836 37.0354 12.6244 37.3194C12.4924 37.3184 12.3594 37.3174 12.2274 37.3164C12.2134 37.3603 12.1995 37.4043 12.1864 37.4481C12.8783 37.3312 13.9954 36.9021 14.4852 37.0181C14.5384 36.9885 14.5923 36.9617 14.6463 36.9303C15.1169 36.9763 15.2803 36.7058 15.7619 36.7828C15.8116 36.791 15.7431 37.0335 16.3438 36.9429C16.3248 36.9152 16.3101 36.8662 16.2928 36.8304C16.4256 36.8308 16.5578 36.8321 16.6897 36.833C16.7094 36.8024 16.7302 36.7715 16.7499 36.7407C16.5262 36.7604 16.3031 36.7799 16.0793 36.7997C16.2627 36.765 16.4473 36.7301 16.6307 36.6954C16.3836 36.6835 16.2748 36.6979 16.4102 36.6061C16.6187 36.5731 16.8275 36.5399 17.0361 36.5069C17.0551 36.4856 17.0739 36.464 17.0929 36.4426C16.9841 36.4015 16.8745 36.3618 16.7656 36.3199C17.3166 36.2902 17.7906 36.2277 18.2236 36.2785C18.2974 36.287 18.0551 36.3931 18.5319 36.2621C18.5446 36.299 18.5619 36.328 18.5751 36.3619C19.1551 36.1742 19.3548 36.1792 19.9852 36.171C19.574 36.1544 19.9385 36.1519 20.0354 36.0996C20.1019 36.0635 19.829 36.1049 19.8562 36.073C19.8833 36.0413 20.2234 35.8817 19.9178 35.9099C19.2044 36.2393 18.9643 35.9952 18.0227 36.2354C18.1659 36.186 18.3102 36.1363 18.4534 36.0868C18.3814 36.0764 18.3168 36.0669 18.239 36.056C18.7785 36.0275 18.5151 36.0341 18.7295 35.969C18.9442 35.9039 19.3389 35.8195 19.6049 35.7733C19.6886 35.7587 19.6068 35.8219 19.7975 35.8006C19.9273 35.7862 20.2706 35.6621 20.3645 35.7401C20.4259 35.7908 19.8796 36.0284 20.6651 35.9204C20.8208 35.9571 20.4417 35.991 20.4346 35.999C20.3754 36.076 20.8653 36.0608 21.0814 35.9785C21.0989 35.9716 20.9154 35.943 21.1042 35.896C21.5523 35.7843 21.8232 35.8089 22.1289 35.8504C22.1476 35.75 22.5147 35.583 22.9959 35.5532C23.0165 35.5224 23.036 35.4915 23.0566 35.4605C22.9846 35.4852 22.9126 35.5097 22.8406 35.5343C22.7576 35.5282 22.6704 35.5273 22.5889 35.5178C23.0647 35.4286 23.1144 35.2871 23.3375 35.2072C24.1011 34.9342 23.6725 35.3492 23.5389 35.4289C23.4334 35.4185 23.3308 35.4047 23.226 35.393C23.2418 35.4249 23.2579 35.457 23.2728 35.4892C24.4495 35.327 23.4817 35.6816 24.0876 35.662C24.2189 35.4765 24.6554 35.4005 25.2286 35.4284C25.2904 35.4191 25.3525 35.4104 25.4142 35.4009C25.4212 35.3755 25.4161 35.3388 25.4307 35.3207C26.1002 35.2007 26.2549 35.4375 26.3219 35.4528C26.6197 35.5204 26.82 35.343 26.9033 35.3303C27.2543 35.277 27.3654 35.3284 27.6963 35.2545C28.0522 35.1748 27.7992 35.1584 27.9026 35.0985C27.9855 35.0508 28.2687 35.0055 28.381 34.9525C28.3385 34.9891 28.2907 35.0258 28.2484 35.0626C28.6272 35.0527 28.9377 35.0511 29.3629 35.0031C29.8108 34.7164 30.2688 35.0338 30.0623 34.7538C29.6581 34.7881 29.429 34.7843 29.2037 34.7366C29.4658 34.6907 29.7281 34.645 29.9902 34.5991C30.0717 34.6218 30.1307 34.6467 30.2262 34.668C30.4135 34.5705 30.8741 34.5383 31.0505 34.4931C31.8765 34.2812 31.6004 34.1964 32.3942 34.2937C31.8447 34.389 31.859 34.4871 31.3095 34.5485C31.4373 34.6025 31.7136 34.5498 31.5451 34.6586C32.072 34.5653 31.8905 34.5137 32.0875 34.4188C32.2575 34.337 32.6152 34.2848 32.5847 34.2129C32.627 34.2489 32.6607 34.2848 32.7028 34.3208C33.0459 34.2734 33.3891 34.2264 33.7322 34.179C33.5918 34.2419 33.4514 34.3048 33.311 34.3675C33.4238 34.3685 33.5367 34.3695 33.6495 34.3705C34.4752 34.1217 35.9641 34.1667 35.6857 33.8637C36.0912 33.7973 36.1479 33.8323 36.3778 33.8654C36.3987 33.8366 36.4195 33.8122 36.4401 33.7806C36.7062 33.7713 36.8947 33.6482 37.1297 33.6413C37.3646 33.6342 37.4345 33.7165 37.4475 33.5604C37.6034 33.5833 37.7575 33.599 37.9121 33.6189C37.9974 33.5722 38.0826 33.5259 38.1669 33.4794C38.3101 33.4782 38.4535 33.4769 38.5966 33.4757C38.6619 33.3931 39.2192 33.3485 39.4564 33.2665C39.6985 33.3128 39.7258 33.5592 40.2643 33.4406C40.2418 33.3817 40.2197 33.3229 40.1973 33.2639C40.3237 33.2595 40.4504 33.2551 40.5778 33.2506C40.588 33.2695 40.5972 33.2884 40.6075 33.3073C40.5429 33.3099 40.4791 33.3124 40.4145 33.3147C40.4744 33.3408 40.5332 33.3668 40.5922 33.393C40.7757 33.3171 40.9595 33.2412 41.1439 33.1652C40.8809 33.1628 40.6178 33.1603 40.3549 33.1579C40.6723 33.0689 40.9036 33.0827 41.1781 32.9943C41.4343 33.0449 41.3506 33.1057 41.2637 33.2105C41.3535 33.1903 41.4445 33.1702 41.5344 33.1499C41.4869 33.2494 41.6481 33.2827 41.1155 33.3481C41.1556 33.3691 41.1963 33.3888 41.2356 33.411C41.3223 33.395 41.3818 33.4092 41.4761 33.3861C41.733 33.3229 41.911 33.1353 41.8855 33.0815C41.8718 33.0534 41.6225 33.1449 41.6271 33.1019C41.6386 32.9969 42.2345 32.9617 41.3701 32.9763C41.6435 32.873 41.7132 32.9131 42.0271 32.8892C41.9981 32.8587 41.9698 32.8283 41.9418 32.7977C42.0883 32.7935 42.235 32.7893 42.3815 32.7851C42.2046 32.9862 43.2779 32.9057 42.3405 33.1889C42.6248 33.1579 42.908 33.1271 43.1914 33.0966C43.1357 33.1224 43.0799 33.1481 43.0242 33.1738C42.8954 33.1819 42.7674 33.19 42.6386 33.1982C42.7931 33.2102 42.9478 33.2221 43.1022 33.2341C43.4512 33.1452 43.5816 33.064 43.7334 32.9651C43.3132 32.9656 43.4584 33.0236 43.1391 33.0829C43.1436 33.0327 43.1227 32.9901 43.1438 32.9352C43.3237 33.0131 43.8555 32.8657 43.9804 32.8436C44.3608 32.7763 44.0745 32.9162 44.3305 32.8832C44.5868 32.8502 44.8807 32.75 45.1033 32.8194C45.092 32.765 45.0675 32.7105 45.0456 32.6625C45.4417 32.5899 45.3711 32.6657 45.4135 32.6684C46.0908 32.7165 46.432 32.5509 47.1831 32.4336C47.0851 32.4297 46.9864 32.4276 46.8876 32.4248C47.4398 32.2304 47.0619 32.3185 46.5634 32.3475C47.0274 32.2958 47.2785 32.1602 47.6008 32.086C47.9231 32.0119 48.4897 31.9863 48.6996 31.998C48.2405 32.1261 47.73 32.153 47.2128 32.2418C47.2796 32.2897 47.3434 32.3292 47.4128 32.3823C47.7127 32.2216 47.9066 32.2751 48.0128 32.2764C48.3247 32.2803 48.3013 32.1807 48.5008 32.2639C48.4882 32.2276 48.4785 32.197 48.4662 32.1632C49.0994 32.0924 49.7892 32.0651 50.1811 31.8711C50.2309 31.9555 50.271 32.038 50.3266 32.1235C50.5846 32.0195 50.8229 32.0572 51.0458 32.0107C51.2678 31.9642 51.1725 31.9034 51.4322 31.8395C51.4803 31.8277 51.588 31.8591 51.7035 31.8092C51.8201 31.759 52.2329 31.448 52.3162 31.6589C52.5424 31.629 52.7573 31.6077 52.9791 31.5811C52.7651 31.6229 52.551 31.6644 52.338 31.7061C52.529 31.7338 52.7189 31.7616 52.9099 31.7893C52.9269 31.7389 52.9438 31.6877 52.9599 31.638C53.4472 31.5128 53.8171 31.5407 54.3144 31.454C54.3975 31.4395 54.1878 31.3733 54.5614 31.3463C54.935 31.3194 55.2337 31.4558 55.8556 31.3022C55.887 31.2943 56.0556 31.1354 56.2943 31.1968C56.3485 31.2106 56.1363 31.2712 56.2581 31.2825C56.3801 31.2938 56.9104 31.2442 56.9606 31.304C56.9518 31.2816 56.9156 31.2621 56.8964 31.2407C56.9849 31.2173 57.0743 31.1938 57.1638 31.1705C57.1778 31.2101 57.1925 31.2497 57.2065 31.2892C57.7111 31.1233 57.9574 30.9318 58.7315 30.8781C58.5077 30.8483 58.2838 30.8184 58.061 30.7885C58.0076 30.8382 57.9541 30.8882 57.9017 30.9378C57.5459 30.9696 57.1892 31.0017 56.8334 31.0335C56.7818 31.0888 56.7311 31.1439 56.6795 31.1992C56.5849 31.2059 56.4912 31.2126 56.3966 31.2193C56.4154 31.1819 56.4343 31.1446 56.454 31.107C56.2696 31.1408 56.0849 31.1748 55.9013 31.2085C56.2497 30.9549 56.9538 31.082 56.882 30.9195C56.969 30.9343 57.0561 30.9493 57.1432 30.9643C57.1685 30.8773 57.3414 30.8777 57.6422 30.8497C57.5682 30.8187 57.4871 30.7892 57.4187 30.7569C57.7172 30.7741 58.2322 30.698 58.5362 30.6787C58.6697 30.6703 58.5458 30.7478 58.5861 30.7494C58.7927 30.7583 59.1639 30.6018 59.2457 30.5989C59.7343 30.5818 60.0745 30.7355 60.5828 30.5339C60.0355 30.5762 60.3327 30.5493 60.1297 30.5038C60.0661 30.4895 59.3582 30.5385 60.2394 30.4391C60.3202 30.4301 61.3224 30.3778 61.5135 30.4393L61.5607 30.4321L61.5538 30.3863C61.5657 30.3492 61.5819 30.3427 61.6036 30.3795L61.6181 30.4743L61.5203 30.4892C61.5041 30.4987 61.4796 30.5093 61.4455 30.5211C61.4715 30.5141 61.4969 30.507 61.5218 30.5001L61.6306 30.4835L61.6145 30.378C61.5534 30.1602 61.494 29.9805 61.4333 29.7728C61.6286 29.1575 61.3982 29.3928 61.2792 29.5801C61.2657 29.4854 61.2519 29.3955 61.2385 29.298C61.416 29.4848 61.2807 28.4277 61.1564 28.0797C61.1149 27.9631 61.1131 28.3053 61.0526 28.0308C61.0449 27.8972 61.0379 27.7454 61.0305 27.6042C60.9639 27.8196 60.8731 27.4271 60.7779 27.4458C60.8286 27.18 60.9833 26.9608 61.1006 27.087C61.0321 26.8824 60.9635 26.6767 60.8947 26.4722C60.8853 26.5728 60.8763 26.6747 60.8669 26.7753C60.8332 26.0806 60.5751 25.2167 60.757 25.0457C60.7431 24.9549 60.7293 24.8631 60.7154 24.7724C60.6775 24.7489 60.6397 24.7264 60.6018 24.7029C60.575 24.2873 60.5485 23.8725 60.5216 23.4569C60.5929 23.8205 60.6533 23.9011 60.6666 24.2908C60.6855 24.1374 60.7042 23.9811 60.7235 23.8304C60.5388 23.2663 60.4587 23.1968 60.3708 22.3214C60.3669 22.2818 60.3651 21.6115 60.3707 21.5878C60.3959 21.4793 60.4745 21.628 60.4881 21.5793C60.5265 21.4441 60.5604 20.65 60.5836 20.6621C60.8687 20.816 61.2292 23.423 61.3391 24.1264C61.6614 26.1897 61.9562 28.2437 62.2364 30.2928L62.3456 31.0094L61.607 31.1219C56.4103 31.8325 51.2442 32.4495 46.0342 33.186C45.9596 33.1967 45.9974 33.2305 45.9658 33.2365C45.7693 33.2732 45.5668 33.2402 45.4934 33.2477C45.3364 33.2641 45.43 33.3074 45.3158 33.3231C44.136 33.484 43.0183 33.604 41.8389 33.7751C41.7621 33.7863 41.8346 33.7314 41.7006 33.7577C41.6315 33.7715 41.4225 33.8691 41.2653 33.8916C40.7163 33.9704 40.2517 34.0119 39.6723 34.0923C39.3554 34.1363 38.8791 34.1956 38.5248 34.2452C38.3684 34.2671 38.2095 34.3203 38.055 34.3425C37.8358 34.374 37.872 34.3052 37.8377 34.3059C37.6872 34.3092 37.6761 34.3808 37.5352 34.3984C37.2731 34.431 37.2528 34.3869 36.9213 34.4363C36.6845 34.4717 36.1464 34.5823 35.8487 34.6339C35.1418 34.6764 34.2632 34.8183 33.6129 34.9253C33.228 34.9886 33.1834 34.9292 33.0259 34.951C32.4709 35.0282 32.0609 35.1681 31.5399 35.2422C30.8485 35.3404 30.2279 35.37 29.557 35.4579C29.4482 35.4721 29.4812 35.5277 29.3748 35.5438C28.9807 35.6034 28.4773 35.6833 28.1245 35.723C27.7313 35.7674 27.575 35.7016 27.1939 35.7716C27.0822 35.7922 27.0595 35.8717 26.8724 35.9072C26.5735 35.9635 26.2344 35.9425 26.0233 35.9639C25.7341 35.9935 25.9949 36.0357 25.6053 36.0786C25.5892 36.0803 25.5237 36.0336 25.4407 36.0476C25.1988 36.0883 25.2288 36.128 24.8728 36.1726C24.8386 36.1767 24.3602 36.1891 24.3134 36.1953C24.0375 36.2323 23.48 36.29 23.3183 36.3235C22.7404 36.4427 23.2109 36.462 22.6903 36.3516C22.4779 36.4251 22.2673 36.4991 22.0415 36.5732C22.1907 36.5125 21.5556 36.5412 21.5121 36.551C21.1516 36.6306 21.3782 36.6703 20.9144 36.7221C21.5029 36.4782 20.3152 36.7831 20.0466 36.8241C18.7533 37.0214 17.5698 37.1427 16.2674 37.3221C15.8314 37.3822 15.2517 37.4961 14.7903 37.5585C14.6828 37.5731 14.7588 37.5241 14.6641 37.5362C14.5696 37.5486 14.6801 37.5768 14.5721 37.5893C13.8996 37.6664 13.3632 37.6579 12.7627 37.8425C12.7308 37.8321 12.7302 37.8205 12.6785 37.8113C12.1882 37.9701 11.2036 37.9816 10.8375 38.0148C10.2648 38.0669 10.1278 38.1477 9.71267 38.192C9.16371 38.2505 8.3266 38.244 8.72005 38.39C8.34584 38.4475 7.98502 38.4987 7.60371 38.5323C7.56126 38.536 7.58348 38.4822 7.56647 38.4834C7.45861 38.4909 7.42992 38.5403 7.358 38.5523C7.16299 38.5846 7.47514 38.4874 7.19806 38.5405C7.05193 38.5687 6.97366 38.6191 6.56494 38.6759C6.30668 38.7117 6.04608 38.7477 5.78356 38.7837L5.04976 38.8955L4.93452 38.1392C4.6268 35.897 4.31255 33.5142 4.00875 31.2518C3.9854 31.0783 3.95281 31.1991 3.92609 30.9811C3.84378 30.3096 3.75261 29.1609 3.66307 28.4559L3.55927 27.7747L4.26145 27.6677C4.35148 27.6563 4.43427 27.6449 4.5079 27.6335C5.15811 27.5332 5.00141 27.4828 5.4052 27.3974C5.48319 27.3809 5.4241 27.4299 5.49546 27.4208C5.97517 27.3589 6.55506 27.3433 6.94459 27.2996C7.20219 27.2708 7.17298 27.2103 7.35046 27.1814C7.61495 27.1385 7.89685 27.165 8.03873 27.1477C8.70568 27.0655 9.15631 26.9514 9.7816 26.8925C9.75537 26.8819 9.73754 26.8713 9.71508 26.8604C10.4515 26.7618 11.187 26.6634 11.9233 26.5649C11.8869 26.5569 11.8516 26.5487 11.8151 26.5405C12.6797 26.4292 12.6001 26.5805 12.4843 26.2999C12.5457 26.2811 12.6106 26.2601 12.6693 26.2424C12.6655 26.3957 13.2029 26.4338 13.873 26.381C13.9221 26.3771 14.2293 26.1862 14.2173 26.3637C14.2969 26.3098 14.3438 26.2737 14.4109 26.2267C14.5587 26.2597 14.7083 26.2919 14.856 26.3247C14.9309 26.3065 15.0069 26.2885 15.0817 26.2703C15.0883 26.2349 15.0749 26.2009 15.0947 26.1644C15.4466 26.111 16.1754 26.0538 16.4534 26.0114C17.1441 25.9057 17.8361 25.7178 18.388 25.7429C18.6488 25.6969 18.3793 25.6661 18.7704 25.6212C18.8191 25.6487 18.8649 25.6753 18.9156 25.7037C19.2138 25.5098 19.2929 25.5921 19.7339 25.5636C20.0322 25.5445 20.2206 25.4813 20.5029 25.45C20.5744 25.4421 20.5704 25.4875 20.6189 25.4794C20.7816 25.4525 21.2393 25.328 21.3544 25.3106C22.3968 25.1515 23.2952 25.0355 24.2923 24.9154C24.3994 24.9024 24.2549 24.8779 24.3658 24.8646C24.5442 24.8431 24.4486 24.9243 24.5522 24.9135C24.8411 24.8829 24.8336 24.8121 25.2344 24.7534C26.554 24.5604 28.0804 24.4054 29.4614 24.2211C29.5045 24.2152 29.4963 24.1742 29.5431 24.1674C29.8485 24.1235 30.1655 24.137 30.4429 24.0984C30.9033 24.0345 31.2414 23.9291 31.6963 23.867C32.5853 23.7455 33.3837 23.6664 34.2982 23.5429C35.0468 23.4418 35.6959 23.3473 36.5165 23.2352C40.1009 22.7452 43.7404 22.1133 47.3585 21.6889C47.4506 21.6781 47.4182 21.7197 47.446 21.7143C47.7102 21.6621 47.7272 21.6096 47.836 21.6997C48.1725 21.633 48.269 21.5408 48.6794 21.4902C48.8982 21.4632 48.7516 21.6057 49.1126 21.4932C49.4385 21.3915 49.0614 21.3761 50.0626 21.3075C50.0891 21.3058 50.2284 21.3613 50.4321 21.314C50.6368 21.2667 50.3897 21.2471 50.8864 21.163C52.0526 20.9657 53.5438 20.826 54.9028 20.6201C54.9879 20.6072 55.8044 20.4555 55.9642 20.4153C56.2733 20.3372 56.2003 20.2918 56.6063 20.2226C56.92 20.1692 57.1884 20.1952 57.5571 20.1322C57.6001 20.1248 57.6637 20.0515 57.9432 20.0218ZM11.2838 37.0171C11.3522 36.9444 11.4596 36.6965 11.9341 36.7025C11.9791 36.703 11.7627 36.893 12.023 36.8829C11.7739 36.9339 11.5299 36.9728 11.2838 37.0174C11.2838 37.0173 11.2838 37.0172 11.2838 37.0171ZM60.1585 21.2054C59.809 21.2416 59.4583 21.278 59.1088 21.3141C59.3451 21.2536 59.5817 21.193 59.8171 21.1324C59.9312 21.1567 60.0444 21.1811 60.1585 21.2054ZM16.8333 27.0271C16.8337 27.0271 16.834 27.027 16.8343 27.027C16.4727 27.1066 16.1108 27.1863 15.7491 27.2659C15.7845 27.2389 15.8201 27.2118 15.8556 27.1848C16.1396 27.111 16.4239 27.0373 16.707 26.9636C16.7491 26.9848 16.7913 27.0059 16.8333 27.0271ZM19.6913 26.4013C19.9284 26.3952 19.8772 26.4466 20.0115 26.4715C20.0115 26.4714 20.0115 26.4713 20.0114 26.4712C20.0469 26.4776 20.2061 26.4657 20.2674 26.459C20.2411 26.4348 20.2084 26.4118 20.1803 26.3881C20.7161 26.2475 21.8137 26.3362 20.4472 26.6196C20.4631 26.5824 20.4781 26.5454 20.494 26.5081C19.8098 26.6116 19.0354 26.6416 19.6913 26.4013ZM16.7823 36.1632C17.352 35.9703 17.5364 35.9208 18.2569 35.9009C18.161 35.9466 18.0651 35.9923 17.9692 36.038C17.8475 36.0215 17.7267 36.005 17.605 35.9885C17.6047 35.9885 17.6044 35.9885 17.604 35.9886C17.5853 36.026 17.5665 36.0636 17.5486 36.1009C17.2936 36.1216 17.0374 36.1425 16.7823 36.1632ZM42.1027 23.4156C42.2967 23.6185 42.2317 23.494 41.7728 23.6086C41.6139 23.6483 41.7765 23.6662 41.677 23.6865C41.1401 23.7966 41.0761 23.6516 41.1863 23.5565C41.4922 23.5092 41.8014 23.4619 42.1017 23.4157C42.1021 23.4157 42.1024 23.4156 42.1027 23.4156ZM56.1554 21.4437C56.1558 21.4436 56.1561 21.4436 56.1564 21.4436C56.178 21.4966 55.9616 21.5413 56.2151 21.5596C56.0276 21.585 55.8402 21.6103 55.6518 21.6359C55.7063 21.6232 55.7621 21.6106 55.8166 21.5979C55.7653 21.5857 55.7137 21.5733 55.6624 21.5611C55.6045 21.6334 55.5376 21.6051 55.3378 21.611C55.4014 21.671 55.4648 21.7311 55.5284 21.7911C55.2969 21.8023 55.0645 21.8136 54.833 21.8248C54.8279 21.8082 54.8227 21.7916 54.8175 21.775C54.7343 21.8085 54.6519 21.8422 54.5686 21.8757C54.5424 21.8586 54.5171 21.8416 54.4909 21.8245C54.3889 21.8541 54.2868 21.8838 54.1849 21.9136C54.1465 21.8688 54.3729 21.8161 53.968 21.8843C54.0858 21.8168 54.2034 21.7494 54.3221 21.6818C54.9332 21.6023 55.5444 21.523 56.1554 21.4437ZM37.8739 24.0652C38.545 23.9637 38.3605 24.0253 38.2201 24.1582C38.1051 24.1271 37.989 24.0963 37.8739 24.0652ZM4.70467 29.4979C4.80747 29.6825 4.90961 29.8681 5.01038 30.0578C5.10727 30.4496 5.02307 30.8663 4.92776 30.5746C4.81325 30.2235 4.83473 29.8374 4.70467 29.4979ZM6.19388 37.7396C5.70258 37.7709 6.14791 37.6179 6.25042 37.5501C6.3966 37.6164 6.58324 37.5832 6.88601 37.5518C6.60373 37.5961 6.27515 37.7346 6.19392 37.7398C6.19391 37.7398 6.1939 37.7397 6.19388 37.7396ZM11.0601 27.7228C11.2548 27.6938 11.4458 27.646 11.6236 27.648C11.581 27.7279 11.2232 27.7095 11.4874 27.7832C11.3629 27.8021 11.2383 27.821 11.1149 27.84C11.1874 27.7845 11.077 27.7656 11.0607 27.723C11.0605 27.7229 11.0603 27.7229 11.0601 27.7228ZM31.3711 25.043C30.9767 25.0093 30.9092 25.0561 30.532 25.1685C30.468 25.1058 30.9115 24.9254 31.1959 24.8602C31.2539 24.9211 31.3121 24.9822 31.3711 25.043ZM59.4966 30.3235C59.417 30.4254 58.7408 30.5299 58.4004 30.5496C58.4387 30.5308 58.4771 30.5119 58.5153 30.4929C58.842 30.4365 59.1699 30.3799 59.4966 30.3235ZM7.03026 37.5382C6.97946 37.5425 6.93136 37.5471 6.88601 37.5518C6.93608 37.544 6.98474 37.5388 7.03026 37.5382ZM27.4547 35.1367C27.3059 35.243 27.7863 35.206 27.2032 35.2522C27.2032 35.2523 27.2032 35.2524 27.2033 35.2525C26.8177 35.2831 26.7324 35.2889 26.377 35.3309C26.4898 35.2051 27.2037 35.068 26.2094 35.1813C26.1963 35.183 26.2311 35.2439 26.0716 35.2568C26.0223 35.2607 25.8586 35.2293 25.6186 35.2465C25.541 35.2521 24.9609 35.3149 25.7485 35.206C25.7147 35.1338 25.7466 35.0516 25.7347 34.9786C26.0392 34.9153 26.2958 35.0307 26.6205 34.9825C27.1027 34.9106 27.328 34.7276 27.4477 34.9109C27.0482 35.0147 26.351 35.1113 26.2439 35.0059C25.8509 35.0582 25.7513 35.1703 26.0746 35.1747C27.4233 34.9282 26.4667 35.267 27.6444 35.0272C27.6547 34.9981 27.6995 34.962 27.6886 34.9374C28.0644 34.9837 27.5078 35.0988 27.4547 35.1367ZM24.5886 35.3168C24.8152 35.2271 25.0409 35.137 25.2665 35.0472C25.2794 35.1411 25.1621 35.243 24.7999 35.3465C24.7298 35.3365 24.6587 35.3266 24.5886 35.3168ZM44.3069 32.5916C44.3337 32.536 44.4173 32.4768 44.4762 32.4193C44.5534 32.4526 46.2471 32.2627 45.3941 32.4226C45.2702 32.4458 44.4971 32.4597 44.3069 32.5916ZM34.0172 24.6023C33.8137 24.5953 33.611 24.5881 33.4084 24.581C33.71 24.5175 34.0118 24.4535 34.3134 24.3897C34.2143 24.4606 34.1162 24.5314 34.0172 24.6023ZM5.05821 32.7464C5.04863 32.6622 5.15704 32.9315 5.10067 32.6022C5.17935 32.8426 5.24899 33.0684 5.32424 33.3036C5.3009 33.3804 5.27781 33.4579 5.25447 33.5346C5.2835 33.588 5.31256 33.6425 5.34159 33.6958C5.28857 33.6687 5.23719 33.6451 5.18309 33.6162C5.23126 33.1959 5.10085 33.1189 5.05821 32.7464ZM12.0192 27.2203C12.1066 27.3154 11.5272 27.4585 12.1079 27.3961C12.0077 27.4802 11.8362 27.5406 11.4985 27.5932C11.4406 27.5742 11.3827 27.5554 11.3248 27.5364C11.327 27.6081 11.2435 27.6463 11.0601 27.7228C11.0599 27.7227 11.0598 27.7227 11.0596 27.7226C10.5456 27.7982 10.5732 27.7704 10.4335 27.6711C10.9873 27.6621 10.989 27.5537 11.3518 27.4397C11.6009 27.3613 11.9366 27.3354 12.0192 27.2203ZM42.5085 32.8391C42.8816 32.6976 42.5245 32.6621 43.221 32.6628C43.1801 32.6914 43.1388 32.7199 43.0979 32.7485C42.9014 32.7789 42.705 32.8091 42.5085 32.8391ZM13.9701 27.3204C13.9037 27.1636 13.5236 27.0865 13.4979 27.3599C13.8589 27.3654 13.6656 27.239 13.9701 27.3204ZM6.06288 38.0172C5.88637 38.0394 5.76257 38.0423 5.68065 38.0321C5.70967 37.8458 5.80378 37.8818 5.88996 38.0083L5.65273 37.8282C5.6817 37.8085 5.71542 37.7892 5.75224 37.7712C5.79996 37.7988 5.84763 37.8263 5.89438 37.8538C6.0114 37.8223 6.12844 37.7908 6.24549 37.7595C6.18464 37.8454 6.12373 37.9314 6.06288 38.0172ZM25.9308 25.5004C25.4272 25.6878 26.5005 25.4883 26.1475 25.6106C25.8656 25.7083 25.4677 25.6434 25.6021 25.5502C25.7022 25.5344 25.8137 25.5177 25.9298 25.5005C25.9301 25.5005 25.9304 25.5004 25.9308 25.5004ZM22.9289 25.9453C23.0312 26.0579 22.9033 26.0385 23.3107 25.9599C23.4271 25.9375 24.3649 25.8566 23.9598 25.8072C23.6269 25.8528 23.275 25.8992 22.9289 25.9453ZM13.8964 36.7594C13.91 36.8127 13.209 37.0297 13.1129 37.0126C13.1129 37.0127 13.1129 37.0128 13.1129 37.0128C12.8533 36.9659 13.6084 36.8507 13.2649 36.7845C14.0051 36.7828 14.1901 36.5165 14.1822 36.8351C13.7559 36.9074 13.9498 36.8154 13.8964 36.7594ZM60.474 23.469C60.474 23.4687 60.4739 23.4684 60.4739 23.468C60.4779 23.5165 60.4529 23.9243 60.4188 23.8798C60.377 23.3993 60.4409 23.4772 60.2942 23.0446C60.3185 23.0165 60.3425 22.9919 60.3667 22.9619C60.4073 23.1359 60.4539 23.2291 60.474 23.469ZM46.1469 32.4508C45.9734 32.489 45.6454 32.4742 45.4461 32.505C46.0511 32.1928 46.8396 32.2987 46.1469 32.4508ZM49.5809 22.3518C49.5804 22.352 49.58 22.3521 49.5795 22.3523C49.5796 22.3521 49.5798 22.352 49.5799 22.3518C49.5803 22.3518 49.5806 22.3518 49.5809 22.3518ZM32.539 34.1765C32.5636 34.188 32.5781 34.199 32.5843 34.2095C32.5844 34.2106 32.5845 34.2116 32.5847 34.2127C32.5706 34.2006 32.5557 34.1886 32.539 34.1765ZM15.3848 36.539C15.6939 36.5735 14.715 36.8298 14.3892 36.8452C14.407 36.8077 14.4062 36.776 14.4533 36.7293C14.7253 36.7829 15.3334 36.5331 15.3848 36.539ZM7.66625 28.0488C6.87916 28.1545 7.86233 27.7164 7.93707 27.9483C7.93612 27.9531 7.68652 28.0456 7.66625 28.0488ZM9.18437 37.4198C8.99628 37.5374 9.40239 37.5062 8.7561 37.5789C8.71541 37.5606 8.67475 37.5423 8.63406 37.5241C8.81746 37.4894 9.00098 37.4545 9.18437 37.4198ZM4.35883 30.259C4.54467 31.2424 4.76299 32.1773 4.92339 31.4982C4.90514 31.4244 4.88701 31.3495 4.86876 31.2756C4.74587 31.281 4.77424 30.9953 4.72276 30.59C4.66668 30.5389 4.6248 30.3159 4.57809 30.2794C4.4878 30.2087 4.46748 30.4743 4.35883 30.259ZM44.293 22.8363C44.2799 22.8592 44.2671 22.8821 44.254 22.9048C44.1006 22.9496 43.9468 22.9944 43.7933 23.0392C43.8132 22.996 43.8331 22.9528 43.853 22.9096C43.9995 22.8851 44.1454 22.8607 44.292 22.8363C44.2923 22.8363 44.2927 22.8363 44.293 22.8363ZM23.6587 35.7049C23.7174 35.4647 23.4088 35.5497 22.787 35.7522C23.0771 35.7365 23.3685 35.7207 23.6587 35.7049ZM18.3837 26.2769C18.4132 26.3389 18.4423 26.4007 18.4727 26.4625C18.802 26.3487 18.729 26.2831 18.555 26.2196C18.4975 26.2387 18.4412 26.2578 18.3837 26.2769ZM23.2564 25.5816C23.1141 25.5874 23.1929 25.6298 23.1781 25.6308C22.8189 25.652 22.7655 25.6349 22.3349 25.7339C22.2833 25.755 22.2327 25.7766 22.1812 25.7981C22.4014 25.9062 22.5377 25.8122 22.9752 25.8335C22.8919 25.7975 22.809 25.7614 22.7257 25.7251C22.9642 25.7025 23.2018 25.6799 23.4403 25.6572C23.4665 25.639 23.4927 25.6209 23.5189 25.6027C23.432 25.5958 23.3421 25.587 23.2564 25.5816ZM46.1121 22.6472C46.3435 22.6209 46.576 22.5947 46.8075 22.5685C46.8113 22.5339 46.8148 22.4991 46.8187 22.4645C46.5835 22.5254 46.3473 22.5863 46.1121 22.6472ZM28.381 34.9525C28.3976 34.9381 28.4139 34.9238 28.428 34.9095C28.4285 34.9245 28.4101 34.9387 28.381 34.9525ZM60.574 22.8352C60.5616 22.5704 60.4946 22.1956 60.4602 21.9079C60.3794 21.942 60.5025 22.6681 60.4867 22.9312C60.5074 22.9703 60.5793 22.9472 60.574 22.8352ZM5.57955 37.477C5.52873 37.417 5.47812 37.3572 5.42743 37.2982C5.41024 37.1391 5.39326 36.9796 5.37594 36.8196C5.34105 36.8196 5.30587 36.8197 5.27099 36.8197C5.41164 37.5159 5.29071 37.3675 5.24093 37.7285C5.35368 37.6443 5.46659 37.5612 5.57955 37.477ZM53.4225 21.4249C52.9183 21.5175 52.7443 21.5855 53.0444 21.649C53.2202 21.6009 53.3971 21.5527 53.5729 21.5046C53.5225 21.4781 53.472 21.4515 53.4225 21.4249ZM37.6312 33.7647C38.0505 33.6682 38.0764 33.8051 38.4809 33.6713C38.2552 33.6763 38.0295 33.681 37.8047 33.6859C37.7474 33.712 37.6886 33.7385 37.6312 33.7647ZM16.861 36.9945C17.0467 37.018 17.3503 36.7441 17.8769 36.8435C17.99 36.7768 18.0586 36.7185 18.155 36.6552C18.2224 36.7005 18.298 36.7454 18.3625 36.7907C18.3628 36.7906 18.3631 36.7906 18.3635 36.7905C18.8177 36.7099 18.5124 36.6833 18.5149 36.6251C18.5165 36.6009 18.8609 36.5939 18.7479 36.5571C18.553 36.4942 17.8767 36.6383 17.8601 36.5313C18.105 36.5335 18.5697 36.44 18.4213 36.3875C18.2586 36.3297 17.8349 36.5219 17.5446 36.4952C17.9712 36.6114 17.1313 36.6725 17.0186 36.5538C16.5438 36.7218 16.9985 36.7016 17.4987 36.6283C17.2068 36.771 17.6493 36.6549 17.7349 36.7286C17.4266 36.8224 16.339 36.9283 16.861 36.9945ZM6.57714 27.7578C6.24034 27.8106 5.7049 27.8251 5.48537 27.942C5.35751 28.01 5.89156 27.976 5.53757 28.1038C5.86554 28.0512 5.93644 28.0105 5.87083 27.9499C5.9447 27.9314 6.01952 27.9131 6.0934 27.8948C6.12991 27.9034 6.1673 27.9116 6.2038 27.9202C6.23934 27.8867 6.27512 27.8534 6.30973 27.8201C6.39013 27.8147 6.47147 27.8092 6.5519 27.804C6.55933 27.7886 6.57361 27.7742 6.57714 27.7578ZM49.8207 32.0913C49.7271 32.105 49.6344 32.1185 49.5408 32.1323C49.5534 32.1476 49.568 32.1632 49.5822 32.1787C49.5926 32.191 49.6029 32.2033 49.6133 32.2157C49.5523 32.1749 49.0947 32.1558 48.9136 32.2331C48.8225 32.2719 49.0504 32.3342 48.6515 32.4052C48.9415 32.3606 49.209 32.3113 49.4902 32.2648C49.4686 32.2956 49.448 32.3265 49.4265 32.3572C49.4266 32.3572 49.4268 32.3572 49.427 32.3573C49.5216 32.3506 49.6173 32.344 49.7119 32.3373C49.7484 32.2552 49.7842 32.1734 49.8207 32.0913ZM18.0913 26.1865C17.7788 26.2838 17.6756 26.3263 17.8384 26.3921C17.8388 26.3921 17.8391 26.3921 17.8395 26.3921C17.9533 26.3375 18.0672 26.2828 18.181 26.2282C18.1514 26.2143 18.1219 26.2003 18.0913 26.1865ZM31.1746 34.861C31.8095 34.4392 30.306 34.8503 30.6129 34.9224C30.6267 34.9257 31.1059 34.8334 31.1746 34.861ZM6.20166 38.1012C6.03496 38.1265 5.86792 38.1516 5.70047 38.1769L5.5629 38.1979L5.54129 38.0561C5.53832 38.0364 5.53535 38.0168 5.53237 37.9971C5.51674 38.0192 5.50117 38.0414 5.48561 38.0637L5.51581 38.2619L5.7081 38.2326C5.73499 38.2514 5.76191 38.2702 5.78852 38.289C5.92614 38.2265 6.06404 38.1638 6.20166 38.1012ZM51.1932 21.5781C50.9845 21.5148 50.4758 21.5511 50.2428 21.683C50.3738 21.6768 50.5049 21.6705 50.6359 21.6643C50.3927 21.7091 50.1525 21.7546 49.9074 21.799C49.9115 21.9265 50.1857 21.8147 50.618 21.7908C50.685 21.7873 51.1297 21.8854 51.2597 21.7478C51.2858 21.7196 50.8333 21.7648 51.1366 21.6517C50.999 21.6649 50.8811 21.6823 50.7513 21.6969C50.7378 21.6682 50.7244 21.6395 50.71 21.611C50.8714 21.5999 51.0318 21.5892 51.1932 21.5781ZM4.61251 28.0368C4.48735 28.0521 4.39223 28.0674 4.31842 28.0837L4.03755 28.1265L4.07907 28.399C4.12325 28.5993 4.17432 28.6428 4.24885 28.7045C4.22911 28.5976 4.20941 28.4907 4.18971 28.3838L4.16475 28.2201L4.33356 28.1943C4.44104 28.1745 4.54852 28.1547 4.65597 28.1349C4.64103 28.1023 4.62747 28.0696 4.61251 28.0368ZM47.0435 22.117C46.7875 22.1373 46.9062 22.1946 46.8059 22.2224C46.4266 22.3269 46.156 22.3114 45.7789 22.396C45.8023 22.3786 45.8237 22.3624 45.8463 22.3455C45.8459 22.3455 45.8456 22.3456 45.8453 22.3456C44.0299 22.5322 45.0015 22.5661 46.0791 22.3914C46.1081 22.4148 46.1361 22.4383 46.1651 22.4615C46.6425 22.3483 47.0826 22.242 47.0435 22.117ZM25.1359 35.6993C25.1588 35.7133 24.9981 35.8442 25.3204 35.7491C25.5596 35.5574 25.1428 35.6933 25.0275 35.648C25.1146 35.6208 25.2037 35.5938 25.2898 35.5667C24.7511 35.5956 24.6784 35.6433 24.8882 35.7308C24.9031 35.7365 25.1129 35.6854 25.1359 35.6993ZM28.6471 35.2969C28.6887 35.057 28.0306 35.2524 28.0648 35.3204C28.158 35.3106 28.2248 35.2618 28.3256 35.2655C28.4273 35.2691 28.4601 35.3193 28.6471 35.2969ZM9.37997 37.8778C9.39981 37.8762 9.61089 37.9457 9.58088 37.8727C9.31161 37.7272 8.83421 37.91 8.92902 37.9605C9.09172 37.9351 9.19681 37.8933 9.38 37.8781C9.37999 37.878 9.37998 37.8779 9.37997 37.8778ZM54.2452 21.105C54.235 21.0999 53.736 21.1286 53.6772 21.1734C53.6303 21.2212 53.6102 21.2683 53.5766 21.3157C53.8432 21.2395 54.3977 21.1938 54.2442 21.1051C54.2445 21.1051 54.2449 21.1051 54.2452 21.105Z" fill="#305B91"/>
</svg>
