<svg width="64" height="34" viewBox="0 0 64 34" fill="none" xmlns="http://www.w3.org/2000/svg">
<path d="M13.1667 19.6464C12.8585 19.473 13.9482 19.8175 13.2486 19.4964C13.4039 19.5274 13.5602 19.5583 13.7154 19.5893C13.7416 19.6477 13.7689 19.7062 13.7951 19.7645C13.586 19.7253 13.3768 19.6861 13.1666 19.6466C13.1667 19.6465 13.1667 19.6465 13.1667 19.6464ZM12.729 20.178C12.953 20.0893 13.5607 20.2081 12.9476 19.913C12.884 19.9469 12.8191 19.9805 12.7554 20.0144C12.5406 19.9194 12.3245 19.824 12.1096 19.7293C12.0243 19.7263 11.939 19.7234 11.8537 19.7202C11.7723 19.6114 11.6919 19.5025 11.6106 19.3935C11.6987 19.4292 11.788 19.4655 11.8761 19.5013C12.254 19.5284 12.5796 19.5936 13.0724 19.7085C13.0345 19.6779 12.9964 19.6474 12.9585 19.6168C13.1983 19.7145 13.438 19.8122 13.6768 19.9096C13.4535 19.8861 13.2039 19.8597 12.9969 19.8382C13.2821 20.0498 13.8628 20.1244 14.1623 20.1736C14.5702 20.2406 14.4643 20.2784 14.7665 20.3296C14.8147 20.3379 14.8326 20.2913 14.9261 20.3147C15.3978 20.4334 16.3055 20.6966 15.7417 20.6695C14.9706 20.4536 14.2865 20.3716 13.5349 20.1411C13.7023 20.3229 13.2904 20.2628 12.729 20.178ZM27.0695 23.4678C26.8183 23.4696 26.3468 23.3198 26.0341 23.1919C26.0338 23.1918 26.0334 23.1917 26.033 23.1916C25.9642 23.1635 25.8245 23.0379 26.0564 23.1019C26.4343 23.2064 26.5835 23.3857 26.8059 23.3481C26.8907 23.3879 26.9804 23.4271 27.0695 23.4678ZM27.8961 23.6745C28.1205 23.7672 27.9891 23.8389 27.7047 23.7363C27.7047 23.7364 27.7046 23.7364 27.7046 23.7365C27.5859 23.6937 27.8451 23.6774 27.3882 23.6435C27.3152 23.5585 27.2422 23.4794 27.1697 23.3966C27.2768 23.4234 27.3746 23.4471 27.4868 23.4754C27.385 23.5575 27.6718 23.5819 27.8961 23.6745ZM16.1495 20.7158C16.21 20.6339 16.0565 20.5946 15.812 20.4632C16.0576 20.5303 16.3031 20.5976 16.5477 20.6644C16.4145 20.6815 16.2827 20.6987 16.1495 20.7158ZM10.3657 19.1963C10.3654 19.1962 10.365 19.1961 10.3646 19.196C10.2801 19.1895 10.1954 19.1829 10.112 19.1764C10.0723 19.1312 10.0331 19.0863 9.99333 19.0411C9.7002 18.9976 9.40552 18.9536 9.11233 18.9103C9.17292 18.8196 9.68059 18.969 9.98073 18.9726C10.3922 19.1117 10.5792 19.2222 10.5845 19.3138C10.5118 19.2748 10.4394 19.2356 10.3657 19.1963ZM57.69 15.556C57.5875 15.5588 57.4861 15.562 57.3835 15.5648C57.507 15.6104 57.6304 15.6528 57.7544 15.7006C58.1201 15.6674 58.1238 15.7819 58.5639 15.8885C59.9128 16.2149 59.6051 15.9356 60.7469 16.5245C59.7764 16.2582 60.1173 16.484 59.5044 16.4302C59.4024 16.3233 60.0283 16.3047 59.6433 16.1669C58.9433 16.07 58.2708 15.9743 57.5037 15.8298C57.5223 15.8485 57.5408 15.8673 57.5594 15.886C57.6811 15.9089 57.8018 15.9315 57.9234 15.9543C57.7854 15.9557 57.6504 15.9574 57.5102 15.9586C57.6964 15.9226 57.2627 15.857 57.3429 15.7808C57.3786 15.7468 57.5797 15.7392 57.6999 15.7292C57.4213 15.6343 57.1349 15.5392 56.853 15.4441C57.0102 15.4506 57.1673 15.457 57.3235 15.4632C57.4453 15.4938 57.5661 15.5244 57.6879 15.5551C57.6886 15.5554 57.6893 15.5557 57.69 15.556ZM3.24536 10.0982C3.24502 9.71306 3.3999 9.05363 3.59439 8.73594C3.47792 9.19032 3.36183 9.64383 3.24536 10.0982ZM10.5938 19.3906C10.5571 19.364 10.5216 19.3378 10.485 19.3112C10.673 19.3285 10.862 19.3462 11.05 19.3635C11.0725 19.4187 11.0959 19.4742 11.1195 19.5295C10.9446 19.4834 10.7686 19.4367 10.5938 19.3906ZM22.1419 22.3393C22.0093 22.3077 21.998 22.3032 21.8355 22.2539C21.8357 22.254 21.8358 22.254 21.836 22.2541C21.7715 22.2347 21.2337 22.066 21.3037 22.0462C21.5744 22.1159 21.8628 22.1916 22.1395 22.2636C22.1418 22.2892 22.1376 22.3129 22.1419 22.3393ZM18.9634 21.4903C18.963 21.4901 18.9627 21.49 18.9623 21.4898C18.8652 21.4588 18.7749 21.4235 18.6738 21.3951C19.0541 21.4342 19.0858 21.5498 19.4255 21.6077C19.7652 21.6655 19.985 21.6635 20.2312 21.8746C20.1209 21.8679 20.0004 21.8681 19.8861 21.864C19.4287 21.6862 19.2882 21.705 18.8957 21.6609C18.9184 21.6039 18.9407 21.5473 18.9634 21.4903ZM61.7905 17.7711C61.8352 17.8789 61.7422 17.9621 61.7387 17.9723C61.7387 17.9721 61.7386 17.9719 61.7386 17.9717C61.594 18.7867 61.7279 17.858 61.5213 18.6089C61.5334 18.4923 61.5441 18.3773 61.5558 18.2618C61.6334 18.0984 61.7167 17.9309 61.7905 17.7711ZM46.9918 28.8428C46.9896 28.8211 46.986 28.7989 46.9838 28.7772C47.4355 28.8996 47.5713 28.8516 47.9291 29.0206C47.6166 28.9615 47.3042 28.9023 46.9917 28.8431C46.9917 28.843 46.9917 28.8429 46.9918 28.8428ZM24.3872 23.0772C23.8752 22.9845 23.4994 22.9046 23.0327 22.719C23.0324 22.7188 23.032 22.7187 23.0317 22.7185C23.0048 22.7076 23.1501 22.7011 23.1165 22.6812C23.0154 22.6615 22.9102 22.6443 22.8077 22.6256C22.8027 22.5888 22.7984 22.5522 22.7934 22.5156C23.074 22.5987 23.3547 22.6817 23.6363 22.765C23.5995 22.7347 23.5615 22.7043 23.5246 22.6739C23.7683 22.7266 24.0111 22.7791 24.2548 22.8318C24.1568 22.8645 24.059 22.8972 23.962 22.9303C24.1036 22.9793 24.2456 23.028 24.3872 23.0772ZM54.4754 31.021C54.4014 30.9787 54.5583 30.9807 54.4395 30.9299C54.3205 30.8794 54.082 30.8604 54.1513 30.8132C54.32 30.8484 54.4974 30.8844 54.6693 30.92C54.1518 30.6678 53.5809 30.6257 53.6079 30.4875C54.123 30.6591 54.5582 30.7548 55.0755 30.8492C55.0264 30.9517 54.4946 30.913 54.7878 31.0975C54.6848 31.0722 54.5763 31.0462 54.4766 31.0211C54.4762 31.0211 54.4758 31.021 54.4754 31.021ZM2.90487 18.8361C2.59667 18.7472 1.87417 18.6063 1.49841 18.4414C1.40598 18.4008 1.13682 18.1165 1.14533 18.0904C1.17795 18.0037 1.5736 18.0937 1.16834 17.9263C1.3099 17.9624 1.44802 17.9948 1.58881 18.0297C1.57923 17.9633 1.56973 17.897 1.56114 17.831C1.38791 17.7956 1.21445 17.7602 1.04116 17.7249C1.03794 17.7029 1.03474 17.6809 1.03151 17.6589C1.64599 17.8182 1.30323 17.6474 1.64049 17.659C1.35638 17.5466 1.07003 17.4338 0.786963 17.3217C0.954581 17.37 1.1529 17.425 1.30041 17.469C1.34674 17.3726 0.985272 17.3044 0.929305 17.2698C0.61415 17.0743 2.34553 17.5819 2.52679 17.4712C2.25225 17.3823 1.96386 17.2902 1.68298 17.1998C1.76948 17.2029 1.85707 17.2062 1.94359 17.2092C2.56387 17.4794 3.27981 17.7041 4.01699 17.9637C4.08617 17.9772 4.15553 17.9906 4.22361 18.004C4.21563 17.953 4.20867 17.9024 4.20069 17.8514C4.30484 17.8727 4.41025 17.8944 4.51441 17.9157C4.17219 17.9879 4.59224 18.095 5.07464 18.3188C4.79144 18.3018 4.46748 18.1832 4.46468 18.2881C5.40908 18.4525 6.46393 18.8416 7.38573 18.9897C7.61453 19.0265 7.64698 18.8988 8.1689 19.0471C8.14743 19.0565 8.1378 19.081 8.12147 19.0964C9.0453 19.2715 9.60566 19.3782 10.533 19.686C10.4905 19.6259 10.4488 19.5659 10.4063 19.5059C10.2001 19.4767 9.99349 19.4477 9.78834 19.4187C9.67178 19.3076 9.88183 19.3265 9.28408 19.1719C8.7943 19.0452 9.07708 19.1544 8.93808 19.1422C8.74982 19.1259 8.60727 19.0245 8.40445 19.0083C8.2477 18.9956 8.39364 19.1002 8.0067 18.9827C8.18502 18.9427 8.36718 18.9008 8.5468 18.8601C8.63746 18.9031 8.72733 18.9463 8.81795 18.9895C8.71586 18.9861 8.61549 18.9827 8.51341 18.9793C8.86317 19.0288 9.19365 19.0756 9.55532 19.1267C9.4106 19.2139 9.78503 19.2645 9.98573 19.3019C10.2984 19.3602 10.0144 19.3723 10.2192 19.4112C10.424 19.4499 10.6645 19.4165 11.0233 19.5303C10.8148 19.5317 11.0678 19.6474 11.0041 19.6821C10.9402 19.7168 10.5526 19.6274 10.9087 19.776C11.6299 19.921 10.9062 19.5373 11.3939 19.6325C11.9798 19.7468 12.0394 20.0809 11.8509 20.1004C11.7025 20.1157 11.2398 19.9845 11.0904 19.9993C11.9003 20.3068 11.9541 20.1296 12.1058 20.1316C12.6569 20.1387 12.2204 20.3888 12.8657 20.4251C12.8376 20.4858 12.8134 20.5406 12.786 20.5987C12.8948 20.6146 12.9691 20.6175 13.0993 20.6415C12.7546 20.4194 13.0618 20.5049 13.2202 20.5459C13.4699 20.6104 13.1002 20.4497 13.1703 20.4512C13.3594 20.4558 13.6363 20.5481 13.4776 20.4484C13.5486 20.494 13.626 20.5414 13.6992 20.5874C13.9989 20.6315 14.7532 20.5439 14.0872 20.428C14.1737 20.3451 14.3723 20.4474 14.533 20.5052C14.6936 20.563 14.7069 20.4993 14.8485 20.5486C15.412 20.7448 15.0075 20.7544 14.8944 20.815C15.6695 20.9546 14.9354 20.7227 16.0408 20.9687C16.1646 20.9275 15.6776 20.7226 16.1093 20.7925C16.1559 20.9321 16.4439 21.0985 17.0384 21.2955C17.1043 21.2833 17.1701 21.2709 17.2359 21.2587C17.5375 21.4548 17.3389 21.5254 17.9857 21.5478C17.5921 21.7139 17.8596 21.6117 18.3802 21.8564C18.486 21.9059 18.2156 21.8913 18.3639 21.9581C18.4311 21.9883 18.6121 21.9933 18.776 22.0684C18.856 22.1053 19.2229 22.3042 19.5064 22.3288C19.3389 22.1552 19.8817 22.1858 19.4655 21.9699C20.2768 22.2075 20.8644 22.2978 19.9048 22.2256C20.1028 22.3164 20.3011 22.4072 20.4991 22.4978C20.6514 22.5064 20.8048 22.5155 20.958 22.5246C20.954 22.6304 20.9246 22.6527 21.4991 22.7834C21.2457 22.7427 20.9931 22.7027 20.7386 22.6619C20.7249 22.6799 20.6849 22.6919 20.6881 22.7137C21.0023 22.7544 21.8631 22.9606 22.0776 22.988C22.2921 23.0153 21.8931 22.9037 21.9596 22.8935C22.5129 22.8099 22.4326 22.9568 22.7994 23.0131C23.0147 23.046 22.5201 22.8923 22.6347 22.9123C23.0595 22.9867 23.2229 23.1501 23.5914 23.2475C23.4771 23.1491 23.3641 23.05 23.2531 22.9519C23.6391 23.0559 24.0702 23.1687 24.4352 23.2416C24.5784 23.2702 24.4842 23.1947 24.5081 23.1975C24.6267 23.2108 25.0989 23.3058 25.1483 23.3184C25.5193 23.4145 25.5127 23.4835 25.8721 23.5809C25.7292 23.5497 25.5948 23.5201 25.4551 23.4896C25.3643 23.5806 25.2722 23.6712 25.1813 23.7624C25.5325 23.8621 25.8839 23.9617 26.2362 24.0617C25.9866 23.9585 25.736 23.8552 25.4864 23.752C25.9137 23.7705 26.341 23.7888 26.7683 23.8072C26.9651 23.9152 27.1611 24.0231 27.358 24.1312C27.9339 24.266 27.875 24.0197 28.0972 24.2798C28.2701 24.3077 28.443 24.3356 28.6158 24.3636C28.5847 24.3844 28.5538 24.4053 28.5226 24.426C28.7303 24.4623 28.9379 24.4987 29.1457 24.5347C28.9568 24.3834 28.7733 24.2281 28.5858 24.0801C28.9914 24.1634 28.978 24.2466 29.0324 24.2824C29.1767 24.3773 29.5098 24.3866 29.6227 24.469C29.6608 24.4971 29.2546 24.4486 29.3738 24.5454C29.3971 24.5642 29.8633 24.9275 30.212 24.9623C30.2164 24.9196 30.2036 24.8625 30.2016 24.8143C30.6587 24.9066 30.8327 25.1807 30.7574 25.2252C31.0084 25.2456 31.3602 25.3334 31.4266 25.2805C31.5497 25.3108 31.6718 25.3409 31.7949 25.3712C31.6254 25.498 32.1447 25.6018 32.214 25.4729C32.0041 25.4147 31.7941 25.3563 31.5843 25.298C31.7875 25.1708 31.1736 24.9024 32.4654 25.4053C32.6974 25.5593 32.0157 25.2755 32.2062 25.3952C32.5568 25.5273 32.9037 25.5833 33.2306 25.7336C33.6373 25.9208 33.0934 25.8577 34.1125 26.0191C31.9836 25.2055 34.456 25.9329 35.5052 26.1251C35.7257 26.4391 36.5754 26.7414 37.7913 26.9813C37.684 26.882 37.2983 26.8185 37.087 26.74C36.8758 26.6615 37.1209 26.6829 36.8587 26.5813C36.5964 26.4798 36.0331 26.2879 35.7716 26.1695C36.0133 26.1919 37.181 26.4 36.3964 26.3108C36.944 26.524 37.1916 26.6611 37.8884 26.8556C38.1253 26.8058 38.1267 26.7368 38.8099 26.9113C38.3685 26.9513 39.1178 27.2538 38.9081 27.3592C38.4332 27.1984 38.7416 27.1232 38.4798 26.9807C38.453 26.9663 37.9926 26.8855 37.8884 26.8556C38.3094 27.1048 38.4541 27.1944 38.1337 27.2772C38.4591 27.3473 38.6542 27.4189 38.7029 27.3523C38.7616 27.4019 38.8207 27.4518 38.8783 27.5012C38.9833 27.5276 39.0784 27.5492 39.1892 27.5786C39.0655 27.4268 39.3439 27.5729 39.5679 27.5769C39.7918 27.5808 39.5321 27.4187 40.1112 27.5681C39.9251 27.4917 39.7546 27.4233 39.5744 27.3499C39.9551 27.4181 40.337 27.4865 40.7177 27.5547C40.4734 27.418 39.9319 27.1685 39.9708 27.0824C40.1339 27.1612 40.7383 27.2545 40.8034 27.2688C41.0553 27.3245 40.9045 27.346 40.923 27.3523C41.3079 27.4819 41.6358 27.5465 41.7622 27.6713C42.0669 27.7091 42.2833 27.789 42.5962 27.8681C42.7685 27.9116 42.7515 27.8397 42.849 27.8778C43.497 28.1319 42.8385 28.0479 44.1692 28.2279C44.0245 28.1432 43.8821 28.0581 43.7375 27.973C43.8875 27.9942 44.0368 28.0152 44.1868 28.0365C44.2822 28.0699 44.3768 28.1031 44.4722 28.1364C44.4453 28.2314 44.4178 28.3265 44.3909 28.4215C44.4965 28.4545 44.6025 28.4875 44.7081 28.5206C44.5222 28.4822 44.3358 28.4438 44.1499 28.4055C44.1288 28.418 44.1087 28.4307 44.0876 28.4432C44.3534 28.5401 44.6182 28.637 44.884 28.7342C44.8979 28.7023 44.9117 28.6702 44.9256 28.6383C45.528 28.8444 45.5353 28.8763 46.143 28.9366C46.5925 29.0546 46.9949 29.0109 47.2701 29.0201C47.3586 29.063 47.4471 29.1061 47.5366 29.1493C47.6035 29.1372 47.6711 29.1254 47.738 29.1133C47.8465 29.1825 47.9566 29.2522 48.0651 29.3213C48.1538 29.2512 48.1951 29.2328 47.7408 29.0819C47.9274 29.0146 48.7287 29.2741 49.0505 29.3967C49.2947 29.4898 48.9922 29.5078 49.0208 29.527C49.116 29.5917 49.5387 29.6672 49.6241 29.696C49.9853 29.8176 50.2443 29.8801 50.5715 29.9866C50.6351 30.0074 50.801 30.1118 50.8159 30.1176C50.9329 30.1585 51.2206 30.2632 51.254 30.2727C52.9734 30.7656 51.189 30.0357 52.7914 30.4805C52.7517 30.4351 52.7159 30.3909 52.6773 30.3458C52.7993 30.3755 52.9227 30.4055 53.0447 30.4351C53.1917 30.5026 52.9923 30.5041 53.3089 30.5434C53.2784 30.5787 53.2479 30.614 53.2164 30.6488C53.3553 30.6616 53.4892 30.6733 53.6312 30.6869C53.8086 30.883 54.5811 31.1179 54.4827 31.2683C54.4492 31.3195 53.8807 31.2331 54.1576 31.3691C54.3922 31.4427 54.2488 31.3339 54.3467 31.3556C55.0534 31.5133 54.9883 31.5966 55.281 31.646C55.3365 31.6175 55.3946 31.5888 55.4512 31.5601C55.5561 31.6 55.6613 31.64 55.7672 31.6801C55.7994 31.6596 55.8326 31.6394 55.8648 31.6189C55.7636 31.5906 55.6496 31.559 55.5567 31.5329C55.7141 31.462 56.9212 31.7258 56.4423 31.6966C56.2473 31.6846 55.9115 31.5808 56.0941 31.7604C56.4185 31.8257 56.786 31.9018 57.1271 31.9715C57.1307 32.0009 57.1335 32.0302 57.1371 32.0595C57.5951 32.1602 57.2103 31.9464 57.226 31.8896C57.3302 31.9149 57.4354 31.9408 57.5395 31.9662C57.5768 32.0034 57.6116 32.0413 57.6511 32.0783C57.666 32.0383 57.749 31.958 58.049 32.0738C58.2418 32.1486 57.9017 32.1708 58.2846 32.2551C58.2739 32.19 58.1764 32.09 58.4813 32.1398L58.3323 32.2273C58.3372 32.1972 58.3436 32.1631 58.3516 32.1247C58.4294 32.1001 58.5057 32.0581 58.5845 32.0439C58.6568 31.502 58.8223 31.2899 58.9079 30.6541C58.9623 30.2507 58.9338 29.6714 59.2581 29.486C59.3393 29.2017 59.2513 29.2757 59.2589 29.1873C59.2942 28.77 59.4941 28.5048 59.5207 28.4323C59.6904 27.9695 59.7033 27.7457 59.8618 27.3739C59.8085 27.3824 59.7602 27.3821 59.7092 27.3867C59.6887 27.7597 59.6386 27.9383 59.494 28.4313C59.5277 28.2621 59.5612 28.0928 59.595 27.9237C59.549 27.9408 59.5031 27.9577 59.4577 27.9739C59.211 29.5507 59.0624 29.1292 59.3447 27.827C59.4455 27.7346 59.5471 27.638 59.6479 27.5467C59.7325 26.774 59.9182 26.4484 60.1598 25.6125C60.1884 25.5131 60.2418 25.1378 60.2805 24.9806C60.2795 24.9831 60.2786 24.9856 60.2776 24.9882C60.2351 24.873 60.1695 24.9969 60.1047 24.9969C60.1192 24.91 60.1337 24.8231 60.1482 24.7362C60.2438 24.5586 60.2644 24.6351 60.3505 24.2591C60.2913 24.2974 60.2323 24.3351 60.1732 24.3734C60.2779 23.9641 60.3976 23.7096 60.4749 23.3234C60.4757 23.3919 60.4768 23.4596 60.4776 23.5281C60.7374 22.7114 60.8369 23.441 60.8648 22.78C60.8988 22.7463 60.9328 22.7137 60.9668 22.68C60.9055 22.9394 60.844 23.1989 60.783 23.4572C60.8151 23.4711 60.8469 23.4855 60.8793 23.4983C60.941 23.22 61.0027 22.9402 61.0644 22.6619C61.0345 22.869 61.0043 23.0774 60.9744 23.2845C61.0736 22.9689 61.1728 22.6533 61.272 22.3377C61.0607 22.6453 61.1602 22.2012 61.0169 22.2523C61.2655 21.7125 61.5148 21.3025 61.6575 20.4028C61.6857 20.2244 61.576 20.2967 61.808 19.8299C61.6415 19.9142 61.7388 19.2791 61.5894 19.3251C61.5509 19.4986 61.5084 19.6779 61.4727 19.8465C61.5667 19.6684 61.6978 19.6689 61.6593 19.9666C61.61 20.3467 61.3853 20.8612 61.5274 20.8747C61.4828 21.0198 61.4435 21.1553 61.4011 21.2964C61.3825 21.2289 61.3634 21.1626 61.3445 21.0962C61.2921 21.5156 61.2086 21.7659 61.0726 21.9387C61.1786 21.4503 61.2846 20.9631 61.3909 20.4748C61.3666 20.5445 61.342 20.6151 61.3178 20.6848C61.3259 20.2963 61.1452 20.6522 61.3041 19.9649C61.3428 19.9794 61.3818 19.9932 61.4208 20.0078C61.3788 19.7316 61.5564 19.0514 61.3773 19.2365C61.4684 19.0409 61.5031 19.0052 61.4673 18.8716C61.7015 18.3538 61.9098 18.0363 62.0002 18.2658C62.03 18.0587 62.0597 17.8514 62.0891 17.6453C62.0204 17.7517 61.9518 17.8582 61.8831 17.9645C61.9766 17.615 62.0707 17.2629 62.1637 16.9143C62.2862 16.9104 62.0229 17.5973 62.1777 17.4196C62.2087 17.3841 62.214 17.1843 62.2384 17.1378C62.4986 16.648 62.1955 17.4442 62.3309 17.3151C62.4938 16.7737 62.5411 16.9409 62.605 16.7039L62.6305 16.6002L62.5295 16.5754C62.4293 16.5483 62.2569 16.5184 61.9281 16.4754C61.9084 16.4352 61.8867 16.3938 61.869 16.3543C61.4975 16.2556 61.5084 16.3377 61.185 16.2685C60.9826 16.2252 60.7651 16.0295 60.5209 16.0607C60.4772 16.0668 60.8078 16.3228 60.0279 16.1125C59.4226 15.9492 59.7044 15.9024 59.3868 15.7772C59.069 15.652 58.2777 15.6128 58.1025 15.3784C58.2683 15.4465 58.4839 15.5161 58.6697 15.5849C58.7562 15.5706 58.8406 15.5562 58.9261 15.5419C58.4783 15.4729 58.0412 15.3032 57.7262 15.309C57.177 15.0321 56.496 14.9793 56.6352 15.167C56.8321 15.1964 56.6398 15.0803 56.8955 15.1889C56.9142 15.2291 56.9344 15.2694 56.953 15.3096C56.5012 15.1878 56.1864 15.1069 56.4191 15.0598C56.3495 15.0392 56.2805 15.0187 56.2109 14.998C56.1794 15.0676 56.1492 15.1379 56.1176 15.2076C56.0316 15.194 55.9453 15.1802 55.8593 15.1666C55.7702 15.1263 55.6809 15.0858 55.5909 15.0451C55.7477 14.9627 55.9648 15.0151 55.2665 14.7646C55.2541 14.8039 55.2407 14.8428 55.2282 14.8821C54.6428 14.6758 54.6521 14.5751 53.8996 14.3832C54.5122 14.3948 54.7639 14.7222 54.834 14.444C54.9739 14.4998 55.115 14.5562 55.2549 14.6121C55.2874 14.5776 55.3197 14.5429 55.3512 14.5081C54.5688 14.3273 53.2095 14.2565 52.7351 13.9456C52.6666 13.9507 52.5987 13.9529 52.5287 13.9593C52.0468 13.7208 51.7649 13.9015 51.2836 13.63C51.234 13.6018 51.4038 13.4073 50.7289 13.2403C50.7381 13.2737 50.7341 13.3249 50.7382 13.365C50.5971 13.3093 50.4571 13.253 50.3172 13.1971C50.284 13.2172 50.2495 13.2368 50.2163 13.2571C50.4621 13.3321 50.7071 13.4071 50.9529 13.4822C50.744 13.4377 50.5338 13.3929 50.325 13.3484C50.5829 13.4623 50.7043 13.4944 50.5236 13.5224C50.2888 13.4658 50.0535 13.4094 49.8186 13.3528C49.7898 13.3645 49.7612 13.3765 49.7324 13.3882C49.8317 13.4714 49.9324 13.5536 50.0314 13.6375C49.4337 13.4353 48.9048 13.2951 48.4647 13.068C48.3896 13.0294 48.6896 13.0328 48.1303 12.9546C48.1315 12.9154 48.1248 12.8815 48.1242 12.8448C47.4326 12.7757 47.2223 12.688 46.5487 12.4328C46.9793 12.6194 46.5907 12.4698 46.4667 12.4775C46.3817 12.483 46.6883 12.5587 46.6467 12.5767C46.6051 12.5945 46.1798 12.5996 46.516 12.701C47.4062 12.6953 47.5639 13.0199 48.661 13.1913C48.489 13.1771 48.3157 13.1627 48.1437 13.1486C48.2161 13.1881 48.281 13.2238 48.3594 13.2662C47.7743 13.0676 48.057 13.1713 47.803 13.1418C47.5488 13.1123 47.0954 13.0254 46.7941 12.9571C46.6992 12.9356 46.8114 12.9116 46.6002 12.8517C46.4564 12.8108 46.0418 12.7819 45.9732 12.671C45.9282 12.5988 46.6039 12.6079 45.7256 12.3799C45.5748 12.2813 45.9913 12.4081 46.0021 12.4038C46.0959 12.3576 45.5689 12.1674 45.3062 12.153C45.2849 12.1521 45.4685 12.2549 45.249 12.2193C44.728 12.1354 44.4497 11.9999 44.1413 11.8344C44.0812 11.9188 43.6242 11.9195 43.1006 11.7463C43.0664 11.7661 43.0334 11.7864 42.9991 11.8063C43.0855 11.8136 43.1718 11.8211 43.2582 11.8284C43.344 11.8687 43.4363 11.9058 43.5192 11.9485C42.9776 11.8323 42.8683 11.9418 42.5991 11.9222C41.6782 11.8551 42.2997 11.6521 42.4736 11.6344C42.5817 11.688 42.6852 11.7434 42.792 11.7978C42.7879 11.7619 42.7837 11.7257 42.7807 11.6898C41.4647 11.3486 42.6354 11.4258 41.9834 11.1914C41.7697 11.3073 41.2752 11.1952 40.6769 10.9308C40.6074 10.9136 40.538 10.8957 40.4685 10.8787C40.4509 10.8991 40.4418 10.935 40.4189 10.9455C39.6591 10.777 39.5893 10.4947 39.5241 10.4527C39.2346 10.2664 38.9506 10.3461 38.857 10.3231C38.4625 10.2258 38.3649 10.1323 37.9835 10.0624C37.5733 9.9873 37.8358 10.1079 37.7019 10.1199C37.5946 10.1292 37.2755 10.0528 37.1349 10.0548C37.1947 10.0388 37.2601 10.0249 37.3198 10.0088C36.9131 9.86003 36.5824 9.73211 36.1111 9.59907C35.5203 9.67607 35.1602 9.19328 35.2678 9.53686C35.7112 9.67381 35.9534 9.77275 36.1739 9.91052C35.8768 9.84352 35.5796 9.77622 35.2826 9.70922C35.2051 9.65442 35.1523 9.60694 35.0592 9.54745C34.8212 9.55909 34.3186 9.39679 34.113 9.3649C33.15 9.21559 33.4097 9.4086 32.6046 8.98833C33.2269 9.12965 33.2509 9.03347 33.8596 9.20593C33.7454 9.10306 33.4306 9.03634 33.6532 9.00656C33.0557 8.87274 33.2281 8.99587 32.9806 9.00101C32.7672 9.00542 32.366 8.90443 32.3697 8.98324C32.3392 8.93249 32.3176 8.88544 32.2872 8.83478C31.9035 8.7354 31.5198 8.63564 31.1361 8.53626C31.3105 8.53693 31.4849 8.53751 31.6592 8.53838C31.5398 8.49043 31.4201 8.44248 31.3006 8.39452C30.3232 8.27931 28.7581 7.61747 28.933 8.01217C28.4753 7.90425 28.429 7.84842 28.1978 7.72219C28.164 7.73993 28.1322 7.75369 28.0977 7.77424C27.811 7.67191 27.5615 7.70654 27.3088 7.61497C27.0562 7.52358 27.0148 7.4188 26.9386 7.55701C26.7819 7.47092 26.6243 7.39228 26.4679 7.30947C26.3586 7.31694 26.2495 7.32404 26.1413 7.33159C25.9886 7.27306 25.8356 7.21452 25.6829 7.15599C25.5805 7.20479 24.9701 7.01351 24.6852 6.99007C24.4462 6.8466 24.5157 6.60864 23.8958 6.49328C23.896 6.55685 23.8961 6.62018 23.8964 6.68375C23.7602 6.63507 23.6237 6.58636 23.4865 6.53741C23.4831 6.51581 23.4809 6.49451 23.4776 6.47292C23.5473 6.49747 23.6161 6.52173 23.6857 6.54648C23.6324 6.49753 23.5803 6.44908 23.5281 6.40041C23.3026 6.39373 23.0769 6.38699 22.8504 6.38004C23.129 6.49186 23.4078 6.60373 23.6865 6.71556C23.3134 6.66515 23.073 6.55611 22.7458 6.52298C22.4936 6.3697 22.6069 6.34866 22.7412 6.28845C22.6375 6.26961 22.5328 6.25021 22.4291 6.23138C22.5194 6.15969 22.3613 6.06186 22.9537 6.22365C22.9194 6.1876 22.8841 6.15252 22.8511 6.11574C22.7526 6.09439 22.695 6.05646 22.5855 6.03846C22.2871 5.98949 22.0229 6.08792 22.0285 6.14799C22.0318 6.17953 22.3335 6.1993 22.3114 6.23694C22.2572 6.32867 21.6095 6.1127 22.5344 6.45955C22.2025 6.44057 22.1443 6.37465 21.801 6.26589C21.8197 6.30601 21.8376 6.34571 21.8552 6.38555C21.6978 6.32836 21.5401 6.27116 21.3827 6.21396C21.6511 6.10265 20.4777 5.72942 21.5876 5.85962C21.273 5.76967 20.9595 5.67997 20.6461 5.58989C20.7156 5.58937 20.7851 5.58903 20.8546 5.58851C20.9948 5.6348 21.1341 5.68072 21.2743 5.72682C21.1149 5.65136 20.9552 5.57602 20.7958 5.50056C20.3892 5.43695 20.2181 5.45724 20.0172 5.48498C20.4642 5.6596 20.3329 5.54574 20.6962 5.62436C20.6713 5.66854 20.6765 5.7165 20.6321 5.75818C20.472 5.6116 19.8477 5.52555 19.7059 5.49382C19.2746 5.39722 19.635 5.38786 19.3496 5.31145C19.0639 5.235 18.7113 5.20467 18.5024 5.04811C18.4927 5.10286 18.4969 5.16326 18.501 5.21649C18.0508 5.11822 18.1562 5.07794 18.1122 5.05773C17.4113 4.73129 16.9823 4.7414 16.1369 4.53625C16.2395 4.58069 16.3436 4.62379 16.4475 4.6675C15.7827 4.61625 16.2197 4.69265 16.7613 4.87373C16.2474 4.72787 15.9262 4.74793 15.5538 4.68188C15.1815 4.61579 14.5689 4.40323 14.3503 4.30491C14.8897 4.37848 15.4433 4.56646 16.0286 4.7003C15.9768 4.62846 15.9246 4.56549 15.8721 4.4877C15.489 4.51057 15.3043 4.3806 15.1919 4.33511C14.8618 4.20158 14.8469 4.30286 14.6679 4.14322C14.6669 4.18184 14.665 4.21408 14.6646 4.2503C13.963 4.05156 13.2187 3.78919 12.7245 3.80433C12.7053 3.70589 12.6956 3.61333 12.6706 3.51146C12.3547 3.49964 12.1164 3.36562 11.8608 3.31559C11.6062 3.26584 11.6832 3.36139 11.3816 3.31202C11.3257 3.30285 11.2237 3.22904 11.081 3.22679C10.937 3.22437 10.3737 3.33845 10.3694 3.10969C10.1171 3.04298 9.87999 2.973 9.63352 2.90504C9.87776 2.95573 10.122 3.00683 10.3652 3.05725C10.1732 2.95214 9.98238 2.84751 9.79035 2.74239C9.75216 2.78165 9.71367 2.82172 9.67668 2.86064C9.10854 2.77275 8.72642 2.59294 8.16299 2.46542C8.06891 2.44416 8.26534 2.59251 7.85739 2.46161C7.44933 2.33067 7.18624 2.08072 6.46367 1.9629C6.42714 1.95703 6.18435 2.0329 5.95513 1.87704C5.90294 1.84165 6.1528 1.87437 6.0278 1.8132C5.90268 1.752 5.31901 1.57662 5.2895 1.50072C5.2899 1.52499 5.32058 1.558 5.33242 1.58567C5.22899 1.57031 5.12453 1.5547 5.0201 1.53887C5.02104 1.49656 5.02124 1.45399 5.02212 1.41188C4.98975 1.40878 4.95815 1.40606 4.9272 1.40364L4.64305 1.33373L4.57496 1.61046C4.53232 2.15616 4.58427 2.50213 4.32584 3.3013C4.44644 3.07524 4.56729 2.84914 4.68762 2.62414C4.66413 2.54751 4.64041 2.47069 4.61665 2.39511C4.68933 2.15634 4.76208 1.91715 4.83481 1.67805L4.8396 1.65856L4.85961 1.66348C5.01202 1.70984 5.16438 1.75619 5.31658 1.80252C5.39362 1.77316 5.46948 1.74362 5.54652 1.71426C5.64977 1.74753 5.75205 1.78035 5.85531 1.81362C5.8204 1.84025 5.78532 1.86665 5.74936 1.89301C5.95903 1.93878 6.16901 1.98445 6.37764 2.02994C5.90589 2.11805 5.20802 1.7078 5.21942 1.88711C5.13283 1.83722 5.04615 1.78713 4.95961 1.73705C4.93605 1.76355 4.89474 1.7694 4.83426 1.76096L4.93229 1.7034C4.91862 1.80141 4.86745 1.94975 4.80588 2.15444C4.86525 2.08817 4.92615 2.01377 4.98429 1.9539C4.84407 2.26443 4.69953 2.84235 4.59056 3.17331C4.54271 3.31867 4.52304 3.15593 4.50478 3.19812C4.41049 3.41426 4.39975 3.87145 4.36829 3.95953C4.18045 4.48599 3.89728 4.7862 3.8709 5.40728C4.06004 4.80837 3.96095 5.13518 4.08744 4.93749C4.12707 4.87562 4.37703 4.10335 4.10119 5.08005C4.06868 5.19452 3.47251 6.94185 3.52316 6.32967C3.48062 6.62643 3.45943 6.86193 3.42516 7.13509C2.98916 7.71121 3.29908 7.55319 3.48652 7.40157C3.45958 7.50762 3.43478 7.60872 3.40642 7.71776C3.32106 7.44818 3.00498 8.62627 2.97433 9.04589C2.96387 9.18644 3.10808 8.82334 3.0494 9.13938C3.00076 9.28449 2.94393 9.44869 2.89191 9.60186C3.04294 9.39938 2.96286 9.85303 3.05822 9.87118C2.9008 10.1336 2.66723 10.3048 2.61188 10.1237C2.58967 10.3686 2.56708 10.6148 2.54507 10.8597C2.59566 10.7565 2.64643 10.6517 2.69702 10.5485C2.43852 11.3006 2.31587 12.3223 2.07723 12.4315C2.05219 12.5335 2.02667 12.6366 2.00162 12.7387C2.02669 12.7788 2.0521 12.8178 2.07717 12.8579C1.92865 13.3106 1.7802 13.7621 1.63168 14.2148C1.71761 13.7997 1.69565 13.6899 1.84584 13.2702C1.76453 13.4258 1.68221 13.5845 1.60171 13.737C1.53643 14.4106 1.58114 14.5165 1.29718 15.4824C1.28433 15.5261 1.00658 16.2395 0.991624 16.2625C0.923183 16.3678 0.912826 16.1782 0.880041 16.2245C0.788468 16.3529 0.426301 17.1838 0.410031 17.1616C0.211911 16.884 0.966769 13.968 1.15881 13.1762C2.11328 9.24098 3.12947 5.36595 4.15822 1.50207L4.32781 0.812751L5.03559 0.98689C9.23559 2.10513 13.4224 3.2382 17.6591 4.323C17.7428 4.34425 17.716 4.29738 17.7521 4.30505C17.9757 4.35318 18.1777 4.46793 18.2589 4.4916C18.4323 4.542 18.3501 4.46315 18.4777 4.49632C19.7965 4.83996 21.0329 5.19533 22.3552 5.52943C22.4414 5.55119 22.3424 5.57143 22.4953 5.60308C22.5743 5.61918 22.8355 5.61657 23.0117 5.66132C23.6269 5.81771 24.1374 5.97312 24.7856 6.14063C25.1401 6.23221 25.6703 6.37609 26.0668 6.47815C26.2419 6.52324 26.432 6.54043 26.6052 6.58439C26.8509 6.6468 26.7849 6.69504 26.8216 6.70866C26.9829 6.76837 27.0234 6.70708 27.1802 6.74958C27.4719 6.82887 27.4759 6.87786 27.8481 6.97059C28.114 7.03677 28.7303 7.15922 29.0675 7.23579C29.8361 7.4913 30.827 7.72696 31.5612 7.89953C31.9957 8.00165 32.0194 8.07493 32.1956 8.12054C32.8165 8.28074 33.3083 8.32294 33.8919 8.47194C34.6663 8.66974 35.338 8.90114 36.0865 9.09988C36.2079 9.13209 36.1949 9.06723 36.3146 9.09677C36.7573 9.20616 37.3245 9.34249 37.7155 9.45296C38.1513 9.57595 38.2912 9.70159 38.7244 9.79609C38.8514 9.82373 38.9073 9.76 39.1204 9.80538C39.4608 9.87811 39.8129 10.0387 40.0459 10.107C40.3652 10.2003 40.1048 10.0529 40.5362 10.1758C40.5539 10.1808 40.605 10.2511 40.6989 10.2728C40.9723 10.3362 40.9563 10.2872 41.3526 10.3945C41.3905 10.405 41.9042 10.5929 41.9565 10.6067C42.2645 10.6877 42.8804 10.8669 43.0657 10.9036C43.7278 11.0347 43.2353 10.8209 43.7446 11.1394C43.9999 11.1603 44.2534 11.18 44.523 11.2059C44.3402 11.1996 45.0269 11.4378 45.0771 11.447C45.4922 11.524 45.2671 11.393 45.781 11.5386C45.0577 11.5178 46.4425 11.7323 46.7444 11.8065C48.1983 12.1639 49.5051 12.5456 50.9616 12.9233C51.4492 13.0497 52.1111 13.1865 52.6267 13.3215C52.7469 13.3528 52.6464 13.3662 52.752 13.3945C52.8574 13.4226 52.7511 13.3505 52.871 13.384C53.6169 13.5934 54.1838 13.8247 54.896 13.9051C54.9257 13.928 54.9217 13.939 54.973 13.969C55.5579 14.0272 56.6093 14.4269 57.0119 14.5489C57.6416 14.7397 57.8196 14.7225 58.2786 14.8547C58.8857 15.0297 59.7732 15.3845 59.4132 15.0862C59.8341 15.1893 60.2381 15.2926 60.657 15.4206C60.7036 15.4349 60.6585 15.4751 60.6771 15.4811C60.7947 15.5191 60.845 15.4856 60.9262 15.5046C61.1465 15.5562 60.7757 15.5155 61.0916 15.5821C61.2582 15.6171 61.3616 15.6033 61.8189 15.7214C62.1078 15.7961 62.3992 15.8716 62.6927 15.9479L63.4149 16.1256L63.2325 16.8671C62.5811 19.3741 61.8772 22.0331 61.2139 24.56C61.163 24.7539 61.2433 24.6385 61.1771 24.8809C60.9468 25.7232 60.4741 27.2151 60.2954 27.9466C60.1167 28.678 60.2284 28.5316 60.1387 28.995C60.1214 29.0845 60.1009 29.0021 60.0795 29.0816C59.9366 29.6164 59.7092 30.2392 59.5871 30.6709C59.5063 30.9563 59.574 30.9494 59.5267 31.1496C59.4559 31.448 59.3141 31.7371 59.2709 31.8949C59.2183 32.0876 59.1738 32.2656 59.1332 32.4356L58.9669 33.1114L58.273 32.9407C57.7881 32.8247 57.3682 32.7396 56.8586 32.5868C56.8822 32.6075 56.8969 32.6247 56.9164 32.6441C56.0941 32.4279 55.2728 32.2119 54.4504 31.9956C54.486 32.0181 54.5202 32.0404 54.5557 32.0631C53.592 31.8052 53.7371 31.6992 53.7481 32.0056C53.6753 31.9973 53.5978 31.9896 53.5284 31.9813C53.5937 31.842 53.0375 31.5829 52.3039 31.3523C52.2501 31.3354 51.8472 31.383 51.9309 31.2247C51.8248 31.2411 51.7605 31.2548 51.6704 31.27C51.5265 31.1781 51.3802 31.0862 51.2363 30.9944C51.1494 30.98 51.0614 30.9649 50.9745 30.9504C50.9533 30.9802 50.9541 31.0171 50.9184 31.0424C50.5229 30.9449 49.7251 30.6938 49.4126 30.617C48.636 30.4263 47.8251 30.3108 47.2484 30.0577C46.9527 29.9913 47.2269 30.1319 46.7931 30.0103C46.7524 29.9646 46.7142 29.9211 46.6717 29.8739C46.2772 29.928 46.226 29.8194 45.7457 29.6617C45.4209 29.555 45.1953 29.5346 44.8826 29.4458C44.8034 29.4233 44.8259 29.3831 44.771 29.3704C44.5873 29.3273 44.0509 29.2511 43.9216 29.2192C42.7497 28.931 41.7481 28.6634 40.6399 28.3583C40.5208 28.3256 40.6647 28.4084 40.5415 28.3744C40.3432 28.3198 40.4773 28.285 40.3628 28.2518C40.0434 28.1596 40.0231 28.2278 39.5735 28.1147C38.0933 27.7423 36.4084 27.2489 34.8664 26.8429C34.8181 26.8303 34.8105 26.8714 34.758 26.8582C34.4158 26.7713 34.0841 26.6268 33.7737 26.5467C33.2587 26.4136 32.8571 26.3697 32.3486 26.2372C31.3548 25.9785 30.4743 25.7185 29.4526 25.451C28.6163 25.232 27.8883 25.0484 26.971 24.8096C22.9641 23.7666 18.8419 22.8312 14.8253 21.7137C14.7231 21.6852 14.7741 21.6604 14.7424 21.6538C14.4407 21.5918 14.4016 21.633 14.3219 21.5047C13.9374 21.4259 13.7981 21.4705 13.3414 21.3459C13.098 21.2796 13.3108 21.2097 12.882 21.1628C12.4949 21.1205 12.8897 21.2918 11.7977 20.9376C11.7688 20.9282 11.6429 20.8191 11.4075 20.7777C11.171 20.7359 11.4258 20.8569 10.8641 20.7272C9.54527 20.4227 7.90392 19.9298 6.37672 19.5529C6.281 19.5293 5.35223 19.3285 5.16628 19.299C4.80637 19.2419 4.86588 19.3141 4.40659 19.2086C4.05172 19.127 3.77672 18.9912 3.35947 18.8955C3.31084 18.8844 3.21396 18.9253 2.90487 18.8361ZM56.1386 15.2806C56.0368 15.319 55.8235 15.5022 55.3214 15.299C55.2738 15.2798 55.5798 15.1952 55.299 15.096C55.5842 15.1529 55.8592 15.2188 56.1387 15.2804C56.1386 15.2805 56.1386 15.2805 56.1386 15.2806ZM1.0225 16.8243C1.40854 16.9367 1.79596 17.0493 2.182 17.1617C1.90657 17.119 1.63078 17.0761 1.35634 17.0338C1.2447 16.9639 1.13414 16.8942 1.0225 16.8243ZM49.4146 29.5244C49.4142 29.5243 49.4138 29.5242 49.4135 29.5241C49.8299 29.6016 50.2465 29.6791 50.6629 29.7566C50.6144 29.7666 50.5657 29.7768 50.5172 29.7868C50.1857 29.7363 49.854 29.6857 49.5235 29.6354C49.4872 29.5984 49.4508 29.5614 49.4146 29.5244ZM46.1258 28.909C45.8713 28.8158 45.9462 28.7899 45.8134 28.711C45.8134 28.7111 45.8133 28.7112 45.8133 28.7113C45.7782 28.6906 45.6041 28.6353 45.5363 28.6159C45.5545 28.6491 45.5802 28.6838 45.6006 28.7174C44.9747 28.6234 43.8431 28.0844 45.4093 28.3932C45.3775 28.4208 45.3468 28.4486 45.3149 28.4762C46.0838 28.6661 46.9192 28.9613 46.1258 28.909ZM49.951 13.7747C49.2682 13.7147 49.0523 13.6833 48.2783 13.4014C48.3986 13.3993 48.5188 13.3973 48.639 13.3952C48.7618 13.4611 48.8837 13.5266 49.0064 13.5925C49.0068 13.5926 49.0072 13.5927 49.0075 13.5928C49.0425 13.5662 49.0775 13.5395 49.1113 13.5126C49.3908 13.5999 49.6715 13.6874 49.951 13.7747ZM21.1036 22.3158C20.9785 22.0483 20.9978 22.1899 21.5315 22.2757C21.7164 22.3054 21.5506 22.2212 21.6645 22.244C22.2794 22.3665 22.2895 22.5265 22.1343 22.5681C21.7901 22.4841 21.4425 22.3988 21.1047 22.316C21.1043 22.316 21.104 22.3159 21.1036 22.3158ZM5.37398 18.2733C5.3736 18.2732 5.37324 18.2732 5.37286 18.2731C5.37111 18.2153 5.61907 18.2644 5.35687 18.1419C5.56637 18.1966 5.77578 18.2515 5.98631 18.3065C5.92324 18.2954 5.85893 18.2838 5.79586 18.2727C5.84558 18.3053 5.8954 18.3382 5.94512 18.3708C6.0356 18.3285 6.09543 18.3823 6.31018 18.4602C6.26651 18.3785 6.22315 18.2968 6.17948 18.2151C6.43014 18.3012 6.6817 18.3877 6.93236 18.4738C6.93118 18.4913 6.93007 18.5087 6.92888 18.5262C7.03083 18.53 7.13185 18.5334 7.23379 18.5372C7.25484 18.5639 7.27498 18.5901 7.29603 18.6167C7.41626 18.632 7.53669 18.6473 7.65698 18.6623C7.6799 18.7196 7.41809 18.6736 7.87579 18.7796C7.72356 18.7927 7.57165 18.8056 7.41837 18.8183C6.73691 18.6368 6.0554 18.4551 5.37398 18.2733ZM25.8595 23.4805C25.1054 23.2942 25.3262 23.3144 25.5285 23.2507C25.6384 23.3272 25.7496 23.404 25.8595 23.4805ZM59.8428 26.1468C59.8252 25.9094 59.8086 25.6713 59.795 25.4293C59.8691 24.974 60.1203 24.5645 60.0864 24.9128C60.0453 25.3319 59.8647 25.7338 59.8428 26.1468ZM61.8392 16.7372C62.3741 16.9131 61.8394 16.8683 61.7033 16.8879C61.5744 16.766 61.3627 16.7188 61.0282 16.6215C61.346 16.6984 61.7507 16.708 61.8392 16.737C61.8392 16.737 61.8392 16.7371 61.8392 16.7372ZM55.831 31.2904C55.6125 31.2359 55.3903 31.2003 55.2019 31.1243C55.2792 31.0686 55.6522 31.2346 55.4008 31.0568C55.5407 31.0912 55.6807 31.1258 55.8196 31.1598C55.7203 31.1805 55.8301 31.2439 55.8305 31.29C55.8307 31.2901 55.8308 31.2902 55.831 31.2904ZM33.1644 25.291C33.5703 25.4864 33.6607 25.4715 34.1068 25.5253C34.1497 25.6096 33.606 25.5907 33.2776 25.5323C33.2403 25.452 33.2028 25.3716 33.1644 25.291ZM4.51708 4.33644C4.45648 4.21101 4.64218 3.45031 4.76592 3.08054C4.76721 3.12873 4.76863 3.17713 4.77012 3.22538C4.6859 3.59525 4.60131 3.96657 4.51708 4.33644ZM60.8694 16.5739C60.9251 16.5911 60.9781 16.6069 61.0282 16.6215C60.9719 16.6079 60.9181 16.5923 60.8694 16.5739ZM38.1934 10.2713C38.394 10.2356 37.8685 10.0694 38.5069 10.2699C38.5069 10.2698 38.507 10.2697 38.507 10.2696C38.9292 10.4021 39.0222 10.4324 39.4168 10.5419C39.2466 10.6105 38.4328 10.4392 39.5353 10.7492C39.5498 10.7531 39.5372 10.6826 39.7119 10.7373C39.7659 10.7542 39.9274 10.8513 40.1895 10.9355C40.2742 10.9627 40.9161 11.1467 40.0352 10.9186C40.0422 10.9992 39.9755 11.0615 39.959 11.1335C39.6099 11.0649 39.3832 10.8518 39.0187 10.7608C38.4773 10.626 38.1646 10.7005 38.1106 10.482C38.5768 10.553 39.3567 10.7547 39.4284 10.8963C39.8673 11.0119 40.018 10.9504 39.6759 10.8116C38.1434 10.4763 39.2959 10.5632 37.948 10.293C37.9253 10.3155 37.8632 10.33 37.8651 10.3572C37.484 10.158 38.1218 10.2841 38.1934 10.2713ZM41.3127 11.3001C41.0359 11.2882 40.7599 11.277 40.4842 11.2656C40.5081 11.1738 40.6734 11.1289 41.0999 11.1847C41.1705 11.2231 41.2421 11.2618 41.3127 11.3001ZM19.2581 5.58949C19.2074 5.62955 19.0949 5.64909 19.0092 5.67748C18.9405 5.61469 17.0637 5.08348 18.0346 5.29193C18.1756 5.32219 19.0032 5.63161 19.2581 5.58949ZM30.1748 24.5937C30.3884 24.6849 30.601 24.776 30.8136 24.867C30.4675 24.7997 30.121 24.7328 29.7749 24.6659C29.9085 24.6419 30.0412 24.6176 30.1748 24.5937ZM60.8714 22.5515C60.8451 22.6449 60.8576 22.3152 60.7723 22.6879C60.8001 22.4008 60.8301 22.1329 60.8589 21.8527C60.9124 21.7804 60.9659 21.7073 61.0194 21.635C61.0149 21.5666 61.0109 21.4971 61.0064 21.4288C61.0439 21.4788 61.0813 21.5244 61.119 21.5768C60.8996 22.0044 60.9874 22.1384 60.8714 22.5515ZM54.6104 31.3529C54.5555 31.2289 55.2288 31.3388 54.5863 31.1542C54.7266 31.1186 54.933 31.1345 55.313 31.2269C55.3671 31.2685 55.421 31.3099 55.4751 31.3515C55.5014 31.2846 55.6055 31.2843 55.831 31.2904C55.8312 31.2905 55.8313 31.2906 55.8315 31.2907C56.4082 31.4354 56.3678 31.4495 56.4766 31.599C55.8842 31.3765 55.839 31.4755 55.4077 31.4292C55.1116 31.3975 54.7443 31.2815 54.6104 31.3529ZM21.2692 6.1113C20.8159 6.08599 21.1814 6.26743 20.4411 5.97651C20.4961 5.9673 20.5513 5.95832 20.6063 5.9491C20.8273 6.00295 21.0483 6.05705 21.2692 6.1113ZM52.5762 30.4478C52.5841 30.6197 52.9574 30.849 53.094 30.6082C52.7124 30.4527 52.8673 30.6495 52.5762 30.4478ZM62.0894 16.5364C62.286 16.5896 62.4188 16.6385 62.5018 16.682C62.3973 16.8692 62.3257 16.7933 62.2992 16.6244L62.45 16.8812C62.4113 16.8873 62.3677 16.891 62.3214 16.8921C62.2817 16.8469 62.242 16.8017 62.2033 16.757C62.0662 16.7372 61.9292 16.7174 61.7923 16.6974C61.8913 16.6438 61.9904 16.59 62.0894 16.5364ZM39.1316 27.1375C39.742 27.175 38.521 26.9112 38.9452 26.9458C39.2839 26.9734 39.6811 27.1989 39.501 27.2286C39.3883 27.2014 39.263 27.1704 39.1327 27.1378C39.1323 27.1377 39.132 27.1376 39.1316 27.1375ZM42.5011 27.9792C42.4373 27.833 42.5656 27.9042 42.101 27.8066C41.9684 27.7788 40.9388 27.4623 41.3499 27.6766C41.722 27.7734 42.1147 27.8774 42.5011 27.9792ZM53.2578 14.4289C53.2645 14.3742 54.0966 14.4668 54.192 14.5226C54.192 14.5225 54.192 14.5224 54.1921 14.5223C54.4493 14.6737 53.6005 14.4649 53.9392 14.6689C53.1515 14.3621 52.8484 14.5299 52.9842 14.2402C53.4663 14.3513 53.2233 14.3552 53.2578 14.4289ZM1.68053 14.2209C1.68044 14.2213 1.68034 14.2217 1.68024 14.2221C1.69673 14.1689 1.8897 13.7453 1.90253 13.8063C1.74072 14.3339 1.71439 14.2255 1.66908 14.7441C1.63498 14.7643 1.6027 14.7808 1.56785 14.803C1.60309 14.6018 1.59905 14.4841 1.68053 14.2209ZM17.2455 4.95225C17.4452 4.98942 17.788 5.13975 18.0122 5.19443C17.2442 5.22949 16.4481 4.80346 17.2455 4.95225ZM12.7272 20.1778C12.7278 20.1779 12.7284 20.178 12.729 20.178C12.7288 20.1781 12.7285 20.1782 12.7283 20.1782C12.728 20.1781 12.7276 20.178 12.7272 20.1778ZM32.4037 9.03574C32.3822 9.01488 32.3711 8.99877 32.3688 8.98654C32.3691 8.98552 32.3693 8.9845 32.3696 8.98347C32.3798 9.00039 32.3908 9.0177 32.4037 9.03574ZM51.5871 14.0114C51.2723 13.8508 52.4155 14.0231 52.768 14.1446C52.7341 14.1717 52.7223 14.2012 52.6536 14.2246C52.3858 14.0619 51.6394 14.0383 51.5871 14.0114ZM58.5973 31.1387C58.8281 30.2596 58.8213 31.4801 58.5769 31.4669C58.5729 31.4639 58.5918 31.1616 58.5973 31.1387ZM58.5317 15.7851C58.7787 15.7553 58.3345 15.6148 59.0507 15.8173C59.0866 15.851 59.1226 15.8848 59.1585 15.9185C58.9497 15.874 58.7406 15.8296 58.5317 15.7851ZM60.4781 25.4757C60.717 24.3559 60.9058 23.2746 60.4753 23.9325C60.4613 24.0183 60.4467 24.1052 60.4327 24.191C60.548 24.2344 60.4029 24.5268 60.2813 24.9784C60.3116 25.0551 60.2572 25.3089 60.2849 25.3664C60.3386 25.4776 60.4679 25.2034 60.4781 25.4757ZM18.5433 21.9359C18.5663 21.9203 18.5891 21.9045 18.6121 21.8891C18.7931 21.9118 18.9746 21.9347 19.1556 21.9574C19.1172 21.9889 19.0788 22.0203 19.0404 22.0518C18.8748 22.0132 18.7099 21.9749 18.5443 21.9363C18.544 21.9361 18.5436 21.936 18.5433 21.9359ZM42.4566 11.3306C42.2981 11.5271 42.6602 11.5775 43.4023 11.6504C43.0875 11.5439 42.7714 11.4371 42.4566 11.3306ZM47.4664 29.5683C47.4598 29.499 47.4535 29.4301 47.4458 29.3605C47.0502 29.328 47.1017 29.4187 47.2613 29.5496C47.3301 29.556 47.3976 29.5619 47.4664 29.5683ZM42.0076 28.1772C42.1612 28.2313 42.0944 28.1594 42.1105 28.1647C42.5009 28.2948 42.5508 28.3328 43.0483 28.4212C43.1115 28.4233 43.1739 28.4245 43.2373 28.4262C43.0464 28.235 42.8639 28.2647 42.4072 28.0627C42.4814 28.1306 42.5552 28.1984 42.6292 28.2664C42.3666 28.1878 42.1049 28.1096 41.8422 28.0311C41.8071 28.0369 41.772 28.0426 41.7369 28.0484C41.8266 28.091 41.9186 28.1366 42.0076 28.1772ZM16.5335 21.3517C16.277 21.2794 16.0193 21.2066 15.7627 21.1343C15.7448 21.1645 15.7272 21.1951 15.7093 21.2252C15.9837 21.2673 16.2591 21.3096 16.5335 21.3517ZM37.1349 10.0548C37.1114 10.061 37.0885 10.0675 37.0677 10.0748C37.0731 10.0608 37.0984 10.0553 37.1349 10.0548ZM1.32445 14.8548C1.22555 15.1414 1.13093 15.5667 1.04269 15.8863C1.13116 15.8823 1.32059 15.0611 1.44471 14.7877C1.44198 14.7379 1.36621 14.7337 1.32445 14.8548ZM62.3632 17.3134C62.385 17.3974 62.4066 17.4813 62.4287 17.5642C62.3782 17.7403 62.3273 17.9166 62.2766 18.0937C62.3087 18.1077 62.3411 18.1216 62.3731 18.1355C62.5339 17.3391 62.5833 17.5452 62.7795 17.1813C62.6407 17.2258 62.5022 17.269 62.3632 17.3134ZM8.27224 19.4295C8.84532 19.5544 9.05749 19.5644 8.76386 19.3809C8.55769 19.3519 8.35033 19.3226 8.14417 19.2935C8.18719 19.3389 8.23027 19.3844 8.27224 19.4295ZM26.8249 7.29246C26.3405 7.2065 26.3676 7.06977 25.8842 7.02432C26.1261 7.11377 26.368 7.20348 26.6089 7.29266C26.6803 7.29248 26.7535 7.29263 26.8249 7.29246ZM50.1996 12.9773C50.0115 12.8783 49.5793 13.0037 49.0591 12.6928C48.9122 12.707 48.8159 12.732 48.6881 12.7501C48.6346 12.6804 48.5722 12.6076 48.5217 12.5391C48.5213 12.539 48.521 12.5389 48.5206 12.5388C48.0054 12.4236 48.3194 12.5753 48.2934 12.6278C48.282 12.6494 47.9131 12.5124 48.0185 12.5932C48.2006 12.7323 48.9774 12.8816 48.9522 12.9869C48.6927 12.8829 48.1612 12.7752 48.298 12.8854C48.4479 13.0063 48.9752 13.0062 49.2732 13.1516C48.866 12.867 49.7835 13.1608 49.8559 13.3169C50.4278 13.3603 49.9363 13.1894 49.3752 13.0484C49.7427 13.0387 49.2257 12.9611 49.1642 12.8577C49.5295 12.8999 50.7282 13.2557 50.1996 12.9773ZM59.3188 30.097C59.4106 29.7178 59.6203 29.1427 59.6044 28.8626C59.5951 28.6995 59.4038 29.2809 59.4337 28.8534C59.3455 29.2232 59.3534 29.3148 59.4364 29.2693C59.4226 29.3552 59.4084 29.4421 59.3944 29.528C59.3713 29.5633 59.3481 29.5998 59.325 29.6352C59.341 29.6863 59.3567 29.7377 59.373 29.7878C59.3444 29.8755 59.3155 29.9641 59.2868 30.0517C59.2979 30.0658 59.3052 30.0868 59.3188 30.097ZM13.1956 3.75194C13.3006 3.7784 13.4046 3.8046 13.5097 3.83086C13.5024 3.81161 13.493 3.79112 13.4841 3.77098C13.478 3.75532 13.472 3.73966 13.4659 3.72399C13.5144 3.78692 13.9934 3.99514 14.2168 3.99952C14.3291 4.00177 14.1118 3.84954 14.5642 3.9505C14.2381 3.8706 13.9339 3.80455 13.6164 3.7301C13.6517 3.71082 13.6859 3.69096 13.7211 3.67168C13.7209 3.67159 13.7207 3.67151 13.7206 3.67142C13.6173 3.63815 13.5129 3.60427 13.4097 3.571C13.338 3.63129 13.2672 3.69165 13.1956 3.75194ZM47.7411 29.7733C48.1122 29.814 48.239 29.818 48.0922 29.6896C48.0918 29.6894 48.0914 29.6893 48.0911 29.6892C47.9482 29.692 47.8052 29.6948 47.6624 29.6976C47.6883 29.7227 47.7141 29.7479 47.7411 29.7733ZM34.1279 8.97477C33.2843 9.09818 35.0473 9.34656 34.7498 9.15241C34.7364 9.14358 34.19 9.02878 34.1279 8.97477ZM61.9754 16.4013C62.1628 16.4476 62.3504 16.4941 62.5386 16.5406L62.674 16.5739L62.6398 16.7129C62.6343 16.735 62.6288 16.7571 62.6234 16.7792C62.647 16.762 62.6706 16.7446 62.6942 16.7271L62.742 16.5328L62.5527 16.4862C62.5316 16.4577 62.5105 16.4292 62.4898 16.4008C62.3185 16.4009 62.1467 16.4012 61.9754 16.4013ZM10.7037 20.2176C10.9004 20.3628 11.4558 20.5414 11.7562 20.5172C11.6144 20.4683 11.4726 20.4194 11.3308 20.3706C11.6072 20.4307 11.8808 20.4889 12.1592 20.5502C12.2058 20.4312 11.8696 20.4199 11.4003 20.2617C11.3277 20.2369 10.8941 19.9614 10.7008 20.0338C10.6618 20.0489 11.1611 20.1959 10.7933 20.1735C10.9449 20.2187 11.0773 20.2519 11.2211 20.2925C11.224 20.3245 11.2268 20.3564 11.2307 20.3887C11.0546 20.3316 10.8798 20.2747 10.7037 20.2176ZM59.8809 27.8966C60.0225 27.3798 59.9901 27.3031 59.9315 27.1725C59.8786 27.4162 59.8255 27.66 59.7726 27.9037C59.8087 27.9008 59.8445 27.8995 59.8809 27.8966ZM15.3314 21.4512C15.6116 21.5392 15.5083 21.437 15.6261 21.4533C16.0711 21.5152 16.3526 21.6423 16.7874 21.7216C16.7556 21.7279 16.7263 21.7338 16.6956 21.74C16.696 21.7401 16.6963 21.7402 16.6967 21.7403C18.7014 22.3252 17.6819 21.8891 16.4664 21.6008C16.4449 21.5672 16.4245 21.5338 16.403 21.5004C15.8501 21.4056 15.3398 21.32 15.3314 21.4512ZM40.8837 10.7202C40.8649 10.6978 41.0881 10.6444 40.7075 10.5975C40.3764 10.6742 40.874 10.7228 40.9784 10.8126C40.875 10.8013 40.7694 10.789 40.6671 10.778C41.2514 10.976 41.3477 10.9623 41.1597 10.7945C41.1461 10.783 40.9026 10.7426 40.8837 10.7202ZM36.9896 9.62714C36.8494 9.83043 37.6272 9.92493 37.6181 9.84812C37.5151 9.81836 37.4245 9.83541 37.3189 9.78997C37.2121 9.74425 37.1974 9.68441 36.9896 9.62714ZM58.5068 15.2823C58.4851 15.2756 58.2884 15.1237 58.2912 15.2033C58.5193 15.4494 59.1 15.4802 59.0193 15.3942C58.8362 15.3498 58.7078 15.3444 58.5069 15.2821C58.5069 15.2822 58.5068 15.2823 58.5068 15.2823ZM7.26966 19.3809C7.27851 19.3899 7.8205 19.5714 7.90088 19.5547C7.96988 19.5303 8.01008 19.4953 8.06478 19.4657C7.75083 19.4247 7.14297 19.2357 7.27077 19.3812C7.27041 19.3811 7.27003 19.381 7.26966 19.3809Z" fill="#305B91"/>
</svg>
