<svg width="67" height="70" viewBox="0 0 67 70" fill="none" xmlns="http://www.w3.org/2000/svg">
<path d="M42.3316 26.9973C42.9202 27.0157 40.9848 27.1943 42.2816 27.1704C42.0157 27.2123 41.7482 27.2547 41.4824 27.2966C41.4086 27.2554 41.3331 27.2145 41.2593 27.1734C41.616 27.1147 41.973 27.0559 42.3316 26.997C42.3316 26.9971 42.3316 26.9972 42.3316 26.9973ZM42.7449 26.317C42.4337 26.4986 41.3943 26.6647 42.5381 26.6563C42.6218 26.5968 42.7077 26.537 42.7914 26.4775C43.1876 26.4669 43.5862 26.456 43.9823 26.4452C44.1209 26.4094 44.2593 26.3736 44.3978 26.338C44.5875 26.4002 44.7756 26.4627 44.9654 26.5251C44.8046 26.5323 44.6417 26.5397 44.481 26.5469C43.8599 26.6928 43.3021 26.7804 42.4491 26.8983C42.5266 26.909 42.6042 26.9195 42.6817 26.9302C42.2439 26.9497 41.8062 26.969 41.3702 26.9883C41.7412 26.9089 42.1559 26.8202 42.4997 26.7465C41.9272 26.6829 40.9552 26.8771 40.4479 26.9675C40.377 26.9801 40.315 26.9906 40.2602 26.9993L39.7039 27.0634L39.6408 26.5156C39.5645 26.0362 39.6224 26.1094 39.5418 25.6492C39.5276 25.5674 39.4772 25.5641 39.4563 25.4013C39.3513 24.5801 39.181 22.9809 39.4107 23.9001C39.514 24.8226 39.6556 25.6466 39.7763 26.499L39.8239 26.9121L40.2435 26.8638C40.6425 26.8073 41.0477 26.7553 41.4721 26.714C41.1047 26.6244 41.7982 26.4932 42.7449 26.317ZM36.8429 4.20684C36.9578 4.60876 37.0345 5.44667 37.0594 6.01769C37.0594 6.01833 37.0595 6.01899 37.0596 6.01964C37.0651 6.1453 37.014 6.43768 36.9675 6.03097C36.892 5.3679 36.9875 5.03105 36.8531 4.69466C36.851 4.53701 36.8461 4.37178 36.8429 4.20684ZM36.6578 2.76836C36.6409 2.35802 36.7652 2.52979 36.8003 3.04189C36.8004 3.04188 36.8004 3.04187 36.8005 3.04186C36.8152 3.25557 36.6835 2.84869 36.8588 3.59999C36.8144 3.76329 36.7756 3.92351 36.7331 4.08473C36.7091 3.89843 36.6865 3.72862 36.6616 3.53317C36.7821 3.65193 36.675 3.17857 36.6578 2.76836ZM39.2688 23.2206C39.1671 23.1683 39.2006 23.4358 39.1916 23.8994C39.1417 23.469 39.0921 23.0385 39.0425 22.6099C39.1181 22.8142 39.1932 23.0164 39.2688 23.2206ZM47.0696 26.1427C47.0703 26.1426 47.0709 26.1425 47.0716 26.1424C47.2107 26.1103 47.3501 26.0781 47.4874 26.0464C47.5757 26.0695 47.6631 26.0926 47.7514 26.1157C48.2453 26.023 48.7419 25.93 49.2358 25.8371C49.1879 25.9468 48.2923 26.0402 47.8088 26.1722C47.0731 26.2315 46.713 26.2155 46.6548 26.1347C46.7926 26.1373 46.93 26.1402 47.0696 26.1427ZM11.2462 44.481C11.4092 44.4322 11.5702 44.3836 11.7332 44.3348C11.5102 44.3491 11.2894 44.3662 11.0644 44.3787C10.4958 44.5738 10.4275 44.4715 9.66365 44.5732C7.32221 44.8851 7.96775 45 5.81602 44.9802C7.51753 44.7843 6.84806 44.733 7.86039 44.5054C8.0822 44.5565 7.08813 44.8557 7.78071 44.8071C8.95638 44.5795 10.0872 44.363 11.3964 44.1483C11.3563 44.1397 11.3164 44.131 11.2764 44.1224C11.0688 44.1565 10.8629 44.1904 10.6553 44.2245C10.876 44.1611 11.0917 44.0986 11.316 44.0342C11.0369 44.151 11.7682 44.015 11.681 44.1203C11.6422 44.1672 11.3236 44.2649 11.1363 44.3282C11.6349 44.2887 12.1459 44.2459 12.6498 44.2051C12.3941 44.2702 12.1386 44.3352 11.8847 44.4C11.6727 44.4271 11.4622 44.4538 11.2502 44.4809C11.2489 44.481 11.2476 44.481 11.2462 44.481ZM64.4752 36.4075C64.5908 36.8178 64.6987 37.4595 64.7484 38.0244L65.1725 37.4814C64.8869 37.5065 64.6209 37.5167 64.4143 37.5056C64.6643 37.4743 64.9141 37.443 65.1639 37.4117L64.6788 38.033C64.6109 37.4912 64.543 36.9498 64.4752 36.4075ZM46.5982 26.0691C46.6715 26.0767 46.7426 26.0845 46.8159 26.0921C46.5049 26.1612 46.1921 26.2304 45.8811 26.2995C45.8149 26.2595 45.7473 26.2196 45.6793 26.1801C45.9849 26.1431 46.2926 26.1061 46.5982 26.0691ZM38.0405 12.7251C38.0717 12.955 38.0726 12.9756 38.1011 13.2632C38.1011 13.2628 38.1011 13.2625 38.1011 13.2622C38.1126 13.3761 38.2019 14.3306 38.1523 14.229C38.0936 13.757 38.0323 13.2532 37.9728 12.7701C37.995 12.7525 38.0185 12.7464 38.0405 12.7251ZM38.7031 18.2857C38.7031 18.2864 38.7031 18.287 38.7031 18.2877C38.7187 18.4602 38.7274 18.6244 38.7472 18.802C38.6111 18.1706 38.7018 18.057 38.6013 17.4805C38.5005 16.9041 38.3995 16.5526 38.4802 16.043C38.5239 16.2234 38.5784 16.4168 38.6263 16.6022C38.6711 17.4326 38.7516 17.6479 38.8885 18.3015C38.8265 18.2961 38.765 18.2911 38.7031 18.2857ZM3.06945 43.4916C2.98025 43.3429 3.02718 43.1589 3.02576 43.1406C3.02588 43.1409 3.026 43.1412 3.02613 43.1415C2.78991 41.7555 3.08711 43.3182 2.9361 42.0012C2.97765 42.1948 3.01977 42.3851 3.0613 42.5769C3.06454 42.881 3.06444 43.1951 3.06945 43.4916ZM23.6359 18.6037C23.6546 18.5884 23.6731 18.5706 23.6919 18.5552C23.7844 19.3464 23.8893 19.5382 23.8972 20.2041C23.8099 19.6706 23.7227 19.1373 23.6356 18.6037C23.6357 18.6037 23.6358 18.6037 23.6359 18.6037ZM37.698 8.72204C37.8447 9.59389 37.9416 10.2402 37.9836 11.0897C37.9836 11.0903 37.9836 11.091 37.9836 11.0917C37.9858 11.1407 37.9143 10.9111 37.9114 10.9758C37.9391 11.1487 37.971 11.3269 38.0002 11.5015C37.969 11.5294 37.9378 11.5563 37.9068 11.5842C37.8557 11.089 37.8045 10.5934 37.7531 10.0963C37.7422 10.172 37.7317 10.2494 37.7208 10.3251C37.6587 9.90547 37.5969 9.48743 37.5348 9.06784C37.6087 9.20733 37.6825 9.34647 37.7564 9.4841C37.737 9.23021 37.7172 8.97596 37.698 8.72204ZM21.0121 29.0061C21.1539 29.0112 20.901 29.0801 21.1193 29.0726C21.3376 29.0649 21.7306 28.9745 21.645 29.0486C21.3553 29.0928 21.0511 29.14 20.756 29.1853C21.7233 29.1809 22.6619 28.9617 22.6937 29.0994C21.7743 29.1758 21.0239 29.2852 20.1429 29.4328C20.1659 29.3176 21.0401 29.1128 20.4695 29.0775C20.6485 29.054 20.8366 29.0288 21.0102 29.0066C21.0108 29.0064 21.0115 29.0062 21.0121 29.0061ZM59.2344 23.1047C59.7771 23.0465 61.0128 22.8485 61.7052 22.8288C61.8755 22.824 62.4619 22.9609 62.4624 22.9884C62.4571 23.0818 61.7735 23.1786 62.5147 23.1478C62.2679 23.1788 62.0288 23.2118 61.7839 23.2435C61.8354 23.2996 61.8866 23.3555 61.9363 23.4115C62.2334 23.3655 62.531 23.3195 62.8281 23.2733C62.8452 23.2919 62.8624 23.3105 62.8795 23.329C61.8071 23.4614 62.4498 23.462 61.9025 23.6036C62.4194 23.5775 62.94 23.5508 63.4551 23.5249C63.1599 23.5567 62.8118 23.5961 62.5513 23.6227C62.5294 23.7312 63.1463 23.63 63.2549 23.6363C63.8667 23.6717 60.8133 23.9916 60.5827 24.1738C61.0714 24.1308 61.5841 24.0843 62.0839 24.0397C61.9434 24.076 61.8011 24.1125 61.6607 24.1488C60.5188 24.1832 59.2481 24.3019 57.9244 24.3987C57.8061 24.4177 57.6875 24.4367 57.571 24.4552C57.6116 24.498 57.6502 24.5408 57.6907 24.5835C57.5121 24.6112 57.3312 24.639 57.1525 24.6666C57.6622 24.4467 56.9302 24.5389 56.0347 24.5532C56.4982 24.4409 57.0824 24.4025 57.0299 24.306C55.4255 24.5826 53.5218 24.705 51.9625 24.9863C51.5755 25.056 51.5928 25.1867 50.675 25.2874C50.7043 25.2692 50.7064 25.2425 50.7242 25.2212C49.1471 25.4789 48.1901 25.6346 46.5351 25.7734C46.636 25.8088 46.7354 25.8445 46.8363 25.8798C47.183 25.8133 47.5302 25.7465 47.875 25.6803C48.1224 25.7286 47.7751 25.8062 48.8181 25.677C49.6727 25.5712 49.1597 25.5995 49.3893 25.5479C49.7002 25.4778 49.984 25.5056 50.3181 25.4288C50.5765 25.3697 50.2855 25.3405 50.9702 25.2727C50.7059 25.3895 50.4363 25.5096 50.1703 25.6277C50.0015 25.6295 49.8339 25.6308 49.665 25.6324C49.8307 25.5895 49.9935 25.5472 50.1591 25.5043C49.5711 25.6171 49.0155 25.7237 48.4076 25.8404C48.5923 25.6959 47.9641 25.8188 47.6218 25.8753C47.0886 25.9635 47.5376 25.8244 47.1879 25.8814C46.8383 25.9386 46.4707 26.0775 45.8332 26.1359C46.167 26.0406 45.6981 26.0497 45.7815 25.9894C45.8651 25.9291 46.5355 25.8355 45.8836 25.8611C44.6478 26.0547 46.0173 26.0767 45.183 26.2103C44.1811 26.3707 43.9039 26.0941 44.1958 25.9915C44.4255 25.9106 45.2391 25.8211 45.4707 25.7402C44.0044 25.8262 44.0143 26.0115 43.7698 26.0781C42.8819 26.3202 43.4462 25.8962 42.3912 26.1542C42.4033 26.0864 42.4124 26.0257 42.4248 25.9606C42.2416 25.9952 42.1209 26.0262 41.8988 26.0631C42.5726 26.1093 42.0333 26.1702 41.7568 26.2044C41.3213 26.2584 42.0017 26.2377 41.8884 26.2679C41.5826 26.3491 41.0881 26.3901 41.3969 26.409C41.2583 26.3996 41.1083 26.3915 40.966 26.3828C40.7573 26.4221 40.4361 26.5169 40.2112 26.6008L40.0568 26.6186L40.0393 26.4666C39.9342 26.185 39.8463 26.0542 39.9056 26.4831L39.9384 26.7678L40.2276 26.7345C40.2848 26.7265 40.352 26.716 40.4301 26.7025C40.3961 26.7441 40.3249 26.7701 40.2341 26.7874L39.8916 26.8268L39.8527 26.4896C39.8226 26.3309 39.8193 26.1125 39.8067 25.9285C39.7867 25.6393 39.7229 25.6526 39.7037 25.3986C39.6277 24.3882 39.8189 25.0317 39.925 25.1803C39.7022 23.8609 39.8226 25.1647 39.5475 23.2576C39.4543 23.0815 39.4878 23.9741 39.3566 23.2435C39.4623 23.0929 39.4836 22.5404 39.3943 21.4796C39.3536 21.3806 39.3126 21.2818 39.2719 21.1828C39.3139 20.5924 39.4677 20.8726 39.1963 19.8229C39.5246 20.364 39.3112 19.9905 39.2986 19.0223C39.2959 18.8257 39.4045 19.2674 39.3983 18.9932C39.3954 18.8689 39.3184 18.5758 39.3126 18.2721C39.31 18.1238 39.3252 17.4271 39.2197 16.9589C39.1375 17.322 38.9205 16.4344 38.9122 17.2195C38.762 15.7888 38.5791 14.7972 38.9462 16.3757C38.9394 16.0087 38.9324 15.6414 38.9254 15.2744C38.8646 15.0255 38.8037 14.7744 38.7428 14.5237C38.8407 14.4727 38.8743 14.5077 38.7338 13.515C38.8111 13.9437 38.8887 14.3706 38.9664 14.8011C38.989 14.8132 39.0179 14.8709 39.0363 14.8539C38.9315 14.3278 38.7305 12.8348 38.6586 12.4758C38.5867 12.1168 38.6654 12.8175 38.626 12.7164C38.3005 11.8742 38.4702 11.9233 38.3559 11.3042C38.2887 10.9409 38.3722 11.8178 38.3386 11.6232C38.2146 10.9014 38.2893 10.5503 38.2116 9.90627C38.1738 10.1431 38.1348 10.3782 38.0957 10.6096C38.0161 9.93383 37.924 9.18098 37.8256 8.55585C37.7871 8.31045 37.7609 8.50269 37.7527 8.46286C37.7113 8.26528 37.5846 7.45608 37.5738 7.3701C37.4938 6.72266 37.5594 6.69582 37.4857 6.0662C37.5218 6.31246 37.5556 6.54409 37.5909 6.78489C37.7145 6.88113 37.8383 6.97958 37.9622 7.0758C37.8943 6.45818 37.8262 5.84031 37.7581 5.22086C37.777 5.67736 37.7962 6.13547 37.8151 6.59197C37.6392 5.89651 37.4631 5.20106 37.287 4.50563C37.2964 4.13107 37.3059 3.75799 37.3153 3.38343C37.178 2.38625 36.9809 2.61471 37.1169 2.11686C37.0642 1.82437 37.0116 1.53183 36.9591 1.23932C36.992 1.27798 37.0249 1.31622 37.0578 1.35488C37.0312 1.20008 37.0046 1.04529 36.9779 0.890514L37.0547 0.950474C36.8566 0.984559 36.6585 1.01867 36.4604 1.05288C36.6678 1.08099 36.8731 1.11085 37.0781 1.1402L36.7882 0.913861C36.763 1.08982 36.7382 1.26542 36.7152 1.4416C36.6781 1.20095 36.6635 1.04067 36.6608 0.929544L37.0937 1.26765C36.8835 1.27291 36.8492 1.23616 36.7793 1.23095C36.4962 1.2099 35.9568 1.35166 35.7309 1.32774C35.6546 1.31938 36.3325 1.18029 36.0887 1.14609C36.0411 1.1395 35.0958 1.01984 34.5175 1.14549C34.5337 1.18626 34.5852 1.23233 34.6147 1.27522C33.8312 1.3976 33.403 1.22713 33.4997 1.15268C33.0859 1.24739 32.4738 1.32637 32.3961 1.40434C32.1821 1.43233 31.9699 1.46004 31.7559 1.48803C31.9588 1.29647 31.0695 1.43638 31.0283 1.58471C31.3966 1.54293 31.7653 1.50129 32.1336 1.45951C31.8767 1.66672 33.0074 1.63357 30.6617 1.75956C30.2059 1.72431 31.4537 1.67455 31.0831 1.65176C30.4487 1.69 29.8618 1.79554 29.2557 1.80652C28.5015 1.81988 29.4084 1.63187 27.6858 1.94499C31.5432 1.72368 27.1817 2.17819 25.394 2.47679C24.8695 2.29107 23.3421 2.39976 21.2611 2.73029C21.4874 2.7721 22.1406 2.65584 22.5222 2.63181C22.9037 2.60779 22.4989 2.69893 22.9747 2.67291C23.4507 2.64686 24.4586 2.56704 24.9425 2.5567C24.5425 2.64534 22.5561 2.98297 23.8634 2.71015C22.8974 2.76198 22.4247 2.75131 21.2766 2.87685L21.3234 2.81691C21.3271 2.85063 21.3309 2.88493 21.3348 2.91984C21.4869 3.27268 21.5502 3.2374 21.6999 4.42826C21.4644 3.74201 21.5277 5.1084 21.3373 4.82928C21.2692 3.98009 21.4766 4.43389 21.488 3.93655C21.4889 3.88557 21.3547 3.10309 21.3348 2.91984C21.2984 3.73061 21.2823 4.01142 21.0625 3.54241C21.1456 4.10254 21.1686 4.45448 21.2511 4.49635C21.2325 4.61751 21.2139 4.73935 21.195 4.85868C21.2183 5.04142 21.2416 5.20565 21.2649 5.39954C21.347 5.11844 21.3399 5.64461 21.4373 6.00599C21.5347 6.36743 21.5647 5.86274 21.6903 6.87281C21.6757 6.53276 21.661 6.22204 21.6463 5.89314C21.7561 6.54094 21.8663 7.19076 21.976 7.83855C21.99 7.37238 21.9723 6.36805 22.068 6.38378C22.0701 6.68813 22.2579 7.70847 22.2743 7.82066C22.3373 8.25508 22.2498 8.02486 22.2524 8.05799C22.3083 8.74576 22.3975 9.30694 22.3412 9.57764C22.4443 10.0869 22.4693 10.4775 22.5386 11.0225C22.5768 11.3225 22.6345 11.2562 22.6438 11.4333C22.7053 12.611 22.4846 11.5089 22.9213 13.7415C22.933 13.4633 22.9461 13.1886 22.9581 12.9104C23.0065 13.1626 23.0548 13.4134 23.1031 13.6657C23.1158 13.8369 23.1283 14.0066 23.141 14.1778C23.0426 14.1862 22.9439 14.1939 22.8454 14.2023C22.8631 14.3897 22.881 14.5777 22.8986 14.7651C22.8495 14.446 22.8004 14.1261 22.7513 13.807C22.7305 13.7799 22.7098 13.7547 22.689 13.7276C22.7209 14.2067 22.7523 14.6842 22.7839 15.1633C22.8191 15.1682 22.8545 15.173 22.8897 15.178C22.9743 16.2563 22.9486 16.2853 23.1679 17.2931C23.2634 18.0783 23.4846 18.7002 23.6005 19.1466C23.6014 19.3118 23.6021 19.4773 23.6033 19.6443C23.6445 19.7451 23.6857 19.847 23.7269 19.9479C23.7129 20.1595 23.6992 20.374 23.6854 20.5856C23.7891 20.6898 23.8244 20.7461 23.7566 19.9353C23.9019 20.198 24.0276 21.6246 24.0614 22.2075C24.087 22.6497 23.9342 22.1744 23.9297 22.2306C23.9138 22.4185 24.0359 23.1376 24.0483 23.2902C24.1008 23.9358 24.1608 24.3853 24.2117 24.968C24.2215 25.0814 24.2015 25.4044 24.2029 25.4314C24.2185 25.6413 24.2533 26.1598 24.2597 26.2184C24.5677 29.0623 24.461 26.3553 24.7116 28.3528L24.7459 28.6509L24.4524 28.6847C24.3244 28.7007 24.177 28.7183 24.0075 28.7375C24.0958 28.7608 24.1773 28.7847 24.2637 28.8083C24.0518 28.8364 23.8376 28.8648 23.6257 28.8929C23.3532 28.8979 23.6724 28.8067 23.1431 28.9137C23.1728 28.8679 23.2026 28.8221 23.2341 28.7763C23.0045 28.8273 22.7832 28.8771 22.548 28.9288C22.157 28.8307 20.79 28.9657 20.8661 28.7847C20.8919 28.7232 21.8509 28.5452 21.3328 28.5466C20.9164 28.5856 21.2057 28.6197 21.0369 28.6442C19.8174 28.8197 19.8766 28.7146 19.3802 28.8018C19.3066 28.8527 19.229 28.905 19.1537 28.9566C18.9638 28.9677 18.7733 28.9788 18.5816 28.9901C18.5411 29.0232 18.4988 29.0566 18.4583 29.0898C18.636 29.0698 18.8361 29.047 18.9992 29.0288C18.7853 29.1642 16.7055 29.4691 17.4896 29.2797C17.8089 29.2026 18.4041 29.1454 18.0136 29.0647C17.4577 29.1516 16.8267 29.2482 16.2416 29.3388C16.2199 29.3137 16.1995 29.2885 16.1778 29.2634C15.3883 29.3785 16.1218 29.3991 16.1275 29.4579C15.9466 29.4818 15.7638 29.5057 15.5829 29.5297C15.5029 29.5126 15.4265 29.4939 15.3429 29.4782C15.3408 29.5212 15.2514 29.6316 14.7072 29.6617C14.3572 29.6807 14.8906 29.5072 14.2307 29.6033C14.2883 29.663 14.5372 29.7136 13.8026 29.8255C13.721 29.7659 13.612 29.7155 13.5465 29.6504C12.6379 29.8291 12.2077 29.7745 11.1411 29.9835C10.4645 30.116 9.55057 30.4032 9.07687 30.1923C8.5767 30.2468 8.7433 30.2933 8.59736 30.3263C7.90874 30.4824 7.37463 30.4205 7.24378 30.4291C6.40926 30.4836 6.04307 30.5729 5.36059 30.5966C5.40323 30.6412 5.42888 30.6852 5.46406 30.7295C6.0736 30.5798 6.38729 30.5447 7.25672 30.4538C6.96702 30.4995 6.67724 30.5453 6.38754 30.591C6.44002 30.625 6.49204 30.659 6.54266 30.6931C9.20631 30.2059 8.61096 30.5309 6.36841 30.862C6.16539 30.8121 5.95531 30.7633 5.75409 30.713C4.46852 30.9846 3.84514 30.9629 2.37282 31.1205C2.1978 31.1393 1.56673 31.2601 1.2935 31.2958C1.29809 31.2956 1.30267 31.2953 1.30726 31.295C1.14569 31.3856 1.38007 31.3893 1.4152 31.4481C1.33525 31.4623 1.25527 31.4764 1.1753 31.4905L1.38387 31.2234C1.39577 31.2907 1.40767 31.3581 1.41957 31.4253C1.41286 31.7622 1.35957 31.6506 1.45103 32.3006C1.48746 32.207 1.52405 32.1145 1.56049 32.0208C1.64996 32.7344 1.65611 33.2078 1.76005 33.8694C1.72844 33.76 1.69695 33.6519 1.66533 33.5425C1.79764 34.9939 1.37828 33.8774 1.65099 34.953C1.63532 35.0255 1.61918 35.0962 1.6035 35.1687C1.54216 34.7194 1.48096 34.2697 1.41984 33.8222C1.38442 33.8172 1.34906 33.8116 1.31386 33.8085C1.38336 34.2885 1.45347 34.7709 1.52298 35.2509C1.45673 34.9024 1.3902 34.5518 1.32395 34.2032C1.3762 34.7634 1.42845 35.3237 1.4807 35.8838C1.53387 35.2756 1.64385 36.0421 1.75095 35.8822C1.76861 36.8833 1.72711 37.6764 2.00333 39.1974C2.05817 39.499 2.12515 39.3233 2.12501 40.1982C2.23819 39.9725 2.43622 41.0443 2.55121 40.8893C2.50792 40.59 2.46562 40.2794 2.42203 39.9894C2.41698 40.3263 2.29772 40.3967 2.1984 39.8981C2.0717 39.2617 2.04374 38.314 1.90859 38.3696C1.88364 38.1126 1.8582 37.8739 1.83313 37.6244C1.88043 37.7226 1.92769 37.8186 1.97477 37.9149C1.83325 37.2137 1.7962 36.7667 1.84179 36.4156C1.96572 37.2566 2.08922 38.0959 2.21295 38.937C2.20361 38.812 2.1941 38.6853 2.18455 38.5603C2.35252 39.188 2.35608 38.5188 2.5218 39.7078C2.48003 39.7056 2.43841 39.7047 2.39643 39.7025C2.5591 40.1228 2.70465 41.3104 2.78375 40.9161C2.78927 41.2795 2.77385 41.3557 2.86661 41.5504C2.88751 42.5083 2.84149 43.1309 2.65584 42.8119C2.72228 43.1603 2.78878 43.509 2.85499 43.8556C2.86943 43.6477 2.88366 43.4395 2.89811 43.2315C2.97086 43.8431 3.0442 44.4591 3.11694 45.0688C3.00747 45.1417 2.93676 43.8967 2.87632 44.2658C2.86416 44.3397 2.94948 44.6631 2.94832 44.751C2.9329 45.678 2.84902 44.236 2.78434 44.5167C2.88056 45.4738 2.76218 45.2313 2.81105 45.6463L2.82484 45.7516L2.92854 45.738C3.10396 45.7173 3.39689 45.6668 3.94762 45.5575C4.00117 45.5851 4.05849 45.6129 4.10835 45.6408C4.75788 45.5629 4.69586 45.4933 5.25217 45.4103C5.60056 45.3583 6.05568 45.4379 6.43051 45.2994C6.49726 45.2742 5.82784 45.1908 7.19334 45.0301C8.25311 44.9053 7.82651 45.0749 8.40404 45.0454C8.9819 45.0158 10.2726 44.6945 10.6811 44.8284C10.3781 44.8413 9.99432 44.8754 9.6589 44.8966C9.52784 44.9486 9.4003 44.9998 9.27104 45.0514C10.0268 44.9121 10.8203 44.869 11.3224 44.7217C12.354 44.7255 13.4752 44.4662 13.1498 44.3586C12.8181 44.4207 13.1896 44.4394 12.7203 44.4561C12.6685 44.428 12.6142 44.4005 12.5625 44.3724C13.3536 44.2793 13.9026 44.2107 13.5547 44.3584C13.6776 44.3458 13.7994 44.3333 13.9223 44.3207C13.9351 44.2432 13.9453 44.1658 13.9581 44.0883C14.1034 44.0618 14.2495 44.0354 14.3948 44.009C14.5596 44.0054 14.7248 44.0019 14.8915 43.9983C14.6846 44.1438 14.3079 44.1942 15.5642 44.1067C15.5628 44.0654 15.5632 44.024 15.5618 43.9827C16.6131 43.9061 16.6529 44.0017 17.9644 43.8366C16.9753 44.1024 16.3937 43.9185 16.4324 44.2028C16.1775 44.2152 15.9206 44.2276 15.6657 44.24C15.6324 44.286 15.5994 44.332 15.5678 44.3778C16.9212 44.1892 19.1402 43.6404 20.0703 43.7088C20.1774 43.6733 20.2852 43.6406 20.3939 43.6033C21.2967 43.6025 21.6508 43.3113 22.5703 43.3407C22.6652 43.344 22.4987 43.5972 23.6721 43.4445C23.6392 43.4183 23.6178 43.37 23.5894 43.3354C23.846 43.3224 24.1013 43.3104 24.356 43.298C24.3984 43.2648 24.443 43.2314 24.4853 43.1981C24.0503 43.2408 23.6164 43.2831 23.1813 43.3258C23.5406 43.272 23.9021 43.2179 24.2613 43.1641C23.7856 43.177 23.5735 43.2027 23.848 43.0957C24.2556 43.0412 24.6637 42.9863 25.0713 42.9318C25.1111 42.9081 25.1505 42.8843 25.1903 42.8607C24.9859 42.83 24.7796 42.8007 24.5751 42.7691C25.1448 42.7234 25.6735 42.6704 26.1687 42.632L26.3077 42.616L26.3235 42.7529C26.3571 43.1867 26.3794 43.5949 26.3758 43.9822C26.3746 44.1236 26.2423 43.6405 26.4237 44.5803C26.3875 44.5996 26.3598 44.6288 26.3267 44.6496C26.5759 45.7968 26.591 46.1819 26.663 47.4011C26.6383 46.6089 26.6777 47.3136 26.7407 47.5083C26.784 47.6418 26.7144 47.1088 26.7496 47.1657C26.7845 47.2227 26.981 47.9022 26.9214 47.3079C26.5148 45.8828 26.7384 45.4534 26.3992 43.6002C26.464 43.8839 26.529 44.1697 26.5937 44.4534C26.597 44.3156 26.6002 44.1923 26.6033 44.0433C26.6869 45.09 26.6535 44.58 26.7413 45.0035C26.8291 45.4274 26.9547 46.2021 27.0285 46.7225C27.0518 46.8864 26.9794 46.7194 27.0203 47.0908C27.048 47.3437 27.2087 48.0246 27.139 48.1949C27.0937 48.3064 26.7972 47.2173 26.9862 48.7503C26.9648 49.0459 26.892 48.3087 26.8832 48.2937C26.799 48.1684 26.864 49.1172 26.9693 49.5464C26.9781 49.5811 26.9886 49.2306 27.0554 49.6021C27.2141 50.4836 27.2166 51.0037 27.2054 51.5884C27.3092 51.6388 27.5159 52.3717 27.5948 53.3057C27.6282 53.3499 27.6615 53.3918 27.6951 53.436C27.6627 53.2934 27.6306 53.1509 27.5983 53.0083C27.5962 52.8488 27.5882 52.6805 27.5896 52.5242C27.7283 53.4563 27.8771 53.5722 27.9807 54.0146C28.3352 55.5285 27.8704 54.6417 27.776 54.3725C27.7759 54.17 27.7794 53.9737 27.7808 53.7729C27.75 53.799 27.719 53.8254 27.6878 53.8497C27.9714 56.1463 27.5135 54.2262 27.5947 55.3996C27.7964 55.6795 27.9176 56.5337 27.9473 57.6373C27.963 57.7579 27.9781 57.8791 27.994 57.9998C28.0205 58.0169 28.0571 58.0121 28.077 58.043C28.2667 59.3536 28.0417 59.6189 28.033 59.7463C27.9944 60.3121 28.1949 60.7243 28.2162 60.8871C28.3058 61.5727 28.2648 61.7802 28.3733 62.43C28.4902 63.1288 28.4813 62.6422 28.5526 62.8505C28.6094 63.0175 28.684 63.5711 28.7492 63.7955C28.7078 63.7082 28.6656 63.6108 28.624 63.5238C28.6724 64.2571 28.7054 64.8572 28.7971 65.6855C29.1335 66.5915 28.8574 67.4316 29.121 67.0722C29.0453 66.2864 29.026 65.8442 29.0517 65.4156C29.1248 65.9285 29.1977 66.4419 29.2708 66.9548C29.256 67.1089 29.2367 67.2194 29.2246 67.401C29.2904 67.6104 29.3441 67.9811 29.3899 68.3284L29.3246 68.2774C29.6001 68.241 29.8609 68.2098 30.0145 68.1816C31.6405 67.8829 31.119 67.8247 32.639 67.8433C31.5638 67.9956 31.5776 68.0938 30.5073 68.2117C30.7465 68.2536 31.2878 68.1722 30.9468 68.2997C31.9781 68.1517 31.6346 68.1176 32.0288 68.0014C32.3688 67.9011 33.0673 67.8119 33.0186 67.7419C33.0951 67.7743 33.1553 67.8073 33.2316 67.8396C33.9012 67.7568 34.5709 67.6743 35.2405 67.5915C34.9603 67.6696 34.6802 67.7477 34.4 67.8255C34.6178 67.8152 34.8358 67.8048 35.0536 67.7944C36.6842 67.4582 39.5546 67.3534 39.0596 67.0738C39.8525 66.9654 39.957 66.9952 40.3967 67.0056C40.4411 66.9743 40.4848 66.9474 40.5289 66.9132C41.0444 66.8768 41.426 66.7328 41.881 66.702C42.336 66.6711 42.4593 66.7476 42.5065 66.5877C42.8046 66.5952 43.1001 66.5955 43.396 66.6002C43.5674 66.5441 43.7386 66.4884 43.9081 66.4328C44.1848 66.4171 44.4621 66.4012 44.7388 66.3855C44.7818 66.3573 44.9166 66.328 45.0961 66.2978L45.0117 66.406C44.945 66.0097 44.8739 65.3959 44.8001 65.0726C44.8226 64.6113 45.0701 64.5934 44.8952 63.5362C44.8376 63.5712 44.7801 63.6057 44.7225 63.6406C44.7053 63.3957 44.688 63.1503 44.6705 62.9035C44.6886 62.8864 44.707 62.8713 44.7251 62.8542C44.7343 62.9794 44.7432 63.1029 44.7522 63.2281C44.7726 63.116 44.7931 63.0061 44.8137 62.8958C44.7181 62.5305 44.6224 62.1647 44.5266 61.7976C44.5507 62.3054 44.5748 62.8134 44.599 63.3212C44.4765 62.6953 44.4671 62.2504 44.3496 61.7075C44.375 61.2195 44.4453 61.3899 44.5605 61.5726C44.5309 61.3961 44.5012 61.2175 44.4716 61.041C44.5774 61.1468 44.5949 60.84 44.7152 61.8783C44.7325 61.8038 44.7484 61.728 44.7669 61.6551C44.7419 61.4855 44.7503 61.3724 44.7173 61.187C44.6272 60.6816 44.4187 60.3113 44.3666 60.353C44.3395 60.3754 44.4576 60.8701 44.4134 60.8551C44.3057 60.818 44.2097 59.6616 44.3119 61.3339C44.1794 60.791 44.213 60.662 44.1569 60.0521C44.1289 60.1038 44.1009 60.1542 44.0727 60.204C44.0536 59.9204 44.0345 59.6364 44.0154 59.3528C44.2376 59.723 44.0473 57.6377 44.4297 59.4889C44.3695 58.9354 44.3095 58.3837 44.25 57.8319C44.2818 57.9432 44.3135 58.0545 44.3453 58.1657C44.3665 58.4157 44.3876 58.6642 44.409 58.9143C44.4056 58.6175 44.402 58.3203 44.3986 58.0235C44.273 57.3367 44.1774 57.0732 44.0616 56.7661C44.1046 57.578 44.1489 57.3056 44.2413 57.931C44.1899 57.9151 44.1487 57.9496 44.0909 57.901C44.1518 57.5645 43.9483 56.5161 43.9132 56.2715C43.8064 55.5271 43.9774 56.1001 43.9181 55.6007C43.8587 55.1008 43.7272 54.5188 43.7752 54.0986C43.7211 54.1127 43.6681 54.1523 43.6216 54.1878C43.5078 53.4122 43.5919 53.5594 43.5905 53.4778C43.5708 52.176 43.3681 51.4933 43.1731 50.0255C43.179 50.2142 43.1869 50.4047 43.194 50.5951C42.9407 49.5008 43.0684 50.2433 43.1483 51.2106C43.0489 50.3069 42.8858 49.8025 42.7779 49.1692C42.67 48.5361 42.5867 47.4377 42.5774 47.0337C42.7539 47.939 42.8329 48.9292 42.9753 49.9409C43.0172 49.8187 43.0508 49.7009 43.0978 49.5744C42.9043 48.9722 42.939 48.6052 42.9296 48.4001C42.902 47.798 42.8033 47.8292 42.8676 47.4554C42.832 47.4746 42.8019 47.4892 42.7688 47.5081C42.6328 46.2746 42.5354 44.938 42.2988 44.1534C42.3795 44.0691 42.4592 44.0032 42.5405 43.9078C42.4087 43.3946 42.4229 42.9395 42.3531 42.5022C42.2835 42.0668 42.2314 42.2422 42.1402 41.7315C42.1233 41.6369 42.1444 41.4332 42.0821 41.203C42.0617 41.1276 42.0102 40.9878 41.957 40.8291C42.2915 40.7129 42.704 40.595 42.7926 40.734C43.2337 40.6807 43.6521 40.6373 44.0844 40.5879C43.665 40.652 43.2455 40.7158 42.8279 40.7797C43.1931 40.7885 43.556 40.7975 43.9212 40.8064C43.9611 40.7535 44.0011 40.6997 44.0393 40.6477C44.9985 40.4713 45.7092 40.4622 46.6824 40.3239C46.8449 40.3008 46.4492 40.2547 47.1747 40.1895C47.9005 40.1244 48.4584 40.2328 49.6816 40.0139C49.7434 40.0027 50.0917 39.8243 50.5441 39.8625C50.6471 39.8711 50.2285 39.9541 50.4622 39.9532C50.6962 39.9524 51.7279 39.8484 51.8165 39.904C51.8026 39.8822 51.7355 39.866 51.7014 39.8462C51.8757 39.8135 52.0518 39.7806 52.2279 39.7479C52.2494 39.7867 52.2722 39.8255 52.2937 39.8641C53.2922 39.6447 53.7951 39.4253 55.2983 39.2924C54.8701 39.2849 54.4418 39.2771 54.0154 39.2693C53.9052 39.3252 53.7949 39.3814 53.6866 39.437C52.9947 39.5053 52.3009 39.5739 51.609 39.6421C51.5014 39.7036 51.3957 39.7646 51.2881 39.826C51.1044 39.8424 50.9224 39.8587 50.7387 39.8751C50.7802 39.8351 50.8222 39.7953 50.8655 39.7552C50.5043 39.8082 50.1426 39.8614 49.7832 39.9142C50.4921 39.6214 51.8346 39.6792 51.7189 39.5215C51.8849 39.5278 52.0512 39.5342 52.2172 39.5406C52.2785 39.4497 52.6125 39.4326 53.1976 39.3737C53.059 39.3497 52.9066 39.3279 52.7789 39.3021C53.3533 39.2894 54.359 39.16 54.9491 39.1097C55.2083 39.0876 54.958 39.1789 55.0356 39.1765C55.4335 39.1646 56.1728 38.9681 56.3312 38.957C57.2779 38.8901 57.9134 39.0119 58.9241 38.7558C57.8605 38.8541 58.4386 38.7967 58.0528 38.771C57.932 38.7629 56.5572 38.8842 58.274 38.6942C58.4753 38.6721 61.6024 38.4254 60.5928 38.6556C61.092 38.5603 61.4813 38.4734 61.9381 38.3813C63.0993 38.5174 62.6774 38.3072 62.3323 38.2054C62.5171 38.182 62.6927 38.1589 62.8831 38.1355C62.5007 38.3327 64.519 38.095 65.2281 37.9336L65.2007 37.9688C65.1991 37.9619 65.1975 37.9551 65.196 37.9484C65.1734 37.8514 65.166 37.9114 65.1585 37.974L65.2229 37.8914C65.1534 37.8831 65.0806 37.8746 65.2172 37.8446L65.1117 37.9797C65.1044 37.9464 65.0958 37.9006 65.0856 37.8392C65.0643 37.58 65.0419 37.2857 65.0201 37.0117C64.9742 37.4186 64.8423 36.6473 64.7475 36.67C64.7722 36.1635 64.9071 35.7619 65.039 36.0223C64.9487 35.6173 64.8582 35.2102 64.7677 34.8053C64.7684 34.9984 64.7695 35.194 64.7701 35.3871C64.6656 34.04 64.3162 32.3344 64.4837 32.0296C64.4604 31.8522 64.4371 31.673 64.4138 31.4956C64.373 31.4449 64.3323 31.3961 64.2914 31.3454C64.2222 30.5385 64.1533 29.7334 64.084 28.9265C64.1932 29.6391 64.2627 29.8034 64.3156 30.5583C64.3192 30.2644 64.3224 29.9652 64.3268 29.6768C64.0822 28.5606 63.9939 28.4151 63.8161 26.7112C63.8081 26.6341 63.7386 25.3387 63.7418 25.2937C63.7565 25.0876 63.8513 25.386 63.8602 25.294C63.8855 25.0382 63.8397 23.5085 63.8645 23.5352C64.1696 23.8729 64.7992 28.9611 64.982 30.3357C65.317 32.8568 65.6408 35.3693 65.9566 37.8758L66.0506 38.594L65.3212 38.6895C57.5309 39.671 49.7984 40.5754 42.045 41.5035L42.637 40.7454C43.0991 44.6058 43.5671 48.4713 44.0534 52.3516C44.0718 52.4974 44.1023 52.429 44.1116 52.491C44.1688 52.8759 44.1557 53.2624 44.1708 53.4054C44.2032 53.711 44.2377 53.5363 44.2652 53.7591C44.5479 56.0615 44.7828 58.238 45.0758 60.541C45.0949 60.691 45.0319 60.5432 45.0721 60.8058C45.0931 60.9413 45.2133 61.3588 45.2521 61.6657C45.3875 62.7377 45.4767 63.6412 45.6169 64.7721C45.6696 65.197 45.7373 65.7684 45.8024 66.3087L45.8925 66.997L45.1935 67.0885C44.9474 67.1182 44.7078 67.1473 44.4914 67.1743C44.1859 67.2123 43.8715 67.2825 43.5698 67.3207C43.1418 67.3748 43.2215 67.3012 43.1551 67.3054C42.8639 67.3239 42.8323 67.3978 42.5576 67.43C42.0466 67.4895 42.0135 67.4469 41.3661 67.5305C40.9035 67.5903 39.8482 67.7571 39.2657 67.8396C37.8939 67.9542 36.1761 68.1871 34.9046 68.3615C34.1519 68.4648 34.0741 68.4089 33.7667 68.4469C32.6835 68.5815 31.8716 68.765 30.8545 68.8929C30.3609 68.9549 29.8869 69.0067 29.4203 69.055L28.707 69.1484L28.6122 68.4241C28.5283 67.6143 28.4545 66.8265 28.3548 65.9963C28.3293 65.7841 28.2763 65.8401 28.2491 65.6321C28.1488 64.8623 28.0168 63.8784 27.9408 63.1911C27.8559 62.4251 27.9069 62.1324 27.7974 61.3861C27.7652 61.1673 27.6821 61.1122 27.6272 60.7457C27.5397 60.1602 27.5267 59.508 27.4837 59.0972C27.4244 58.5341 27.408 59.0321 27.325 58.2732C27.3216 58.242 27.3624 58.1219 27.3398 57.9595C27.274 57.4864 27.2367 57.5388 27.1555 56.8447C27.1479 56.778 27.0869 55.8519 27.0758 55.7605C27.0104 55.2224 26.8954 54.1369 26.8451 53.8197C26.6656 52.6862 26.6935 53.5926 26.7531 52.6024C26.6569 52.1815 26.5605 51.7642 26.4624 51.3175C26.5392 51.6142 26.4458 50.3832 26.4315 50.2977C26.3141 49.5898 26.2968 50.0222 26.1972 49.1187C26.5045 50.2903 26.0747 47.9522 26.006 47.4275C25.8 45.8558 25.6282 44.3703 25.4522 42.8601L26.276 43.5033C25.3584 43.6103 24.4317 43.7187 23.471 43.8373C22.6201 43.9425 21.4839 44.1168 20.5835 44.2267C20.3736 44.2525 20.5275 44.195 20.3427 44.2169C20.1584 44.239 20.368 44.2565 20.1574 44.2801C18.8472 44.4264 17.812 44.472 16.6257 44.7202C16.5656 44.7128 16.566 44.7011 16.4674 44.697C15.4976 44.9078 13.5935 45.019 12.8814 45.0898C11.7676 45.2006 11.4914 45.2965 10.6831 45.3834C9.61413 45.4983 7.99757 45.5763 8.73717 45.6849C8.006 45.7811 7.3016 45.8695 6.5601 45.9422C6.47755 45.9503 6.52812 45.8933 6.49505 45.8963C6.28561 45.9148 6.22317 45.9679 6.08252 45.9873C5.70117 46.0399 6.31804 45.9096 5.77515 45.9916C5.48882 46.0349 5.33047 46.094 4.53272 46.193C4.02866 46.2555 3.52007 46.3184 3.00773 46.3815L2.26618 46.4786L2.16756 45.7254C1.6284 41.3497 1.06839 36.7014 0.531155 32.2871C0.489901 31.9485 0.46901 32.1773 0.419843 31.7523C0.405175 31.6255 0.38997 31.4901 0.374323 31.3476L0.274157 30.5827L1.05107 30.481C2.56775 30.3144 4.88218 30.0977 6.04365 29.9445C7.31413 29.7769 7.01848 29.7415 7.81075 29.614C7.96377 29.5893 7.84267 29.6451 7.98185 29.6286C8.91747 29.5172 10.0401 29.4429 10.7989 29.3591C11.3008 29.3037 11.2528 29.2453 11.5999 29.198C12.117 29.1277 12.6579 29.1261 12.9345 29.0942C14.2348 28.9433 15.1216 28.7819 16.3381 28.6589C16.2889 28.6508 16.2559 28.6417 16.2141 28.6329C17.6509 28.4584 19.0858 28.2841 20.5226 28.1096C20.4533 28.1052 20.3863 28.1004 20.317 28.0958C22.0033 27.8954 21.8279 28.0571 21.6438 27.7838C21.7651 27.7585 21.8936 27.7306 22.0095 27.7067C21.9805 27.8628 23.0135 27.8472 24.3157 27.7258C24.3205 27.7253 24.3267 27.7243 24.3341 27.7228L23.7497 28.4711C23.7221 28.3329 23.528 27.776 23.7004 27.8218C23.6376 27.6604 23.5962 27.5648 23.5416 27.4285C23.5602 27.1476 23.5778 26.8631 23.5962 26.5822C23.5701 26.435 23.5441 26.2856 23.5181 26.1384C23.4815 26.1206 23.4483 26.1418 23.4092 26.0983C23.3194 25.4109 23.1876 23.9946 23.1164 23.4514C22.9393 22.1021 22.6785 20.7383 22.6482 19.6757C22.5752 19.1652 22.5712 19.6815 22.4859 18.9195C22.509 18.8293 22.5314 18.7445 22.5551 18.6506C22.328 18.0471 22.4036 17.9059 22.3301 17.0497C22.2806 16.4706 22.1973 16.0977 22.137 15.5478C22.1217 15.4085 22.1683 15.4228 22.1551 15.3278C22.1114 15.0096 21.9387 14.1077 21.9093 13.8829C21.6425 11.8463 21.4338 10.0941 21.2111 8.15049C21.187 7.94166 21.1767 8.21752 21.152 8.00134C21.1121 7.65356 21.2043 7.84974 21.1828 7.64807C21.1225 7.08558 21.0513 7.09001 20.9513 6.30736C20.8134 5.22849 20.6786 4.08055 20.5444 2.91277L20.4503 2.19355L21.1807 2.0979C22.8024 1.91166 24.4623 1.72677 26.0287 1.5368C26.1129 1.52644 26.1028 1.48567 26.1943 1.474C26.7905 1.39858 27.4011 1.38022 27.9426 1.31297C28.8411 1.20157 29.5093 1.06032 30.3969 0.9513C32.1319 0.738011 33.6856 0.577032 35.4702 0.359102C35.9827 0.29654 36.4715 0.236032 36.9593 0.175334L37.6599 0.0835977L37.7531 0.795128C37.8653 1.69738 37.9783 2.5962 38.106 3.6356C38.966 10.6304 39.9757 17.7519 40.7724 24.8028C40.7926 24.9822 40.7471 24.9138 40.7554 24.9682C40.8352 25.486 40.8902 25.5263 40.8096 25.7239C40.85 25.9851 40.8905 26.1742 40.9306 26.3569L40.1015 25.7095C40.3802 25.6484 40.6444 25.5885 41.1277 25.5325C41.5542 25.4829 41.2508 25.6424 41.9642 25.4916C42.6083 25.3554 41.8817 25.3779 43.826 25.2071C43.8775 25.2026 44.1388 25.2449 44.539 25.1763C44.9411 25.1076 44.4665 25.1127 45.4382 24.9771C47.7193 24.6588 50.6203 24.3662 53.2752 24.0197C53.4416 23.9979 55.0406 23.7614 55.355 23.7043C55.9634 23.5938 55.8287 23.5551 56.6228 23.4438C57.2365 23.3578 57.7514 23.3571 58.4728 23.2558C58.5569 23.244 58.6901 23.1631 59.2344 23.1047ZM13.8848 44.0314C14.0272 43.9506 14.2698 43.688 15.1857 43.6461C15.2726 43.6421 14.8277 43.8569 15.3319 43.8203C14.8435 43.8973 14.3666 43.9615 13.8848 44.0316C13.8848 44.0316 13.8848 44.0315 13.8848 44.0314ZM63.3475 24.0829C62.6671 24.1549 61.9844 24.2274 61.304 24.2994C61.7691 24.214 62.2349 24.1286 62.6981 24.0432C62.9152 24.0563 63.1304 24.0698 63.3475 24.0829ZM24.1097 22.8609C24.1096 22.8603 24.1095 22.8596 24.1094 22.859C24.2269 23.5691 24.3444 24.2796 24.4618 24.9897C24.4308 24.9173 24.3997 24.8448 24.3686 24.7724C24.265 24.2131 24.1614 23.6535 24.0579 23.096C24.0752 23.0177 24.0924 22.9392 24.1097 22.8609ZM23.1852 17.2504C23.155 16.7915 23.2124 16.8976 23.2241 16.6417C23.224 16.6417 23.2239 16.6417 23.2238 16.6417C23.2268 16.5742 23.1985 16.2648 23.1855 16.1455C23.1636 16.1928 23.1436 16.2528 23.1224 16.3037C22.9254 15.2486 22.9046 13.1403 23.3305 15.8207C23.2911 15.7847 23.252 15.7505 23.2126 15.7145C23.3868 17.0511 23.4955 18.5517 23.1852 17.2504ZM24.6295 42.6083C25.2655 42.4654 25.6584 42.3812 26.1301 42.3182L26.5857 42.2657L26.6374 42.7143C26.6861 43.0793 26.7221 43.4914 26.7627 44.1C26.7065 43.9082 26.6504 43.7164 26.5943 43.5247C26.5988 43.2919 26.6033 43.0608 26.6079 42.828C26.6078 42.8274 26.6077 42.8267 26.6076 42.8261C26.5764 42.7936 26.5451 42.7611 26.514 42.7294L26.4764 42.4034L26.1453 42.4415C26.1365 42.4502 26.1277 42.4589 26.119 42.4676C25.6232 42.5144 25.1253 42.5615 24.6295 42.6083ZM38.4874 14.4036C38.3009 14.7497 38.4208 14.6417 38.2581 13.7389C38.2017 13.4262 38.1999 13.7379 38.1692 13.5429C38.0032 12.4898 38.144 12.3866 38.2517 12.613C38.3307 13.2108 38.41 13.8148 38.4872 14.4017C38.4873 14.4023 38.4874 14.403 38.4874 14.4036ZM55.5792 24.7295C55.5798 24.7294 55.5805 24.7293 55.5811 24.7293C55.6153 24.7809 55.1909 24.8482 55.6781 24.8412C55.3123 24.886 54.9465 24.9306 54.5788 24.9756C54.686 24.9572 54.7955 24.9387 54.9027 24.9204C54.8052 24.9132 54.7074 24.9058 54.61 24.8986C54.4878 24.9778 54.3626 24.9559 53.9757 24.982C54.0902 25.0366 54.2041 25.0912 54.3186 25.1457C53.8697 25.1805 53.4191 25.2155 52.9702 25.2503C52.9626 25.2339 52.9549 25.2175 52.9473 25.2012C52.7817 25.2437 52.6178 25.2862 52.4522 25.3287C52.4039 25.314 52.3574 25.2992 52.3091 25.2845C52.108 25.3249 51.9064 25.3653 51.7053 25.4059C51.6374 25.3643 52.0824 25.2879 51.2905 25.3981C51.5277 25.3176 51.7643 25.2373 52.0033 25.1566C53.1952 25.0141 54.3873 24.8718 55.5792 24.7295ZM37.4002 6.14108C37.5711 7.45204 37.49 7.08689 37.3408 6.79685C37.3607 6.57896 37.3803 6.35896 37.4002 6.14108ZM3.40227 31.1673C3.03098 31.2904 2.658 31.4129 2.27724 31.5344C1.83409 31.6137 1.38347 31.6331 1.19015 31.6113L1.50461 31.2086C1.49139 31.3254 1.46309 31.3483 1.42386 31.2185L1.18022 31.5305C1.20911 31.5218 1.24558 31.5125 1.29025 31.5027C1.98497 31.3509 2.72792 31.3337 3.40227 31.1673ZM3.94807 45.2796C2.99434 45.3611 3.87647 45.1606 4.08408 45.0815C4.35715 45.134 4.72247 45.0815 5.31192 45.0189C4.76024 45.0924 4.10582 45.2663 3.9481 45.2799C3.94809 45.2798 3.94808 45.2797 3.94807 45.2796ZM18.6911 29.3729C19.0713 29.3238 19.4471 29.2559 19.7905 29.2399C19.6968 29.3254 19.0081 29.3429 19.5081 29.391C19.265 29.4228 19.0216 29.4546 18.7803 29.4864C18.9283 29.4227 18.7177 29.4147 18.6921 29.373C18.6918 29.373 18.6914 29.3729 18.6911 29.3729ZM29.6025 2.17856C28.8452 2.18416 28.7082 2.23849 27.9634 2.39083C27.8488 2.33362 28.7311 2.10559 29.2897 2.01055C29.3932 2.06663 29.4971 2.1227 29.6025 2.17856ZM56.855 38.6519C56.6867 38.7635 55.3655 38.9379 54.705 38.9923C54.7816 38.9694 54.8585 38.9463 54.9351 38.9232C55.5742 38.8328 56.2159 38.7422 56.855 38.6519ZM5.59257 44.9906C5.49379 45 5.40021 45.0096 5.31192 45.0189C5.40975 45.0059 5.5045 44.9958 5.59257 44.9906ZM28.4685 61.9797C28.3456 61.6773 28.4316 62.6106 28.3257 61.4775C28.3257 61.4775 28.3256 61.4775 28.3255 61.4775C28.2554 60.7282 28.2409 60.5626 28.1624 59.87C28.3015 60.1057 28.5129 61.5044 28.2973 59.5673C28.2943 59.5418 28.236 59.6005 28.2068 59.2903C28.1978 59.1946 28.2132 58.8828 28.1714 58.4165C28.1579 58.2659 28.0355 57.1361 28.2256 58.6732C28.2956 58.6182 28.3823 58.6913 28.4552 58.6786C28.5503 59.276 28.4591 59.7554 28.5408 60.3897C28.6625 61.3315 28.8713 61.7927 28.6972 61.9981C28.5514 61.2115 28.3828 59.8508 28.479 59.6588C28.3861 58.8919 28.2622 58.6836 28.2905 59.3078C28.6771 61.9485 28.2363 60.0524 28.5989 62.3616C28.6295 62.3857 28.6707 62.4775 28.6946 62.4597C28.6855 63.1794 28.5124 62.0876 28.4685 61.9797ZM27.9959 56.4165C28.1099 56.8669 28.2242 57.3158 28.3383 57.7644C28.2442 57.7759 28.1288 57.5351 27.9871 56.8205C27.9902 56.6865 27.993 56.5505 27.9959 56.4165ZM43.6243 55.6051C43.5651 55.5455 43.4966 55.3757 43.4322 55.2536C43.4582 55.1092 43.0942 51.8098 43.3427 53.4806C43.3789 53.7232 43.4711 55.219 43.6243 55.6051ZM34.7774 1.46352C34.3852 1.47696 33.9946 1.49015 33.6042 1.50336C34.1959 1.40845 34.7881 1.31291 35.3798 1.21759C35.1784 1.29962 34.9788 1.38149 34.7774 1.46352ZM1.74808 35.3232C1.72983 35.1591 1.86716 35.6948 1.77662 35.0504C1.88084 35.5262 1.97439 35.9723 2.07458 36.4374C2.05865 36.5824 2.04302 36.7289 2.02708 36.8739C2.06196 36.9811 2.09698 37.0904 2.13185 37.1976C2.07526 37.1377 2.0207 37.0849 1.96283 37.0214C1.96927 36.2162 1.82904 36.049 1.74808 35.3232ZM20.6152 28.7655C20.7707 28.8534 19.6309 29.0572 20.7618 28.9352C20.5562 29.0308 20.2164 29.1094 19.5565 29.1969C19.4472 29.1835 19.3381 29.1702 19.2288 29.1568C19.2229 29.2294 19.0561 29.2767 18.6911 29.3729C18.6908 29.3728 18.6904 29.3728 18.6901 29.3727C17.6863 29.5015 17.7435 29.4705 17.4876 29.3837C18.559 29.3186 18.5777 29.2083 19.2946 29.0558C19.787 28.9511 20.4393 28.8908 20.6152 28.7655ZM44.0575 59.1149C43.876 58.374 43.8761 59.0589 43.8064 57.7133C43.8396 57.7965 43.8726 57.8801 43.9058 57.9634C43.9566 58.3472 44.0071 58.7311 44.0575 59.1149ZM24.3705 28.67C24.2644 28.5175 23.5409 28.4777 23.4527 28.7579C24.1492 28.727 23.7938 28.6182 24.3705 28.67ZM3.65572 45.5748C3.31154 45.6152 3.07192 45.6306 2.91508 45.6286C2.92516 45.2681 3.02438 45.351 3.1247 45.6077L2.88995 45.4244C2.94871 45.4014 3.01658 45.3784 3.09027 45.3564C3.17857 45.3795 3.2668 45.4027 3.35325 45.4259C3.58381 45.3821 3.81438 45.3382 4.04496 45.2946C3.91526 45.388 3.78543 45.4815 3.65572 45.5748ZM21.6395 5.06732C21.8808 6.06688 21.5696 3.96488 21.7295 4.6642C21.8572 5.22255 21.8316 5.9822 21.7233 5.70943C21.6972 5.51385 21.6689 5.29604 21.6398 5.06927C21.6397 5.06861 21.6396 5.06797 21.6395 5.06732ZM22.3948 10.9303C22.4988 10.7485 22.4921 10.993 22.3711 10.1947C22.3366 9.96671 22.1596 8.14313 22.1504 8.91899C22.2303 9.56853 22.313 10.255 22.3948 10.9303ZM18.9691 43.5056C18.988 43.5583 17.6029 43.8495 17.4196 43.8419C17.4196 43.842 17.4196 43.842 17.4196 43.8421C16.9246 43.8207 18.3997 43.6274 17.7456 43.5949C19.1759 43.5184 19.571 43.2292 19.5106 43.5536C18.6769 43.6701 19.0645 43.557 18.9691 43.5056ZM64.0369 28.9432C64.0368 28.9426 64.0367 28.9419 64.0367 28.9413C64.0457 29.0356 64.0614 29.8199 64.0223 29.7291C63.9313 28.7948 64.0041 28.9543 63.8114 28.0978C63.8332 28.0468 63.8551 28.0028 63.8767 27.9482C63.9355 28.2902 63.9922 28.4768 64.0369 28.9432ZM43.2953 52.0301C43.3516 52.3706 43.3697 53.0023 43.4212 53.3917C43.043 52.1787 43.0708 50.67 43.2953 52.0301ZM42.7478 26.3164C42.7468 26.3166 42.7458 26.3168 42.7449 26.317C42.7451 26.3168 42.7455 26.3166 42.7458 26.3165C42.7465 26.3164 42.7471 26.3164 42.7478 26.3164ZM32.9354 67.7096C32.9813 67.7188 33.0078 67.7285 33.0182 67.7385C33.0183 67.7396 33.0184 67.7406 33.0185 67.7417C32.993 67.7309 32.9659 67.7202 32.9354 67.7096ZM21.8763 43.1312C22.4686 43.1351 20.5409 43.4943 19.9093 43.5429C19.949 43.503 19.952 43.4709 20.0494 43.4186C20.5674 43.4456 21.7777 43.1304 21.8763 43.1312ZM12.0875 30.047C10.5517 30.2339 12.5133 29.6896 12.6249 29.9175C12.6224 29.9225 12.1271 30.0417 12.0875 30.047ZM9.77143 44.6526C9.39136 44.791 10.1805 44.7183 8.92145 44.8574C8.84542 44.843 8.76942 44.8285 8.69338 44.8141C9.05264 44.7603 9.41215 44.7064 9.77143 44.6526ZM1.98051 30.893C1.6874 30.9369 1.39636 30.9813 1.11808 31.0256L0.889474 31.0555L0.918948 31.2806C1.16559 32.8313 1.40507 33.9857 1.48499 32.8924C1.45899 32.7472 1.433 32.5998 1.407 32.4545C1.29001 32.4479 1.28311 31.962 1.20488 31.2454L1.15327 31.3115C1.19783 31.3067 1.24329 31.3015 1.28957 31.2961C1.39624 31.234 1.83299 31.1689 1.91015 31.1178C2.05938 31.0189 1.5491 31.0251 1.98051 30.893ZM39.2972 18.7175C39.2726 18.6889 39.248 18.6611 39.2237 18.6325C39.1626 18.3297 39.1016 18.0262 39.0406 17.7234C39.0865 17.7679 39.1324 17.8125 39.1783 17.857C39.2179 18.1436 39.2575 18.4289 39.2971 18.7155C39.2971 18.7162 39.2972 18.7168 39.2972 18.7175ZM27.5077 54.5649C27.7577 54.7123 27.6401 54.104 27.3715 52.8738C27.4168 53.4367 27.4624 54.002 27.5077 54.5649ZM23.1911 19.7594C23.251 19.7111 23.3108 19.6636 23.3705 19.6135C23.2216 18.9612 23.1624 19.093 23.1155 19.4202C23.1408 19.534 23.1658 19.6455 23.1911 19.7594ZM21.9924 10.2462C22.0126 10.522 22.0477 10.3757 22.0502 10.4045C22.108 11.1015 22.096 11.2021 22.2402 12.0483C22.2668 12.1509 22.2939 12.2516 22.3209 12.3542C22.4084 11.944 22.2992 11.6675 22.2766 10.8251C22.2484 10.9809 22.2201 11.1361 22.1918 11.2919C22.1447 10.8278 22.0977 10.3656 22.0506 9.90149C22.0294 9.84836 22.0084 9.7951 21.9873 9.74197C21.989 9.9089 21.9892 10.0814 21.9924 10.2462ZM39.6731 22.2591C39.7232 22.7099 39.7733 23.1629 39.8234 23.6137C39.8589 23.6261 39.8945 23.6378 39.93 23.6501C39.8445 23.187 39.7587 22.7222 39.6731 22.2591ZM28.7492 63.7955C28.7655 63.8297 28.7817 63.863 28.7977 63.8925C28.7825 63.8913 28.7661 63.8537 28.7492 63.7955ZM64.0744 27.7328C64.035 27.2194 63.9291 26.4856 63.8651 25.925C63.7865 25.9794 63.9849 27.3998 63.9955 27.9058C64.0204 27.9843 64.0911 27.9498 64.0744 27.7328ZM2.75573 44.5371C2.69806 44.4141 2.64061 44.2913 2.58317 44.1702C2.54963 43.8604 2.51626 43.5498 2.48249 43.2381C2.44705 43.2332 2.41134 43.2285 2.37591 43.2235C2.58913 44.5886 2.45132 44.2847 2.43725 44.9753C2.54324 44.8285 2.64952 44.6839 2.75573 44.5371ZM50.3013 24.9866C49.3141 25.1317 48.9683 25.2183 49.5391 25.2525C49.8856 25.1859 50.2342 25.119 50.5807 25.0524C50.487 25.0306 50.3932 25.0087 50.3013 24.9866ZM42.8327 66.7767C43.6564 66.6362 43.6872 66.7727 44.4875 66.5959C44.0507 66.6238 43.614 66.6514 43.179 66.6791C43.0646 66.7114 42.9471 66.7443 42.8327 66.7767ZM24.6642 43.4447C24.9683 43.449 25.47 43.2235 26.2372 43.1882L25.7673 42.8213C25.7733 42.9507 25.7738 43.0877 25.767 43.2325C25.8461 43.4605 25.9122 43.6013 25.9863 43.7965C25.9471 43.9203 25.9092 44.06 25.8697 44.1782C25.8698 44.1788 25.8698 44.1795 25.8699 44.1801C25.9977 45.0692 25.9938 44.483 26.0532 44.4962C26.078 44.5027 26.1199 45.169 26.1458 44.956C26.19 44.5883 25.9753 43.261 26.0823 43.2442C26.1048 43.717 26.2467 44.6282 26.2851 44.3488C26.3239 44.0677 26.1263 43.3312 26.0921 42.7814L26.1972 42.8635C26.1484 42.8665 26.101 42.8683 26.0555 42.8685C26.1175 42.8742 26.1651 42.8804 26.2001 42.8868L26.0687 42.7842C26.0482 42.8955 26.025 42.8795 26.0037 42.7922L26.2081 42.9518C25.9648 43.0112 25.1675 43.0553 25.0308 42.9811C24.0898 43.1998 24.9713 43.1332 25.948 43.0082C25.4839 43.1468 25.9384 43.0727 26.2226 43.0695L25.886 42.8067C25.8868 42.8803 25.8829 42.9425 25.8693 42.9744C25.8597 42.9283 25.8496 42.8737 25.8392 42.8125L26.2283 43.1164C25.4792 43.2444 23.7403 43.4313 24.6642 43.4447ZM10.0242 29.8616C9.36601 29.9492 8.32938 30.0181 7.8887 30.159C7.63204 30.241 8.66872 30.1525 7.9667 30.3181C8.60783 30.2315 8.75058 30.183 8.63237 30.1281C8.77769 30.1019 8.92487 30.0756 9.0702 30.0496C9.13951 30.0546 9.21059 30.0592 9.27991 30.0643C9.35331 30.0267 9.42716 29.9892 9.49873 29.9519C9.65484 29.9383 9.81279 29.9245 9.96892 29.9111C9.98545 29.8947 10.0151 29.8785 10.0242 29.8616ZM42.5588 44.8807C42.5822 45.0635 42.6053 45.2446 42.6288 45.4275C42.643 45.4053 42.6574 45.3791 42.6717 45.3539C42.6832 45.3357 42.6947 45.3174 42.7061 45.2992C42.6709 45.4111 42.6978 46.2927 42.7946 46.6535C42.8432 46.8349 42.8834 46.4035 42.9958 47.1842C42.9213 46.6176 42.8441 46.0937 42.7685 45.5439C42.8019 45.59 42.8353 45.6341 42.8688 45.6801C42.8688 45.6798 42.8688 45.6795 42.8688 45.6791C42.8524 45.4954 42.8361 45.3095 42.8197 45.1258C42.7327 45.0436 42.6459 44.9629 42.5588 44.8807ZM23.1288 20.3115C23.2592 20.929 23.3127 21.1345 23.3632 20.8292C23.3631 20.8285 23.3631 20.8279 23.3631 20.8272C23.2961 20.5996 23.229 20.3717 23.162 20.1441C23.1509 20.1993 23.1397 20.2544 23.1288 20.3115ZM30.2025 68.5427C31.0911 68.2024 29.9516 68.369 29.3542 68.5185L29.1729 68.5422L29.1488 68.358C29.0819 68.0907 29.0185 67.932 29.0054 68.1121C29.0048 68.1207 29.0196 68.2274 29.0391 68.3715L29.0777 68.6661L29.3677 68.6281C29.6632 68.5881 30.1158 68.5285 30.2025 68.5427ZM3.91199 45.6461C3.58635 45.6886 3.26003 45.731 2.93293 45.7736L2.7939 45.7918L2.77541 45.6506C2.77041 45.6123 2.7654 45.5739 2.76039 45.5354C2.74675 45.5758 2.73318 45.6167 2.71963 45.6575L2.74547 45.8549L2.9398 45.8294C2.98909 45.8458 3.03844 45.8621 3.08721 45.8786C3.36193 45.8012 3.63727 45.7235 3.91199 45.6461ZM45.9723 25.3676C45.5779 25.3244 44.5899 25.4127 44.1212 25.5702C44.3752 25.5506 44.6292 25.531 44.8832 25.5115C44.4071 25.5815 43.9365 25.652 43.4567 25.7219C43.4466 25.851 43.9921 25.7097 44.8309 25.6417C44.9608 25.6314 45.8061 25.6861 46.0769 25.5332C46.1313 25.5019 45.2505 25.5936 45.8525 25.448C45.5848 25.4753 45.3545 25.5049 45.1017 25.5329C45.0797 25.5052 45.0578 25.4774 45.034 25.4499C45.3475 25.4223 45.6589 25.3951 45.9723 25.3676ZM6.18878 30.3435C5.28274 30.448 5.17716 30.5121 4.99965 30.6242C5.41934 30.5623 5.83922 30.5006 6.25891 30.4387C6.23464 30.4072 6.21306 30.3753 6.18878 30.3435ZM40.3057 24.1335C40.2593 23.6362 40.213 23.8574 40.1747 23.6596C40.0302 22.912 40.0186 22.3914 39.8945 21.6507C39.9146 21.6984 39.9332 21.7422 39.9527 21.7881C39.9526 21.7874 39.9525 21.7868 39.9524 21.7861C39.5795 18.2522 39.6432 20.1246 39.9296 22.2315C39.9088 22.2842 39.8877 22.335 39.8671 22.3877C40.0303 23.3262 40.1827 24.1914 40.3057 24.1335ZM27.6627 57.4198C27.6508 57.4621 27.5017 57.1331 27.6308 57.7693C27.8497 58.2587 27.6695 57.434 27.7039 57.2177C27.7403 57.3897 27.7768 57.5658 27.8129 57.736C27.7292 56.691 27.6734 56.5439 27.6057 56.9368C27.6014 56.9648 27.6746 57.3774 27.6627 57.4198ZM28.4264 64.2609C28.6742 64.3753 28.4092 63.0762 28.3436 63.1326C28.363 63.314 28.4193 63.45 28.4257 63.6442C28.4324 63.8403 28.3847 63.8965 28.4264 64.2609ZM10.0846 45.098C10.1232 45.0943 10.5212 45.1435 10.4735 45.0725C9.97381 44.9519 9.02559 45.1858 9.20164 45.2275C9.51958 45.1853 9.72854 45.1322 10.0847 45.0982C10.0847 45.0981 10.0846 45.098 10.0846 45.098ZM51.9361 24.5786C51.9171 24.5744 50.949 24.6541 50.8291 24.7055C50.7316 24.7588 50.6861 24.8086 50.6145 24.8602C51.1404 24.7558 52.2183 24.6534 51.9342 24.5789C51.9348 24.5788 51.9355 24.5787 51.9361 24.5786Z" fill="#305B91"/>
</svg>
