<svg width="168" height="9" viewBox="0 0 168 9" fill="none" xmlns="http://www.w3.org/2000/svg">
<path d="M0.794496 2.50075C1.83064 2.01362 2.97387 1.76683 4.12372 1.8886C4.4155 1.91439 4.37706 2.24619 4.48807 2.29335C4.67657 2.38136 4.9827 2.00875 5.03014 2.00614C5.31953 1.98566 5.23897 2.56708 5.27915 2.58709C5.7285 2.79664 5.60622 2.14616 5.98165 2.06247C6.46877 1.95343 7.24359 2.02893 7.84679 2.02883C8.06861 2.02984 7.98939 2.47327 8.47496 2.41029C8.82912 2.36543 9.86522 1.80978 10.3728 2.31783C10.3863 2.51904 10.3364 2.7446 10.3216 2.95376C10.9691 2.07811 11.273 2.09904 12.238 2.25403C12.395 2.27819 12.5244 1.92575 12.8097 2.03862C13.0964 2.15155 13.1325 2.68259 13.7065 2.64665C13.9093 2.63268 13.997 2.25235 14.2946 2.22099C15.1336 2.13117 16.828 2.51263 17.5174 2.4946C18.9352 2.45641 19.6255 1.78126 20.8873 1.9429C20.9844 1.95435 20.7927 2.37546 20.9697 2.37498C21.1482 2.37442 21.3087 1.82106 21.3523 1.80604C21.8241 1.64279 22.8184 2.32617 23.0798 2.22535C23.7033 1.97935 23.0647 1.76915 23.9438 1.62422C24.7975 1.48554 25.9385 2.14268 26.7875 2.24251C27.7711 2.35868 28.0128 1.31601 28.7821 2.35828C31.3372 2.17983 33.8529 2.03166 36.3877 1.87069C36.3894 2.0853 36.39 2.30004 36.3902 2.51471C36.5855 2.358 36.7812 2.20106 36.9774 2.04597C36.9535 2.20677 36.9311 2.36767 36.9072 2.52686C37.8288 1.87191 38.6395 1.5205 39.7538 1.64502C39.7756 1.64735 39.7359 2.07697 39.7543 2.08726C40.0066 2.15783 40.2724 1.81792 40.4951 1.88653C41.03 2.05081 41.9537 2.94779 41.5175 1.82353C42.747 2.01071 44.1905 1.5694 45.3594 1.74681C45.8685 1.82302 46.0455 2.49289 46.2893 2.52289C46.533 2.5526 46.3883 1.97673 46.4735 1.95125C46.9858 1.80319 47.8413 1.79621 47.9517 2.44272C48.0458 2.17951 48.1458 1.91294 48.2415 1.64809C48.2052 2.37044 49.7882 2.01616 50.209 2.01939C50.2857 2.01996 50.3073 2.33533 50.365 2.3301C51.0078 2.2674 51.1491 1.76711 51.6932 1.58401C51.8843 1.51945 51.6036 2.08597 52.0912 1.82905C52.1337 1.80651 52.0938 1.30729 52.6867 1.29078C53.6333 1.26395 55.4401 1.00737 56.5745 1.21967C56.6675 1.23618 56.4031 1.78979 56.8215 1.64982C56.9731 1.60001 56.888 1.21523 57.2589 1.20076C58.6952 1.14113 60.2446 1.54187 61.6976 1.13303C61.6563 1.57149 61.1476 2.07583 61.9248 1.78048C62.0494 1.73184 61.945 1.34409 62.001 1.32806C62.4554 1.20303 62.8589 1.47137 63.3488 1.30874C63.4935 1.25983 63.5219 0.952435 63.7019 0.875223C63.9677 0.760401 64.0974 1.19436 64.4042 1.00114C64.8844 0.697168 64.9468 0.281111 65.5734 1.07907C68.9998 0.945494 72.4219 0.649531 75.835 0.961367C76.83 0.715606 77.7411 0.445259 78.762 0.346465C79.0608 0.317771 79.1286 0.871913 79.6152 0.683843C79.7246 0.642453 80.4984 0.0408111 80.6186 1.16129C80.8333 1.06302 80.9691 1.05884 81.1531 0.997987C81.0123 0.834329 80.8667 0.668936 80.731 0.503718C81.5172 0.677329 82.127 0.278856 82.8371 0.089011C83.351 -0.0498395 82.9876 0.432211 83.3023 0.382872C83.6165 0.335193 83.7594 0.226637 84.1503 0.801875C84.4551 0.137096 84.6596 0.602706 85.218 0.620594C85.2449 0.621323 85.3293 0.570035 85.4402 0.517877C85.5768 0.453618 85.7542 0.388056 85.9146 0.41672C86.1238 0.45419 86.1847 0.868591 86.5185 0.80528C86.5726 0.795651 87.2832 0.284684 87.5116 0.239026C87.8656 0.166318 88.4292 0.700709 88.4983 0.707626C89.4747 0.807248 89.8596 0.286243 90.5552 1.15554C90.7014 0.643928 91.2953 0.349394 91.7719 0.404531C92.3611 0.473591 93.5429 1.53746 93.7225 0.431746C94.4086 0.934797 94.342 0.629096 95.1626 0.631643C95.8986 0.632548 97.8735 1.09072 98.4808 1.04157C99.0821 0.993351 98.8016 0.371539 99.042 0.2939C99.436 0.164824 99.2156 0.615341 99.4838 0.614217C100.243 0.610032 100.907 0.537123 101.641 0.354855C101.674 0.674944 101.709 0.996699 101.742 1.31681C101.781 1.21126 101.821 1.10558 101.861 1.00003C102.016 1.00671 102.19 1.00408 102.334 1.01703C101.151 -0.411743 103.504 1.14704 104.226 1.20089C104.835 1.24473 105.858 0.605705 106.528 0.479808C106.69 0.448765 106.57 0.79074 106.604 0.783676C106.996 0.69564 107.061 0.461644 107.586 0.508134C107.863 0.533446 108.135 0.973157 108.405 0.988885C110.383 1.10209 112.312 0.725876 114.282 0.742119C114.618 0.744789 114.889 1.28132 115.17 1.30188C115.572 1.33113 115.841 0.907919 116.22 0.913859C116.597 0.919946 117.123 1.45409 117.381 1.38386C117.639 1.31517 117.219 0.800422 117.681 0.953425C117.894 1.02375 117.502 1.383 117.767 1.4034C118.592 1.46711 119.78 1.04727 120.646 1.52553C120.611 1.41292 120.561 1.31092 120.517 1.20284C121.457 1.28019 122.268 1.5779 123.243 1.65311C123.583 1.68019 124.207 1.37657 124.539 1.39081C124.872 1.40512 125.01 1.76544 125.275 1.78549C125.384 1.79453 125.354 1.47518 125.427 1.48446C126.339 1.60376 126.832 2.18948 127.795 2.16325C131.34 2.06866 134.966 2.01908 138.57 1.96746C138.714 1.96546 138.826 1.55585 139.04 1.50416C139.373 1.42422 139.372 1.79071 139.415 1.80557C139.697 1.89898 139.597 1.55517 139.978 1.5725C140.824 1.61083 142.125 1.9713 142.98 1.98546C144.892 2.01504 146.533 1.77035 148.415 1.69911C148.553 1.69294 148.436 2.17816 148.673 2.19624C150.323 2.329 150.713 1.87808 152.75 2.11332C154.825 2.35018 158.69 2.84915 161.1 3.04813C161.1 3.04927 161.1 3.05041 161.1 3.05155C161.863 2.18496 162.882 2.46641 163.656 3.19585C158.834 5.16879 154.344 3.93799 149.358 3.78066C144.051 3.61094 138.379 4.97559 133.027 4.52772C132.52 4.48527 132.34 3.96091 131.916 4.05132C131.844 4.0666 132.011 4.47188 131.791 4.50305C128.739 4.91785 125.559 3.88429 122.572 4.02535C121.768 4.06337 121.629 4.5023 120.921 4.59123C121.052 4.38619 121.141 4.17004 121.256 3.96283C118.058 3.19115 114.831 3.37463 111.574 3.18249C111.427 3.17311 111.421 2.73872 111.267 2.71796C110.959 2.6749 110.649 3.14344 110.38 3.15178C110.027 3.16243 109.976 2.81549 109.651 2.8287C109.493 2.8357 109.531 3.16876 109.188 3.10266C109.16 3.09701 109.151 2.74842 108.921 2.78683C108.292 2.89313 106.997 3.15001 106.477 3.22365C105.812 3.31742 105.295 2.77969 105.046 2.73932C104.367 2.63036 104.368 3.16767 103.794 3.15393C99.7112 3.05926 95.8221 2.37371 91.6397 2.33296C91.3724 2.33017 90.3875 2.91845 89.9039 2.89069C89.7406 2.87951 88.8958 2.71535 88.7705 2.70162C88.2596 2.64827 87.799 2.28446 87.5144 2.20738C86.957 2.05653 86.339 2.61938 86.0409 2.67532C85.8697 2.70762 85.6558 2.72137 85.4384 2.72485C84.99 2.73198 84.5177 2.69552 84.3686 2.68592C83.8339 2.65116 84.0092 1.95265 83.6236 2.11643C83.5094 2.16541 83.6308 2.70034 83.2277 2.70153C82.8895 2.70078 82.7504 2.2982 82.5176 2.2266C82.2795 2.15543 81.8735 2.78094 81.7302 2.76612C80.9886 2.68325 80.6556 2.27695 79.8366 2.26264C79.1406 2.25053 76.0499 2.57212 75.7757 2.7241C74.6261 3.39602 76.5571 3.075 76.6701 3.09621C77.2636 3.21633 77.1799 3.46903 77.7618 2.98168C78.2962 4.45773 80.1156 2.1325 80.6006 3.88813C81.0779 2.71344 81.4888 3.30135 81.9955 3.53427C82.6969 3.85643 82.1598 3.17639 82.6797 3.16932C82.8861 3.16716 83.4814 3.69722 83.7861 3.62246C84.0912 3.54748 84.2192 3.13927 84.6256 3.11636C84.9168 3.09934 85.184 3.12004 85.4381 3.18266C85.8165 3.27594 86.1707 3.46221 86.5351 3.75562C86.6475 3.53981 86.7528 3.32392 86.8643 3.10817C87.2869 3.34191 87.7135 3.57469 88.1406 3.80774C88.0732 3.61862 88.0057 3.42787 87.9382 3.23876C88.0635 3.21199 88.1895 3.18681 88.3153 3.16173C88.7318 3.44807 89.1108 3.7135 89.5317 4.01034C90.6882 2.92787 90.3485 3.87029 90.9893 4.01828C91.6355 4.16653 92.0065 3.53864 92.4978 3.54104C93.1601 3.5442 93.467 3.46929 94.1411 3.52382C94.5318 3.55506 95.1898 4.17493 94.6569 3.20062C95.8678 3.14064 97.54 2.89973 98.6215 3.31279C98.9383 3.43328 98.5071 3.7294 98.5608 3.76827C98.8279 3.95243 99.0658 3.46359 99.3446 3.53984C99.8074 3.66671 100.71 4.06977 101.077 4.16825C101.609 4.31037 102.447 3.69016 102.534 3.64542C103.014 3.39681 103.129 3.93033 103.282 3.89732C104.156 3.7051 104.355 3.48734 104.602 4.61314C104.841 4.13486 105.801 3.34463 106.007 4.16482C106.032 3.42965 106.81 3.57405 107.297 3.40332C107.381 3.61861 107.466 3.83267 107.55 4.04959C108.596 2.76092 110.563 3.77389 111.882 3.97104C111.915 3.97527 111.991 3.42604 112.186 3.5563C112.198 3.56687 112.17 3.81386 112.303 3.85006C112.739 3.96656 114.396 4.63821 114.588 4.65008C115.297 4.69404 115.435 4.28695 115.869 4.26255C116.44 4.22989 116.51 4.60377 117.053 4.569C117.307 4.55341 117.554 4.0728 117.951 4.15555C118.185 4.20397 118.195 4.58838 118.381 4.62578C119.039 4.76003 119.541 4.53538 120.114 5.0562C120.312 3.84153 120.562 4.75102 120.851 4.85353C122.019 5.27178 123.524 4.81167 124.536 4.96173C127.701 5.43314 130.484 6.29994 133.58 6.60151C134.084 6.65048 134.231 6.04322 134.755 6.10459C134.991 6.13273 135.214 6.58669 135.598 6.6099C135.915 6.63005 136.376 6.42441 136.767 6.44317C136.871 6.44776 136.862 6.86398 137.015 6.87396C138.166 6.94905 139.311 6.70474 140.492 6.55529C140.928 6.4995 141.167 7.0626 141.138 6.10052C141.291 6.34332 141.441 6.55551 141.583 6.79462C142.203 6.21763 142.679 6.87086 143.488 6.75381C143.576 6.73945 144.212 6.10514 144.528 6.59956C144.568 6.25916 144.53 5.96665 144.554 5.6578C144.887 5.54279 145.417 5.96339 145.643 6.01472C145.873 6.06606 146.049 5.62984 146.119 5.62883C146.383 5.63023 146.293 6.21074 146.313 6.22138C147.511 6.83953 147.372 6.52137 148.178 5.68362C148.381 5.47226 149.611 6.17529 149.892 5.49666C149.889 5.77906 149.808 6.02368 149.775 6.29165C150.141 6.38246 150.519 6.4759 150.905 6.56788C150.837 6.2931 150.751 6.01722 150.69 5.74117C151.471 6.01591 152.144 5.41041 152.762 5.46255C153.112 5.49324 153.052 6.08973 153.274 5.97015C153.318 5.94646 153.266 5.53876 153.394 5.51278C154.446 5.30313 154.809 5.7498 155.846 5.8844C156.327 5.94796 156.783 5.23541 157.416 5.75325C157.455 5.80065 158.13 6.49006 158.586 5.57743C158.701 5.87921 158.808 6.04017 158.891 6.29341C159.776 4.94961 159.486 6.29726 160.608 6.68081C161.165 6.87854 163.101 6.74063 163.802 6.63114C164.184 6.5618 164.201 6.016 164.269 5.99786C164.646 5.8929 164.649 6.4231 165.035 6.35766C165.421 6.29209 165.891 5.71908 166.3 5.79736C166.584 5.85587 166.325 6.49961 166.742 6.29409C166.843 6.25025 166.604 5.67756 167.082 5.92432C167.146 5.96184 167.843 6.60681 167.956 6.74451C167.629 7.07569 166.414 7.46328 166.014 7.58285C158.619 9.6102 144.173 8.91032 136.47 8.27222C135.75 8.21303 135.306 7.61884 134.848 7.54893C134.386 7.47893 134.756 8.02157 134.337 7.9599C133.917 7.89661 133.624 7.51245 133.228 7.4633C130.569 7.13059 127.897 6.78946 125.247 6.58547C124.564 6.53331 124 6.93982 123.375 6.91629C123.131 6.90689 123.145 6.35553 122.971 6.35389C121.109 6.32797 119.365 6.79645 117.522 6.66875C116.755 6.615 115.94 6.12283 115.179 6.05436C114.554 5.99675 113.893 6.29338 113.329 6.28219C113.023 6.27738 112.875 5.85255 112.765 5.81604C112.383 5.69442 112.502 6.2114 112.305 6.20531C111.762 6.18687 111.509 5.55953 110.998 5.59262C110.797 5.606 110.811 6.00129 110.519 6.05421C110.149 6.12074 110.295 5.76077 110.033 5.73999C110.017 5.73792 110.06 6.02153 109.921 6.02884C109.022 6.07686 107.895 6.26789 107.028 6.2253C105.244 6.13855 103.479 5.55114 101.821 5.4076C101.403 5.37247 101.504 5.74277 101.37 5.75757C100.72 5.8272 100.499 5.38227 99.8209 5.52646C99.7081 5.55005 99.2467 6.05021 98.8203 5.91288C98.5895 5.83891 98.3349 5.51626 98.1366 5.43834C97.9379 5.36045 97.8972 5.82768 97.6573 5.82363C97.221 5.8174 97.3531 5.4953 96.7299 5.54257C96.4788 5.56078 95.6376 5.99014 95.001 5.94685C93.9402 5.87586 92.6455 5.45361 91.4102 5.4343C90.9801 5.42657 90.4253 5.90197 89.7682 5.90148C88.9739 5.90106 87.476 5.78309 86.654 5.77458C86.2339 5.77014 86.2055 5.26656 86.1555 5.24545C85.836 5.10471 85.9641 5.66767 85.7504 5.64514C85.643 5.63376 85.5385 5.57082 85.4362 5.49428C85.2592 5.36189 85.0876 5.18882 84.9183 5.17147C84.7479 5.15396 84.7209 5.56872 84.6839 5.57196C83.3146 5.70999 82.0722 5.67647 80.7131 5.73117C73.3384 6.02359 65.9235 6.7221 58.5537 6.69791C57.936 6.69681 57.8974 6.17489 57.3576 6.27348C56.8175 6.37054 56.3291 7.51545 55.8444 6.28297C55.8379 6.53496 55.8449 6.71426 55.8377 6.94368C54.7077 6.62407 53.5955 7.02764 52.5027 7.10939C51.6941 7.17033 50.9733 7.15483 50.2215 7.15355C49.5559 7.15087 49.5977 6.71067 49.0435 7.30294C46.1748 7.04638 43.2807 7.24347 40.4308 6.76178C39.7994 7.72512 39.1366 7.16084 38.2163 7.05978C38.1028 7.04689 38.2377 7.38361 37.9023 7.36837C37.4844 7.34989 37.237 6.83713 36.523 6.89593C36.3323 6.91189 34.9613 7.54961 34.4396 7.27498C33.9162 7.00031 33.1443 6.85931 32.5975 6.59902C32.6836 6.81968 32.7897 7.02976 32.8844 7.24683C32.6178 7.29719 32.3505 7.34622 32.0858 7.39659C32.0353 7.12913 31.9847 6.86145 31.9356 6.59232C31.7922 6.85536 31.649 7.11525 31.5051 7.38157C31.1079 6.01377 31.4773 6.44922 30.7393 6.83238C30.3649 7.02343 30.0521 6.79535 29.67 6.95299C29.5324 7.01081 29.4613 7.42195 29.31 7.48095C28.9395 7.6236 29.1334 7.05336 28.9016 7.06681C28.6684 7.0822 28.3621 7.71282 27.9361 7.45773C28.3254 6.3404 27.0663 6.75666 27.043 7.61208C26.8908 7.62066 26.7618 7.5911 26.5956 7.62293C26.6503 5.46278 25.9285 7.02732 25.6326 7.3367C25.3358 7.64565 25.3218 7.06659 25.2503 7.09253C25.0449 7.16516 25.2078 7.39826 25.0624 7.4132C24.0826 7.50755 23.1213 7.19922 22.1723 7.21248C22.0353 7.21446 22.1722 7.53552 22.0115 7.51108C21.8551 7.48629 21.6715 7.16897 21.43 7.20325C21.3647 7.21214 21.358 7.50027 21.2562 7.50547C19.1413 7.59493 17.1746 7.44725 14.9851 7.52148C14.7925 7.52805 14.667 8.04624 14.3007 8.0473C13.9434 8.04781 13.3091 7.61854 12.8484 7.60671C12.7245 7.60344 12.713 8.03037 12.5503 8.02751C12.0055 8.01694 11.5019 7.69611 10.9066 7.67087C9.94231 7.62632 8.88301 7.94281 7.91846 7.74288C7.738 7.70576 7.74506 7.34975 7.45528 7.26519C6.96004 7.11913 7.17281 7.62619 7.0789 7.70075C6.7774 7.94153 6.64381 7.25958 6.36353 7.45216C6.32095 7.4819 6.40606 7.886 6.36688 7.89454C5.7677 7.99841 5.61291 7.04889 4.98841 7.59719C4.38051 7.08001 5.33427 6.83955 5.43663 6.54156C5.65692 5.81864 4.9209 5.02388 4.54488 4.7765C4.19895 4.56471 4.20317 5.00705 4.06704 5.01484C3.67612 5.03745 3.32822 5.07838 2.83624 5.10117C2.6167 5.11108 2.42125 5.11306 2.25698 5.1008C2.03701 5.09172 1.85889 5.06781 1.72988 5.02272C1.42045 4.91445 1.96179 4.69899 1.79597 4.56308C1.60831 4.42862 1.60669 4.76132 1.34401 4.41303C1.23261 4.23767 1.09324 3.88737 1.00013 3.51601C0.781852 3.15197 0.819769 2.75461 0.794496 2.50075ZM61.1064 2.2497C60.0569 4.02076 57.1392 3.92399 55.5711 3.80783C54.2712 3.70985 53.106 2.40538 53.4386 4.34096C54.8421 4.3079 55.9685 4.07703 57.4528 4.09181C57.6072 4.09354 58.5316 4.24659 58.853 4.26957C59.0336 4.28211 59.0488 4.60316 59.2936 4.59285C59.3469 4.58967 59.6303 4.16151 59.7387 4.16972C60.1103 4.19618 61.2279 4.80982 61.3805 4.78716C61.8043 4.72075 61.6275 4.22589 61.8086 4.13023C62.4198 3.81361 62.5084 4.56173 63.1147 4.30221C63.2231 4.25582 63.5696 3.59281 64.0254 3.66682C64.2107 3.6977 64.5327 4.02729 64.6731 4.00769C65.4348 3.90163 66.2915 3.43417 66.9971 3.49239C67.5761 3.5407 67.432 4.04878 67.7383 4.10974C68.0445 4.16891 68.3992 3.57583 68.6065 3.53756C68.9356 3.47743 69.3553 3.8012 69.4583 3.79426C71.5021 3.65414 73.3176 3.2368 75.2791 3.06994C73.951 2.85813 72.5808 2.66915 71.2611 2.45499C70.5167 2.99179 70.8831 2.49468 70.3823 2.34137C69.9853 2.22011 69.9077 3.10712 69.3861 3.01968C69.3865 3.01967 69.3869 3.01966 69.3873 3.01965C69.117 2.97355 68.5269 2.37261 67.9663 2.64145C67.9464 2.65168 67.9061 3.11206 67.4819 3.13762C66.5285 3.19421 65.063 3.46476 63.9898 3.3937C63.6737 3.37268 63.7257 2.8886 63.3506 2.83854C63.0769 2.80242 62.7727 3.25668 62.3427 3.16828C61.8026 3.05518 61.5263 2.29492 61.1882 3.37096C61.1475 2.9912 61.1526 2.61962 61.1064 2.2497ZM31.5976 4.25621C31.5204 4.21737 30.4742 3.07226 30.8255 4.32895C32.1725 4.82143 33.6651 4.48219 35.0756 4.7323C34.5413 3.49714 33.7415 4.02706 32.7412 4.16264C32.7408 4.16266 32.7404 4.16268 32.7399 4.1627C32.6929 4.16903 32.8759 3.83231 32.6103 3.90344C32.4815 3.93811 32.0062 4.46267 31.5976 4.25621Z" fill="#FFD442"/>
</svg>
