<svg width="360" height="359" viewBox="0 0 360 359" fill="none" xmlns="http://www.w3.org/2000/svg">
<path d="M48.0508 302.166C43.381 297.145 39.2452 292.205 34.472 285.64C34.4694 285.636 34.4669 285.633 34.4643 285.629C33.7848 284.69 33.0935 283.716 32.3894 282.702C26.7997 274.514 19.7012 263.557 12.4632 245.479C4.55813 225.43 2.11292 208.32 1.18591 198.001C1.02488 196.064 0.811216 194.091 0.53221 189.016C0.403327 186.482 0.275742 183.29 0.281889 179C0.284696 177.674 0.301853 176.25 0.34077 174.72C0.429118 171.286 0.62344 167.266 1.05476 162.602C2.28213 147.137 7.49791 123.031 17.2616 102.759C23.0184 90.4135 30.0237 79.4824 35.9084 71.6437C44.5117 60.167 54.0887 50.033 65.6919 40.4605C76.3351 31.7375 88.7278 23.4413 104.23 16.2067C116.132 10.6813 128.326 6.6937 140.981 4.02309C142.594 3.68345 144.223 3.36416 145.843 3.07016C156.676 1.10994 167.915 0.0716754 180 0.140303C180.444 0.143054 180.889 0.147359 181.335 0.153234C203.765 0.580367 221.602 4.08555 240.31 10.5903C247.624 13.1885 255.04 16.3388 262.794 20.3733C275.066 26.66 291.795 37.7563 305.903 51.8899C307.109 53.0853 308.3 54.2994 309.47 55.527C309.476 55.5331 309.482 55.5394 309.488 55.5456C322.147 68.7232 332.129 83.792 338.224 95.4148C347.779 114.001 349.583 121.805 351.653 128C352.367 130.354 352.992 132.561 353.668 135.194C356.148 144.674 358.718 159.324 359.031 174.33C359.033 174.387 359.034 174.444 359.036 174.502C359.097 176.99 358.947 179.013 358.776 179C358.602 178.988 358.47 176.953 358.409 174.474C358.222 166.58 357.487 158.842 356.445 152.028C356.245 151.698 355.855 149.865 355.466 147.671C354.364 142.281 351.745 125.017 339.939 100.968C340.719 102.627 341.341 104.02 341.876 105.252C342.503 106.697 342.964 107.814 343.355 108.776C344.166 110.785 344.687 112.116 345.598 114.502C347.737 120.013 350.754 128.813 352.957 138.34C353.519 140.742 353.78 142.731 353.61 142.754C353.437 142.777 352.899 140.834 352.338 138.441C352.327 138.394 352.316 138.348 352.305 138.301C350.127 128.899 347.031 119.85 344.778 114.12C344.21 112.661 343.704 111.413 343.32 110.479C343.013 109.732 342.619 108.797 342.404 108.278C342.375 108.21 342.321 108.078 342.256 107.921C342.255 107.918 342.254 107.916 342.253 107.913C342.217 107.825 342.033 107.377 341.846 106.895C341.808 106.797 341.726 106.586 341.634 106.338C341.608 106.275 341.581 106.213 341.554 106.15C341.182 105.279 340.796 104.393 340.368 103.439C338.64 99.7444 336.101 93.7359 328.893 82.314C322.235 71.9156 309.576 54.674 288.804 38.5602C290.195 39.6561 291.573 40.7744 292.932 41.9111C296.357 44.7745 299.687 47.7745 302.903 50.8974C304.135 52.0935 305.333 53.2906 306.536 54.5273C308.473 56.5182 310.369 58.5604 312.215 60.6437C313.463 62.0514 314.69 63.4818 315.894 64.9297C315.897 64.9329 315.9 64.9362 315.902 64.9395C317.573 66.95 319.202 68.9989 320.798 71.1023C321.356 71.8384 321.903 72.5709 322.439 73.3005C324.57 76.2052 326.594 79.124 328.783 82.5584C329.047 82.9775 329.332 83.4349 329.542 83.7774C329.769 84.1455 329.985 84.5007 330.188 84.8375C330.367 85.1346 330.536 85.4187 330.698 85.6914C330.72 85.7279 330.742 85.7645 330.764 85.8011C330.945 86.1064 331.117 86.3987 331.282 86.6801C331.447 86.961 331.605 87.2319 331.76 87.4982C331.761 87.5006 331.763 87.503 331.764 87.5054C331.926 87.7838 332.049 87.9954 332.22 88.2907C332.435 88.6616 332.619 88.9807 332.842 89.3677C333.057 89.7421 333.281 90.1331 333.506 90.5287C333.73 90.9241 333.958 91.3277 334.188 91.7381C334.418 92.1488 334.65 92.5672 334.883 92.9898C335.116 93.412 335.35 93.8408 335.584 94.2731C335.818 94.706 336.051 95.1418 336.285 95.5821C336.822 96.5953 337.299 97.5875 337.615 98.333C337.931 99.0783 338.063 99.5153 337.989 99.5468C337.914 99.5782 337.639 99.2015 337.216 98.5044C336.794 97.8069 336.255 96.8463 335.713 95.8399C335.566 95.5658 335.417 95.2909 335.266 95.0153C335.177 94.8519 335.086 94.6859 334.996 94.5214C334.753 94.0787 334.505 93.6324 334.255 93.1845C334.004 92.737 333.75 92.2865 333.491 91.8321C333.231 91.3764 332.966 90.9157 332.695 90.4495C332.426 89.9845 332.148 89.5102 331.865 89.0296C331.589 88.5605 331.272 88.0267 330.987 87.5503C330.779 87.2016 330.521 86.7716 330.305 86.414C330.079 86.0407 329.857 85.674 329.641 85.3211C329.425 84.9673 329.215 84.6258 329.014 84.3003C328.992 84.2656 328.971 84.2308 328.949 84.196C328.771 83.9084 328.598 83.6314 328.434 83.3701C328.251 83.078 328.076 82.8022 327.909 82.5408C327.725 82.253 327.612 82.0788 327.473 81.8655C325.63 79.0491 323.237 75.636 320.836 72.4767C320.534 72.0791 320.233 71.6848 319.933 71.2962C318.339 69.2312 316.706 67.2091 315.027 65.2214C313.807 63.7776 312.563 62.3518 311.296 60.9447C309.43 58.8739 307.51 56.84 305.545 54.8551C304.325 53.6222 303.11 52.4293 301.858 51.2349C298.588 48.1158 295.19 45.1119 291.678 42.2354C288.172 39.3644 284.533 36.6064 280.794 33.9888C277.069 31.3793 273.094 28.8154 269.172 26.4901C266.288 24.7772 263.282 23.0964 260.466 21.6171C258.953 20.8212 257.454 20.0604 255.973 19.3341C255.968 19.3316 255.963 19.3291 255.958 19.3266C254.659 18.6893 253.367 18.0755 252.075 17.4815C249.302 16.2063 246.555 15.0322 243.769 13.9285C240.982 12.8249 238.196 11.8072 235.348 10.8537C232.515 9.9053 229.634 9.02677 226.738 8.22903C223.819 7.4259 220.969 6.72094 217.923 6.05546C213.92 5.18319 209.937 4.46188 205.807 3.86447C201.728 3.27504 197.558 2.82252 193.402 2.52044C191.945 2.41434 190.478 2.32538 189.008 2.25478C189.002 2.25449 188.997 2.25421 188.991 2.25393C186.297 2.12479 183.581 2.05565 180.848 2.04829C180.566 2.04752 180.283 2.04742 180 2.04798C176.048 2.0564 172.167 2.18991 168.206 2.45597C163.989 2.73994 159.759 3.174 155.528 3.76125C151.308 4.34627 146.969 5.1044 142.66 6.02038C138.805 6.83932 134.968 7.78898 131.231 8.84645C130.246 9.12501 129.264 9.41189 128.287 9.707C123.629 11.1137 119.197 12.6613 114.864 14.374C110.551 16.0797 106.292 17.9705 102.095 20.0464C97.9039 22.1194 93.7508 24.3892 89.6666 26.8479C85.5635 29.3187 81.6177 31.9207 77.7025 34.7391C73.8226 37.5335 70.0347 40.5015 66.3364 43.6564C64.2787 45.4104 62.1338 47.3242 60.1492 49.1793C58.1447 51.0516 56.1961 52.9567 54.3153 54.879C53.5521 55.6591 52.7994 56.4424 52.0593 57.227C50.9801 58.3709 49.9253 59.5195 48.9026 60.6628C47.1766 62.5922 45.5357 64.5134 43.9817 66.4134C42.4293 68.3112 40.9647 70.1869 39.5876 72.0285C38.1629 73.937 37.0249 75.5291 35.6995 77.4643C32.4729 82.1791 30.6163 85.1867 28.6065 88.5639C28.2132 89.2294 27.8157 89.9123 27.4066 90.627C25.0616 94.7169 22.885 98.8833 20.8932 103.083C18.8877 107.313 17.071 111.563 15.4033 115.927C13.7501 120.253 12.2555 124.673 10.9437 129.119C9.63125 133.567 8.49685 138.045 7.53118 142.594C6.56976 147.116 5.76707 151.808 5.17506 156.295C4.82947 158.899 4.52357 161.684 4.2986 164.255C4.13506 166.115 4.0022 167.957 3.8989 169.77C3.85693 170.507 3.81999 171.234 3.78765 171.958C3.68027 174.362 3.62462 176.714 3.6153 179C3.61494 179.087 3.61466 179.173 3.61443 179.26C3.60841 181.626 3.65122 183.906 3.73689 186.125C3.82223 188.337 3.95318 190.544 4.12656 192.718C4.30914 194.978 4.49196 196.829 4.78013 199.231C4.96876 200.789 5.17392 202.309 5.39727 203.818C5.7303 206.068 6.11031 208.33 6.53369 210.576C6.95714 212.821 7.41717 215.022 7.92642 217.24C8.08974 217.952 8.26692 218.702 8.43979 219.412C8.97357 221.605 9.5432 223.76 10.1568 225.911C10.7689 228.055 11.413 230.154 12.0985 232.244C12.7876 234.344 13.5036 236.39 14.2724 238.458C15.5813 241.98 16.9332 245.314 18.1842 248.199C19.4533 251.128 20.7056 253.819 21.9892 256.419C22.2298 256.906 22.4725 257.392 22.7174 257.876C23.7726 259.964 24.8473 261.987 25.9494 263.968C27.3077 266.409 28.6957 268.765 30.1464 271.1C31.5852 273.416 33.0917 275.714 34.63 277.943C36.1847 280.194 37.7185 282.31 39.4259 284.548C41.1173 286.763 42.8868 288.969 44.8902 291.334C46.8767 293.677 49.0217 296.081 51.2601 298.455C53.4957 300.826 55.8299 303.174 58.2079 305.441C60.5907 307.713 63.0422 309.928 65.5156 312.046C68.0031 314.176 70.5299 316.225 73.0983 318.198C75.6619 320.168 78.3592 322.123 80.9368 323.892C85.1038 326.752 89.378 329.425 93.7631 331.912C98.1264 334.387 102.614 336.684 107.171 338.774C111.731 340.866 116.375 342.759 121.094 344.45C125.811 346.14 130.596 347.625 135.445 348.903C136.521 349.187 137.585 349.457 138.66 349.719C142.446 350.64 146.266 351.435 150.089 352.099C150.115 352.103 150.141 352.108 150.168 352.112C155.101 352.966 159.971 353.594 164.898 354.023C166.707 354.18 168.453 354.304 170.235 354.404C172.016 354.504 173.743 354.574 175.507 354.62C177.011 354.659 178.512 354.678 180 354.678C180.257 354.678 180.512 354.678 180.767 354.677C182.521 354.669 184.225 354.636 185.938 354.577C187.51 354.523 189.055 354.449 190.772 354.343C190.928 354.333 191.083 354.323 191.239 354.313C193.109 354.192 195.225 354.022 197.182 353.833C202.403 353.329 207.439 352.616 212.546 351.661C217.644 350.705 222.685 349.526 227.725 348.102C229.691 347.547 231.638 346.96 233.599 346.331C236.644 345.353 239.645 344.299 242.655 343.148C247.587 341.26 252.448 339.146 257.228 336.804C261.997 334.468 266.688 331.903 271.232 329.147C275.779 326.39 280.236 323.406 284.496 320.27C289.246 316.775 293.794 313.066 298.168 309.122C302.536 305.184 306.709 301.026 310.651 296.689C314.606 292.336 318.336 287.798 321.834 283.082C325.333 278.365 328.596 273.475 331.61 268.43C333.412 265.412 335.127 262.335 336.746 259.215C337.582 257.553 338.36 255.939 339.082 254.386C344.356 242.856 347.364 234.141 350.366 222.443C350.642 221.322 350.854 220.407 351.104 219.29C351.151 219.076 351.201 218.85 351.252 218.619C351.57 217.16 351.928 215.462 352.379 213.124C353.27 208.453 354.53 201.225 355.359 191.818C355.566 189.437 355.798 187.915 355.942 188.442C356.041 188.812 356.061 190.093 355.98 191.646C356.204 188.773 356.357 185.929 356.443 183.073C356.477 181.933 356.528 180.86 356.594 180.097C356.66 179.333 356.738 178.941 356.819 179.007C356.899 179.073 356.976 179.595 357.024 180.457C357.072 181.319 357.086 182.448 357.055 183.597C356.974 186.638 356.816 189.673 356.581 192.706C356.347 195.732 356.037 198.745 355.65 201.759C355.264 204.762 354.801 207.764 354.259 210.76C353.721 213.736 353.103 216.717 352.409 219.678C351.711 222.651 350.948 225.567 350.1 228.498C349.591 230.254 349.05 232.018 348.489 233.753C348.28 234.398 348.073 235.026 347.862 235.653C347.69 236.165 347.514 236.679 347.331 237.207C345.406 242.762 343.178 248.278 340.701 253.619C338.214 258.984 335.459 264.221 332.45 269.306C329.438 274.395 326.175 279.329 322.673 284.09C319.172 288.85 315.437 293.432 311.476 297.827C307.529 302.206 303.348 306.406 298.978 310.38C295.599 313.453 292.13 316.372 288.551 319.161C287.149 320.268 285.744 321.343 284.343 322.383C280.263 325.411 276.056 328.275 271.79 330.922C279.41 326.26 285.197 322.008 290.513 317.73C291.225 317.155 291.927 316.579 292.623 315.999C299.702 310.054 306.243 303.925 314.138 294.873C336.28 268.71 342.976 249.297 347.326 237.907C351.381 226.239 352.445 221.024 353.656 216.213C355.404 209.431 357.279 195.99 357.541 189.182C357.683 186.709 357.879 184.736 358.052 184.749C358.224 184.769 358.307 186.776 358.164 189.26C357.891 196.471 355.831 211.068 353.613 219.146C352.629 222.73 351.808 226.96 347.785 238.484C343.45 249.725 336.822 269.045 314.555 295.347C306.914 304.099 300.627 310.047 293.624 315.98C292.935 316.56 292.237 317.138 291.528 317.716C291.524 317.719 291.519 317.723 291.515 317.726C284.961 323.029 277.535 328.505 266.74 334.604C242.089 349.667 203.56 356.686 194.493 356.762C192.71 356.917 190.977 357.045 189.144 357.152C186.492 357.305 183.618 357.423 180 357.448C174.118 357.453 166.371 357.362 154.626 355.757C150.486 355.179 145.673 354.348 140.447 353.168C132.621 351.492 125.112 349.282 118.746 347.003C113.23 345.032 108.236 342.992 103.476 340.828C102.11 340.207 100.731 339.559 99.3694 338.899C96.0848 337.305 92.8465 335.606 89.7477 333.848C87.2807 332.449 84.719 330.925 82.0621 329.244C72.4188 323.099 61.1884 314.929 48.8781 301.871C35.8812 287.985 26.9615 274.173 20.5214 261.736C25.2523 270.892 29.5848 277.586 33.379 283.022C34.0968 284.046 34.7948 285.02 35.4753 285.95C40.3027 292.518 44.1492 297.043 48.4698 301.698C69.6392 323.487 80.272 328.703 91.2135 335.223C94.1723 336.862 97.4735 338.571 101.105 340.286C108.346 343.709 116.876 347.124 126.284 349.994C135.034 352.671 145.054 354.94 155.809 356.278C155.814 356.279 155.818 356.28 155.822 356.28C157.919 356.542 160.059 356.771 162.211 356.961C168.01 357.475 173.969 357.718 180 357.663C187.579 357.594 195.147 357.057 202.594 356.068C204.022 355.879 205.72 355.635 207.673 355.316C218.907 353.494 238.755 349.128 260.653 338.075C265.448 335.658 270.35 332.964 275.759 329.581C277.406 328.549 279.096 327.454 280.843 326.274C288.353 321.17 297.252 314.496 307.621 304.027C316.165 295.396 325.597 283.839 333.491 270.621C337.39 264.124 340.938 257.25 343.981 250.282C353.155 229.205 357.676 208.27 358.716 187.264C358.717 187.26 358.717 187.256 358.717 187.251C358.836 184.781 359.014 182.834 359.186 182.925C359.356 183.016 359.452 185.114 359.327 187.592C358.247 208.683 353.68 229.618 344.486 250.689C341.472 257.573 337.942 264.418 334.046 270.913C326.091 284.245 316.488 295.999 307.814 304.722C297.211 315.386 288.086 322.163 280.418 327.318C278.566 328.554 276.802 329.681 275.11 330.726C269.721 334.046 265.089 336.552 260.518 338.843C239.214 349.514 220.096 353.862 208.789 355.769C206.763 356.111 205.01 356.372 203.493 356.581C195.776 357.641 187.913 358.222 180 358.294C174.419 358.345 168.899 358.144 163.46 357.702C161.342 357.53 159.197 357.317 157.099 357.072C157.095 357.071 157.091 357.071 157.087 357.07C146.288 355.813 136.038 353.579 127.073 350.89C117.964 348.156 110.222 345.149 103.15 341.94C99.3566 340.213 95.7641 338.422 92.2755 336.53C80.5513 329.711 69.3589 324.104 48.0508 302.166ZM355.582 196.058C354.938 201.935 354.18 206.658 353.557 210.191C354.109 207.199 354.582 204.208 354.978 201.204C355.204 199.495 355.407 197.764 355.582 196.058ZM139.873 352.396C140.815 352.603 141.766 352.803 142.723 352.997C140.084 352.439 137.474 351.824 134.875 351.15C131.672 350.318 128.521 349.405 125.374 348.397C130.357 350.006 135.276 351.34 139.873 352.396ZM49.3054 301.412C60.8784 313.673 71.0517 321.279 80.5094 327.488C83.2419 329.265 85.946 330.919 88.6507 332.486C89.7724 333.136 90.9014 333.771 92.0474 334.399C85.4371 330.643 79.6122 326.745 74.995 323.366C61.2699 313.187 54.5542 306.038 48.7533 299.802C47.0906 297.976 45.5295 296.189 43.971 294.335C42.6579 292.821 41.3223 291.226 40.0035 289.588C38.1555 287.296 36.2226 284.765 34.4511 282.307C32.6703 279.84 30.9285 277.286 29.2848 274.733C27.6257 272.156 26.0533 269.565 24.5528 266.942C23.1394 264.472 21.797 261.983 20.5507 259.54C20.4794 259.4 20.4082 259.26 20.3372 259.12C19.0243 256.531 17.8186 253.991 16.7524 251.628C15.6665 249.222 14.8113 247.205 14.0663 245.409C13.1369 243.167 12.2262 240.83 11.3844 238.522C10.5396 236.206 9.74436 233.87 9.00362 231.533C8.26299 229.196 7.57707 226.86 6.93711 224.498C6.72958 223.733 6.52052 222.939 6.32662 222.182C6.23728 221.833 6.14893 221.485 6.06196 221.136C7.17904 225.773 8.52538 230.546 10.1379 235.42C12.4614 242.434 15.3656 249.825 19.1772 257.66C25.7102 270.999 34.8315 285.902 49.3054 301.412ZM3.47601 149.259C3.13407 151.321 2.67043 154.305 2.22369 158.21C2.11853 159.132 2.01408 160.114 1.91497 161.13C1.91748 161.106 1.91993 161.082 1.92245 161.058C2.19142 158.527 2.48706 156.192 2.85265 153.695C3.50819 149.234 4.30556 144.926 5.26834 140.6C6.23467 136.261 7.35735 131.972 8.63632 127.73C9.9174 123.479 11.3596 119.265 12.9429 115.14C14.5402 110.978 16.2666 106.933 18.1526 102.921C18.7523 101.646 19.3719 100.367 20.005 99.0986C18.572 101.928 17.1702 104.885 15.7769 108.071C14.6651 110.615 13.5699 113.279 12.4856 116.128C12.0703 117.219 11.5795 118.535 11.0301 120.082C8.86386 126.225 5.69893 135.984 3.47601 149.259ZM38.7228 69.118C39.3528 68.3024 39.9863 67.4975 40.6195 66.7076C42.4216 64.4596 44.2375 62.3105 46.0624 60.2478C47.3441 58.7991 48.6357 57.3876 49.9295 56.0168C50.4755 55.4382 51.0247 54.8639 51.5723 54.2987C52.4897 53.3518 53.4105 52.4219 54.3343 51.5086C47.8355 57.8959 41.9447 64.6138 36.3841 72.0522C36.3108 72.1503 36.2375 72.249 36.1639 72.3481C37.0236 71.2369 37.8777 70.1599 38.7228 69.118Z" fill="#FFD442"/>
</svg>
